<svg xmlns="http://www.w3.org/2000/svg" viewBox="0 0 137.79 128.14"><title>alicesi</title><g id="Layer_2" data-name="Layer 2"><g id="Layer_1-2" data-name="Layer 1"><path d="M137.78,115.15h0c.25,6.74-5.06,12.47-14.23,12.81l-34.45.18h0A86.25,86.25,0,0,1,75.46,127c17.79-5.16,32.38-18.61,37-23.18l12.63-.51A12.31,12.31,0,0,1,137.78,115.15Zm-44.47-10.5h0ZM69.4,125.72h-.05l-.14,0h0l-.17,0A87.14,87.14,0,0,1,49.54,128h0l-35.3-.18C5.07,127.51-.24,121.78,0,115H0a12.31,12.31,0,0,1,12.72-11.8l16.85.67h.2C56.64,106.27,69.26,101,69.26,101h0C81,96.82,91.28,89.39,98,79.87c3.34-5.08,6.25-13.85,6.25-20.38a35,35,0,0,0-70,0,34.57,34.57,0,0,0,6.15,20.3l.08.11A58.6,58.6,0,0,0,67.06,100.3c-23.74,2.41-39.1-.36-42-1q-1.37-1.55-2.68-3.15h0a59.48,59.48,0,1,1,94.09-.42l-.29.43a86.16,86.16,0,0,1-7.12,7.8h0c-17.61,16.68-36.44,21.08-39.57,21.72" style="fill:#2199a4"/></g></g></svg>