<svg xmlns="http://www.w3.org/2000/svg" viewBox="0 0 1146.61 321.53"><title>canya</title><g id="Layer_2" data-name="Layer 2"><g id="Layer_1-2" data-name="Layer 1"><path d="M513.42,205.24V313.86c-12,0-23.79,1.09-35.31-.31-10.92-1.32-18.21-9.27-23.22-19.21-5.34,4-10,8.62-15.59,11.51-31.24,16.22-63.87,19.76-97.1,7.35-24.63-9.2-36.45-28.62-37.89-54.4-.85-15.13,1.41-29.63,10.5-42.5a56.64,56.64,0,0,1,34.44-23.08c20-4.53,40.4-7.24,60.61-10.86,8.84-1.58,17.83-2.85,26.4-5.42,11.65-3.49,16.07-9.56,16.17-19.62.14-12.9-5.24-23-15.63-26.5-15.25-5.18-31-5.93-45.87.88-5.32,2.43-10.34,7.28-13.53,12.28-7.09,11.12-16.56,16.91-29.59,17-11.93.09-23.85,0-36.52,0,.46-14.2,3.81-26.76,11.77-37.9,13.43-18.77,32.49-28.44,54.5-33,32-6.57,63.93-6.31,95.16,4,16.74,5.52,30.68,15.44,37.16,32.68a67.25,67.25,0,0,1,1.73,42.7c-2.88,10.15-11.24,15.85-19.42,21.22C473,203.32,451.38,209.5,429.25,214.2c-14,3-28.14,5-41.95,8.56-10.15,2.59-17.88,9.08-20.5,19.88-4.49,18.57,3.73,32.35,22.62,35.2a92.1,92.1,0,0,0,32-.8c15.73-3.3,25-14.71,28.89-30.17A32.34,32.34,0,0,1,464,227.08a156.55,156.55,0,0,1,46.28-21.28C511.16,205.56,512.11,205.47,513.42,205.24Z" style="fill:#45c8f4"/><path d="M283.87,110.31c-14.67,0-29,1-43.19-.3-12.65-1.16-22.83-8.59-29.34-19.58-27.15-45.87-99.83-43.87-126.49,2.78C71.74,116.14,68,140.93,68.51,166.8c.49,22.5,4.74,44,17,63.29,14.67,23,36,34.14,63.06,34.7a8.34,8.34,0,0,1,4.55,1.06c-2,1.37-3.84,2.84-5.85,4.11a158.43,158.43,0,0,1-79.82,24.9c-3.88.15-8.5-2.49-11.77-5.1-23.77-19-39.31-43.66-47.4-72.69-14.46-51.89-10.81-102.3,17-149.23C47.84,29.73,82.36,8.44,126.05,2c35-5.15,68.34-.63,99.5,16.8C258.28,37.12,281.54,73.41,283.87,110.31Z" style="fill:#45c8f4"/><path d="M754.15,314.21c-12.32,0-23.73.77-35-.19-14.8-1.26-26.19-15.39-26.28-31.36-.14-23,.06-45.92-.08-68.87-.09-13.52-.24-27.06-1-40.55a61.53,61.53,0,0,0-3.62-17.19c-7-19.24-20.91-21.42-36.39-21.4a53.73,53.73,0,0,0-11.66,1.26c-17.7,4-28,15.83-31,36.24A190.48,190.48,0,0,0,607,199c-.24,35.91-.1,71.82-.1,107.73V314c-12.58,0-24.62,1.16-36.32-.31-13.78-1.73-24.66-14.74-24.91-28.85-.53-30.6-.37-61.21-.17-91.82,0-2.1,2.24-4.84,4.19-6.18A171.51,171.51,0,0,0,600,133.18c5.52-9.17,10.75-19,18.26-26.38C636.33,89,659.4,84.31,684,86.48a111.77,111.77,0,0,1,24.72,4.69c25.09,8.18,38.4,26.75,42.67,52A196.77,196.77,0,0,1,754,174.71c.28,44,.12,87.91.12,131.86Z" style="fill:#45c8f4"/><path d="M994.93,7.28c-7.2,12-13.73,22.81-20.25,33.66q-43.45,72.3-86.95,144.57a38.34,38.34,0,0,0-5.63,20.61c.12,33.74,0,67.5,0,101.25v6.53c-14.71,0-28.9,1.22-42.78-.34-14.52-1.63-25.15-15.53-25.32-30.43-.24-21.78-.71-43.59.12-65.34,1.09-28.79,10.4-55.16,25.68-79.61S869.91,89.05,884.8,64.4c8.11-13.42,16-27,24-40.48C915,13.48,924.31,7.7,936.26,7.4,955.27,6.93,974.3,7.28,994.93,7.28Z" style="fill:#45c8f4"/><path d="M1001,236.88c-22.13-13.2-43-12.16-63.35,5.28,3.7-23.73,16.46-39.76,37.91-46.6,18.13-5.79,37.34-8.27,56.12-12,12.45-2.45,25.12-3.92,37.44-6.88,8.31-2,15.2-6.84,15.74-16.7.65-11.85-1.48-23.14-13.57-28.19-16.54-6.9-33.72-7.14-50.07.91-4.44,2.19-8.39,6.61-11,10.94-7.16,11.64-17.14,17.29-30.69,17.15-10-.11-20-.13-30,0-4.13.07-5.72-.52-5.17-5.58,3.37-30.58,21.16-49.46,48.63-60.05,23.06-8.88,47.22-10.45,71.76-8.59,15.92,1.21,31.63,3,46.33,9.7,22.83,10.37,34.6,27.36,35.52,53.24.74,20.8-8.61,33.8-25.22,43.46-22.2,12.9-46.63,19.11-71.64,23.49-8.1,1.41-16.3,2.43-24.23,4.47C1012.54,224.33,1009.4,226.7,1001,236.88Z" style="fill:#45c8f4"/><path d="M699.74,7.25c9.3,0,16.89-.09,24.47,0,12.73.17,25.48,0,38.16.85,9.29.64,16.92,5.83,21.65,13.67,17.67,29.31,34.88,58.9,51.94,87.84-7.54,9.61-15.37,18.41-21.82,28.12-6.33,9.51-11.26,19.94-17.21,30.69Z" style="fill:#46c8f4"/><path d="M1145.93,314.24c-11.35,0-22.18.78-32.85-.21-12.09-1.11-20.13-8.81-25.45-20.17-26.27,24.57-58.07,27.75-91.71,25,14.53-9.76,23-22.88,24.51-39.33,10.7-.56,21.15-.09,31.2-1.87,16.1-2.85,26.46-13.3,30.78-28.94,2.94-10.66,8.68-18.47,18.09-24.2A163.39,163.39,0,0,1,1145.93,205Z" style="fill:#45c8f4"/><path d="M108.83,316.26c14.22-7.6,29-14.67,43-23.17,15-9.17,26.49-22.44,37.77-35.87,25.14-29.92,57.31-47.81,96.42-54.93-2.34,21.12-8.27,40.36-18.86,58-21.59,36.07-54.1,54.93-95.27,59.89A171.39,171.39,0,0,1,110,316.66,7.48,7.48,0,0,1,108.83,316.26Z" style="fill:#45c8f4"/><path d="M972.28,308.52A31.87,31.87,0,0,1,940,276.65a32.36,32.36,0,1,1,32.32,31.87Z" style="fill:#46c8f4"/><path d="M544.77,167.31c0-23.88-.06-47.77.16-71.66,0-1.29,2.39-3.63,3.7-3.66,13.5-.27,27-.16,41.46-.16-7.74,30-22.26,55.11-43.87,76.16Z" style="fill:#48c9f5"/></g></g></svg>