<?xml version="1.0" encoding="utf-8"?>
<!-- Generator: Adobe Illustrator 22.0.1, SVG Export Plug-In . SVG Version: 6.00 Build 0)  -->
<svg version="1.1" xmlns="http://www.w3.org/2000/svg" xmlns:xlink="http://www.w3.org/1999/xlink" x="0px" y="0px"
	 viewBox="0 0 930 297.6" style="enable-background:new 0 0 930 297.6;" xml:space="preserve">
<style type="text/css">
	.st0{opacity:0.79;}
	.st1{opacity:0.5;}
	.st2{fill:#1386A4;}
	.st3{fill:#FFFFFF;}
	.st4{fill:url(#SVGID_1_);}
	.st5{fill:url(#SVGID_2_);}
	.st6{fill:url(#SVGID_3_);}
	.st7{fill:url(#SVGID_4_);}
	.st8{fill:url(#SVGID_5_);}
	.st9{fill:url(#SVGID_6_);}
	.st10{fill:url(#SVGID_7_);}
	.st11{fill:url(#SVGID_8_);}
	.st12{fill:url(#SVGID_9_);}
	.st13{fill:#0985A3;}
	.st14{fill:#ECECEC;}
	.st15{opacity:0.23;}
	.st16{fill:url(#SVGID_10_);}
	.st17{fill:url(#SVGID_11_);}
	.st18{fill:url(#SVGID_12_);}
	.st19{fill:url(#SVGID_13_);}
	.st20{fill:url(#SVGID_14_);}
	.st21{fill:url(#SVGID_15_);}
	.st22{fill:url(#SVGID_16_);}
	.st23{fill:url(#SVGID_17_);}
	.st24{fill:url(#SVGID_18_);}
	.st25{fill:url(#SVGID_19_);}
	.st26{fill:url(#SVGID_20_);}
	.st27{fill:url(#SVGID_21_);}
	.st28{fill:url(#SVGID_22_);}
	.st29{fill:url(#SVGID_23_);}
	.st30{fill:url(#SVGID_24_);}
	.st31{fill:url(#SVGID_25_);}
	.st32{fill:url(#SVGID_26_);}
	.st33{fill:url(#SVGID_27_);}
	.st34{fill:url(#SVGID_28_);}
	.st35{fill:url(#SVGID_29_);}
	.st36{fill:url(#SVGID_30_);}
	.st37{fill:url(#SVGID_31_);}
	.st38{fill:url(#SVGID_32_);}
	.st39{fill:url(#SVGID_33_);}
	.st40{fill:url(#SVGID_34_);}
	.st41{fill:url(#SVGID_35_);}
	.st42{fill:url(#SVGID_36_);}
	.st43{fill:url(#SVGID_37_);}
	.st44{fill:url(#SVGID_38_);}
	.st45{fill:url(#SVGID_39_);}
	.st46{fill:url(#SVGID_40_);}
	.st47{fill:url(#SVGID_41_);}
	.st48{fill:url(#SVGID_42_);}
	.st49{fill:url(#SVGID_43_);}
	.st50{fill:url(#SVGID_44_);}
	.st51{fill:url(#SVGID_45_);}
	.st52{fill:url(#SVGID_46_);}
	.st53{fill:url(#SVGID_47_);}
	.st54{fill:url(#SVGID_48_);}
	.st55{fill:url(#SVGID_49_);}
	.st56{fill:url(#SVGID_50_);}
	.st57{fill:url(#SVGID_51_);}
	.st58{fill:url(#SVGID_52_);}
	.st59{fill:url(#SVGID_53_);}
	.st60{fill:url(#SVGID_54_);}
	.st61{fill:url(#SVGID_55_);}
	.st62{fill:url(#SVGID_56_);}
	.st63{fill:url(#SVGID_57_);}
	.st64{fill:url(#SVGID_58_);}
	.st65{fill:url(#SVGID_59_);}
	.st66{fill:url(#SVGID_60_);}
	.st67{fill:url(#SVGID_61_);}
	.st68{fill:url(#SVGID_62_);}
	.st69{fill:url(#SVGID_63_);}
	.st70{fill:url(#SVGID_64_);}
	.st71{fill:url(#SVGID_65_);}
	.st72{fill:url(#SVGID_66_);}
	.st73{fill:url(#SVGID_67_);}
	.st74{fill:url(#SVGID_68_);}
	.st75{fill:url(#SVGID_69_);}
	.st76{fill:url(#SVGID_70_);}
	.st77{fill:#337F64;}
	.st78{fill:#3578AE;}
	.st79{fill:#14A7B8;}
	.st80{fill:#3AB2DE;}
	.st81{fill:none;}
	.st82{clip-path:url(#SVGID_73_);fill:url(#SVGID_74_);}
	.st83{fill:#FDC286;}
</style>
<g id="Layer_2" class="st0">
</g>
<g id="Layer_3">
</g>
<g id="Layer_1">
	<g>
		<path class="st13" d="M187,99.6c-2.8-4.5-6.2-8.4-10.4-11.7c-4.2-3.4-8.9-6-14.1-7.9c-5.2-1.9-10.7-2.8-16.5-2.8
			c-10.5,0-19.4,2-26.7,6.1c-7.3,4.1-13.3,9.5-17.8,16.3c-4.6,6.8-7.9,14.6-9.9,23.3c-2.1,8.7-3.1,17.7-3.1,27c0,8.9,1,17.6,3.1,26
			c2.1,8.4,5.4,16,9.9,22.7c4.5,6.7,10.5,12.1,17.8,16.2c7.3,4.1,16.2,6.1,26.7,6.1c14.2,0,25.4-4.3,33.4-13.1
			c5.3-5.8,9.3-12.8,11.9-21.1c2.5-8,10-13.3,18.4-13.3h29.5c-1.2,13.3-4.3,25.2-9.2,35.9c-4.9,10.7-11.5,19.8-19.6,27.3
			c-8.1,7.5-17.6,13.3-28.5,17.2c-10.9,4-22.9,5.9-35.9,5.9c-16.2,0-30.8-2.8-43.8-8.5c-13-5.6-23.9-13.4-32.8-23.3
			c-8.9-9.9-15.7-21.5-20.5-34.9c-4.7-13.4-7.1-27.8-7.1-43.2c0-15.8,2.4-30.5,7.1-44.1c4.7-13.5,11.6-25.4,20.5-35.5
			c8.9-10.1,19.8-18,32.8-23.7c13-5.7,27.6-8.6,43.8-8.6c11.7,0,22.7,1.7,33.1,5c10.4,3.4,19.7,8.3,27.9,14.7
			c8.2,6.4,15,14.4,20.3,23.9c5.3,9.5,8.7,20.4,10.1,32.6h-37.3c-4.3,0-8.1-2.7-9.5-6.8C189.8,104.7,188.5,102,187,99.6"/>
		<path class="st13" d="M396.8,240.7c-0.8-6.3-1.2-13-1.2-19.9v-45.9c0,0-4.1,3.7-11.4,8.2c-7.3,4.4-17.8,9.6-30.6,12.4v0
			c0,2.4-0.2,5.5-0.7,9.5c-0.5,4-1.8,7.9-4,11.7c-2.2,3.9-5.5,7.2-10.1,9.9c-3.7,2.3-8.7,3.6-14.9,4c-1.4,0.1-2.9,0.1-4.5,0.1h-0.1
			c-0.7,0-1.4,0-2.2-0.1c-0.5,0-0.9,0-1.4-0.1c0,0-0.1,0-0.1,0c-0.3,0-0.7,0-1-0.1c-0.3,0-0.6,0-0.9-0.1c-0.5-0.1-1.1-0.1-1.6-0.2
			c-0.4-0.1-0.8-0.1-1.2-0.2c-0.4-0.1-0.8-0.1-1.2-0.2c-3.2-0.6-5.9-1.6-8.3-3.1c-2.4-1.5-4.3-3.5-5.6-6.1c-1.4-2.6-2.1-5.7-2.1-9.5
			c0-4,0.7-7.2,2.1-9.8c1.4-2.6,3.2-4.7,5.5-6.4c2.3-1.7,4.9-3,8-4c3.1-1,6.2-1.8,9.4-2.4c3.4-0.6,6.7-1.1,10.1-1.5
			c3.4-0.4,6.6-0.9,9.6-1.5c3.1-0.6,5.9-1.3,8.6-2.2c0.3-0.1,0.6-0.2,0.8-0.3c0,0,0.1,0,0.1-0.1c2.3-0.8,5.7-1.9,5.7-1.9
			c13.5-4.8,42-17.5,42-40.4c0-9.3-2.1-16.8-6.2-22.4c-4.2-5.6-9.5-10-16-13.2c-6.5-3.2-13.7-5.3-21.7-6.4c-4-0.5-7.9-1-11.8-1.2
			c-1-0.1-2-0.1-2.9-0.2c-2.9-0.2-5.8-0.2-8.7-0.2c-2.1,0-4.2,0.1-6.3,0.2c-6.4,0.3-12.7,1.1-19,2.4c-8.4,1.7-16,4.5-22.7,8.5
			c-6.7,4-12.3,9.2-16.6,15.7c-4.4,6.5-6.8,14.7-7.4,24.6H290c4.4,0,8.5-2.8,9.7-7.1c1.4-4.7,3.7-8.3,7-10.7
			c4.2-3.1,9.7-4.9,16.6-5.2c1-0.1,1.9-0.1,2.9-0.1c1.9,0,3.7,0.1,5.5,0.2c1.8,0.1,3.5,0.3,5.2,0.6c3.3,0.5,6.1,1.5,8.6,3
			c2.5,1.5,4.5,3.6,5.9,6.2c1.5,2.7,2.2,6.3,2.2,10.8c0.2,4.4-1.1,7.7-3.9,9.9c-2.8,2.3-6.5,4-11.3,5.2c-4.7,1.2-10.2,2.1-16.3,2.7
			c-6.1,0.6-12.4,1.4-18.7,2.4c-6.3,1-12.6,2.3-18.8,4c-6.2,1.7-11.8,4.2-16.6,7.6c-4.8,3.4-8.8,7.9-11.9,13.5
			c-2.4,4.4-3.8,9.7-4.4,16c-0.2,1.8-0.2,3.6-0.2,5.5c0,7.9,1.3,14.8,4,20.5c2.7,5.7,6.4,10.5,11.1,14.2c4.7,3.8,10.3,6.5,16.6,8.3
			c5.7,1.6,11.8,2.5,18.3,2.6c0.7,0,1.4,0,2.1,0c1.8,0,3.6-0.1,5.3-0.1c0.6,0,1.2-0.1,1.8-0.1c7.1-0.5,14.1-1.8,20.9-3.9
			c9.1-2.8,17-7.6,23.8-14.5c0,0,0,0,0,0c0.2,2.6,0.5,5.1,1,7.6c0,0,0,0,0,0.1c0.9,4.2,4.6,7.2,8.9,7.2H401
			C399,251.8,397.6,247,396.8,240.7"/>
		<path class="st13" d="M446.5,101.5c5.5,0,10,4.5,10,10v11.4h0.9c5.3-8.9,12.3-15.4,20.8-19.4c8.5-4.1,17.2-6.1,26.1-6.1
			c11.3,0,20.5,1.5,27.8,4.6c7.2,3.1,12.9,7.3,17.1,12.8c4.2,5.4,7.1,12.1,8.8,19.9c1.7,7.8,2.5,16.5,2.5,26v94.4h-32.1
			c-5.5,0-10-4.5-10-10v-76.7c0-12.7-2-22.1-5.9-28.3c-4-6.2-11-9.4-21.1-9.4c-11.5,0-19.8,3.4-24.9,10.2
			c-5.1,6.8-7.7,18.1-7.7,33.7v80.4h-32.1c-5.5,0-10-4.5-10-10V101.5H446.5z"/>
		<path class="st13" d="M530.4,43h46.5c3.5,0,6.8,1.9,8.6,4.9l46.7,78.8l46.4-78.8c1.8-3.1,5.1-4.9,8.6-4.9h46.2l-78.7,130.6v81.3
			h-46.6v-82.5L530.4,43z"/>
		<g>
			<path class="st13" d="M838.7,141c0,29.1-46.1,41.7-48.8,42.6c-2.7,0.9-5.5,1.6-8.6,2.2c-3.1,0.6-6.3,1.1-9.6,1.5
				c-3.4,0.4-6.7,0.9-10.1,1.5c-3.2,0.6-6.3,1.4-9.4,2.4c-3.1,1-5.7,2.3-8,4c-2.3,1.7-4.1,3.8-5.5,6.4c-0.5,1-0.9,2-1.2,3.2
				c-5.6-3.6-12.2-5.7-19.4-5.7c-8.9,0-17.1,3.3-23.4,8.7c0.5-6.3,2-11.7,4.4-16.1c3.1-5.6,7-10.1,11.9-13.5
				c4.8-3.4,10.4-5.9,16.6-7.6c6.2-1.7,12.5-3,18.8-4c6.3-1,12.6-1.8,18.7-2.4c6.1-0.6,11.6-1.5,16.3-2.7c4.8-1.2,8.5-2.9,11.3-5.2
				c2.8-2.3,4.1-5.6,3.9-9.9c0-4.6-0.7-8.2-2.2-10.8c-1.5-2.7-3.5-4.8-5.9-6.2c-2.5-1.5-5.3-2.5-8.6-3c-3.3-0.5-6.8-0.7-10.5-0.7
				c-8.3,0-14.8,1.8-19.6,5.3c-3.3,2.4-5.6,6-7,10.7c-1.3,4.3-5.3,7.1-9.7,7.1h-33.7c0.6-9.9,3.1-18.1,7.4-24.6
				c4.3-6.5,9.9-11.8,16.6-15.7c6.7-4,14.3-6.8,22.7-8.5c8.4-1.7,16.9-2.5,25.4-2.5c7.7,0,15.5,0.6,23.4,1.6
				c7.9,1.1,15.1,3.2,21.7,6.4c6.5,3.2,11.9,7.6,16,13.2C836.6,124.2,838.7,131.7,838.7,141"/>
			<path class="st13" d="M844,254.9h-35.7c-4.3,0-8.1-3-8.9-7.2c0,0,0,0,0-0.1c-0.5-2.5-0.8-5-1-7.6c-6.7,6.9-14.6,11.8-23.7,14.5
				c-9.1,2.8-18.4,4.2-27.9,4.2c-0.7,0-1.4,0-2.1,0c5.8-6.4,9.3-14.8,9.3-24c0-1.6-0.1-3.1-0.3-4.6c2.9,0.5,5.8,0.7,8.8,0.7
				c8.3,0,14.7-1.4,19.3-4.2c4.6-2.8,7.9-6.1,10.1-9.9c2.2-3.9,3.5-7.8,4-11.7c0.5-3.9,0.7-7.1,0.7-9.5c12.9-2.8,23.4-8,30.8-12.5
				c7.3-4.4,11.4-8.2,11.4-8.2v45.9c0,6.9,0.4,13.6,1.2,19.9C840.7,247,842.1,251.8,844,254.9"/>
			<path class="st13" d="M726.3,256.2c-2.6,1-5.4,1.5-8.3,1.5c-12.7,0-22.9-10.3-22.9-23c0-2.5,0.4-5,1.2-7.2
				c3-9.1,11.7-15.7,21.8-15.7c12.7,0,23,10.3,23,23C741,244.5,734.9,252.8,726.3,256.2"/>
		</g>
		<g>
			<path class="st13" d="M879.8,255.5c-10.8,0-19.6-8.8-19.6-19.6c0-10.8,8.8-19.6,19.6-19.6s19.6,8.8,19.6,19.6
				C899.4,246.7,890.6,255.5,879.8,255.5z M879.8,219.3c-9.1,0-16.6,7.4-16.6,16.6c0,9.1,7.4,16.6,16.6,16.6s16.6-7.4,16.6-16.6
				C896.4,226.8,889,219.3,879.8,219.3z"/>
		</g>
		<g>
			<path class="st13" d="M872.4,224.8h9.8c1.6,0,2.9,0.2,4,0.7c2,0.9,3,2.6,3,5.1c0,1.3-0.3,2.3-0.8,3.2c-0.5,0.8-1.3,1.5-2.2,2
				c0.8,0.3,1.5,0.8,1.9,1.3c0.4,0.6,0.7,1.5,0.7,2.7l0.1,2.9c0,0.8,0.1,1.4,0.2,1.8c0.2,0.7,0.5,1.1,0.9,1.3v0.5h-3.6
				c-0.1-0.2-0.2-0.4-0.2-0.7s-0.1-0.9-0.1-1.7l-0.2-3.6c-0.1-1.4-0.6-2.3-1.5-2.8c-0.5-0.3-1.4-0.4-2.5-0.4h-6.4v9.2h-2.9V224.8z
				 M881.8,234.7c1.3,0,2.4-0.3,3.2-0.8s1.2-1.5,1.2-3c0-1.5-0.5-2.6-1.6-3.1c-0.6-0.3-1.4-0.4-2.3-0.4h-6.9v7.4H881.8z"/>
		</g>
	</g>
</g>
</svg>
