<svg xmlns="http://www.w3.org/2000/svg" viewBox="0 0 1621.05 1621.06"><defs><clipPath id="a" transform="translate(-14.86 -14.81)"><circle cx="825.39" cy="825.34" r="810.53" fill="none"/></clipPath><linearGradient id="b" x1="413.77" y1="-375.2" x2="1373.77" y2="2424.8" gradientUnits="userSpaceOnUse"><stop offset="0" stop-color="#052460"/><stop offset="1" stop-color="#00a0b0"/></linearGradient></defs><title>MyEtherWallet Logo</title><path d="M483.43 619.25l.12.46.17-.47z" fill="#fff"/><g clip-path="url(#a)"><path d="M483.43 619.25l.12.46.17-.47z" fill="#fff"/><path d="M825.38 14.81c-447.64 0-810.52 362.89-810.52 810.53s362.89 810.53 810.53 810.53 810.52-362.87 810.52-810.53S1273 14.81 825.38 14.81zm0 1319.86c-274 0-508.92-222.12-508.92-496.12 0-64.34 12.25-138.61 34.53-195l218.63 93.13c-4.36 18.72-15.65 70.51-14.56 90.52 8.69 159.7 128.93 267.38 270.32 267.38a256.65 256.65 0 0 0 59.21-6.89l124.72 211.78a494.74 494.74 0 0 1-183.93 35.2zM1295 1026.9L740 791.74l356-1.55c-12.79-129.12-145.48-234.08-270.63-234.08A255.55 255.55 0 0 0 742 570L618.84 360.92A494.31 494.31 0 0 1 825.38 316c274 0 508.14 226.23 508.14 500.23.01 73.91-9.52 147.65-38.52 210.67z" transform="translate(-14.86 -14.81)" fill="url(#b)"/></g></svg>
