<svg xmlns="http://www.w3.org/2000/svg" xmlns:xlink="http://www.w3.org/1999/xlink" viewBox="0 0 64 64"><defs><linearGradient id="linear-gradient" x1="52.79" y1="-949.4" x2="-5.43" y2="-1035.08" gradientTransform="matrix(1, 0, 0, -1, 0, -948)" gradientUnits="userSpaceOnUse"><stop offset="0" stop-color="#1abc9c"/><stop offset="1" stop-color="#1a5daf"/></linearGradient><clipPath id="clip-path"><circle cx="32" cy="32" r="32" style="fill:none"/></clipPath><linearGradient id="linear-gradient-2" x1="31.89" y1="-948.35" x2="22.91" y2="-1008.32" xlink:href="#linear-gradient"/><linearGradient id="linear-gradient-3" x1="41.67" y1="-949.82" x2="32.68" y2="-1009.79" xlink:href="#linear-gradient"/></defs><title>Layer 1-2</title><g id="Layer_2" data-name="Layer 2"><g id="Layer_1-2" data-name="Layer 1"><g id="Layer_1-2-2" data-name="Layer 1-2"><circle cx="32" cy="32" r="32" style="fill:url(#linear-gradient)"/><g style="clip-path:url(#clip-path)"><path d="M61,32.3,51,56.8,45.7,44.3l4.8-11.8H47.8l-3.9,9.8L40,32.5H37.5l4.8,11.8L37,56.8,27,32.3,22,20.4,27.2,7.9l10,24.5h3L28.4,4.7H26L20.1,18.3,14.3,4.7H11.9L.2,32.4H3.1L13.2,7.8l5.3,12.5L13.7,32.1h2.6l3.9-9.8,3.9,9.9L35.7,60h2.4L44,46.3,49.8,60h2.4L63.9,32.3Z" style="fill:#fff;opacity:0.20000000298023224;isolation:isolate"/><path d="M34.3,44.5a9.69,9.69,0,0,1-2.3.3c-5.6,0-10.3-4.3-10.7-10.6a22.54,22.54,0,0,1,.6-3.6L13.2,27a22.77,22.77,0,0,0-1.4,7.7c0,10.8,9.3,19.6,20.1,19.6a20.16,20.16,0,0,0,7.3-1.4Z" style="fill:url(#linear-gradient-2)"/><path d="M32,14a18.79,18.79,0,0,0-8.1,1.8L28.8,24a9.46,9.46,0,0,1,3.3-.5c4.9,0,10.2,4.1,10.7,9.2l-14,.1,21.9,9.3a19.72,19.72,0,0,0,1.5-8.3C52.1,23,42.8,14,32,14Z" style="fill:url(#linear-gradient-3)"/><path d="M34.3,42.4a9.69,9.69,0,0,1-2.3.3c-5.6,0-10.3-4.3-10.7-10.6a22.54,22.54,0,0,1,.6-3.6l-8.7-3.7a22.77,22.77,0,0,0-1.4,7.7c0,10.8,9.3,19.6,20.1,19.6a20.16,20.16,0,0,0,7.3-1.4ZM32,11.9a18.79,18.79,0,0,0-8.1,1.8L28.8,22a7.6,7.6,0,0,1,3.3-.5c4.9,0,10.2,4.1,10.7,9.2l-14,.1L50.5,40A19.72,19.72,0,0,0,52,31.7C52.1,20.8,42.8,11.9,32,11.9Z" style="fill:#fff"/></g></g></g></g></svg>