<svg xmlns="http://www.w3.org/2000/svg" xmlns:xlink="http://www.w3.org/1999/xlink" viewBox="443 12247 305.48 64"><defs><style>.a{fill:none;}.b{fill:url(#a);}.c{clip-path:url(#b);}.d,.g{fill:#fff;}.d{opacity:0.2;}.e{fill:url(#c);}.f{fill:url(#d);}</style><linearGradient id="a" x1="0.825" y1="0.022" x2="-0.085" y2="1.361" gradientUnits="objectBoundingBox"><stop offset="0" stop-color="#1abc9c"/><stop offset="1" stop-color="#1a5daf"/></linearGradient><clipPath id="b"><circle class="a" cx="32" cy="32" r="32" transform="translate(4.76 3)"/></clipPath><linearGradient id="c" x1="0.734" y1="-0.976" x2="0.406" y2="1.221" xlink:href="#a"/><linearGradient id="d" x1="0.628" y1="-0.434" x2="0.309" y2="1.7" xlink:href="#a"/></defs><g transform="translate(438.24 12244)"><circle class="b" cx="32" cy="32" r="32" transform="translate(4.76 3)"/><g class="c"><path class="d" d="M65.73,35.27,55.71,59.8l-5.3-12.52,4.83-11.81H52.63l-3.94,9.82-3.9-9.82H42.22l4.83,11.81L41.79,59.8,31.73,35.27l-5.05-11.9,5.2-12.52L41.9,35.38h2.96L33.13,7.7H30.71L24.9,21.28,19.05,7.7H16.67L4.97,35.38H7.9L17.96,10.85l5.26,12.52L18.39,35.19h2.57l3.9-9.83,3.94,9.91L40.5,62.96h2.38l5.85-13.69,5.81,13.69h2.42L68.69,35.27H65.73Z"/><path class="e" d="M39.1,47.5a10.13,10.13,0,0,1-2.34.27c-5.58,0-10.33-4.25-10.67-10.56a19.86,19.86,0,0,1,.57-3.57L18,30a22.3,22.3,0,0,0-1.36,7.7c0,10.82,9.27,19.59,20.09,19.59A19.53,19.53,0,0,0,44,55.86Z"/><path class="f" d="M36.76,17a19.52,19.52,0,0,0-8.15,1.77l4.86,8.26a10.09,10.09,0,0,1,3.29-.55c4.94,0,10.18,4.14,10.68,9.24l-14.05.06L55.3,45.1a20,20,0,0,0,1.52-8.32C56.82,26,47.58,17,36.76,17Z"/><path class="g" d="M23.84,27.45ZM39.1,45.36a10.13,10.13,0,0,1-2.34.27c-5.58,0-10.33-4.25-10.67-10.56a19.86,19.86,0,0,1,.57-3.57L18,27.82a22.3,22.3,0,0,0-1.36,7.7c0,10.82,9.27,19.59,20.09,19.59A19.53,19.53,0,0,0,44,53.72ZM36.76,14.89a19.52,19.52,0,0,0-8.15,1.77l4.86,8.26a10.09,10.09,0,0,1,3.29-.55c4.94,0,10.18,4.14,10.68,9.24l-14.05.06L55.3,43a20,20,0,0,0,1.52-8.32c0-10.86-9.24-19.79-20.06-19.79Z"/></g><path class="g" d="M108,44.56V30.21L102.41,40.9H100.1L94.51,30.21V44.56H90.3V22.88h4.52l6.41,12.34,6.47-12.34h4.49V44.56Zm9,3.11a8,8,0,0,0,1,.23,5.529,5.529,0,0,0,.82.08,1.75,1.75,0,0,0,.73-.15,1.57,1.57,0,0,0,.61-.53,5.229,5.229,0,0,0,.55-1.05q.27-.67.58-1.68l-6.32-16h4.21L123.49,41l3.85-12.46h3.85l-6.72,19.18a5.73,5.73,0,0,1-2,2.75A5.58,5.58,0,0,1,119,51.55a6.65,6.65,0,0,1-1-.08,6.36,6.36,0,0,1-1.05-.26V47.67Zm32.17-6.81v3.69H134.12V22.88H148.9v3.69H138.33v5.22h9.13v3.42h-9.13v5.65h10.84Zm12.37,2.87a18.25,18.25,0,0,1-2,.73,8.47,8.47,0,0,1-2.5.37,5.82,5.82,0,0,1-1.6-.21,3.51,3.51,0,0,1-1.31-.69,3.35,3.35,0,0,1-.9-1.22,4.41,4.41,0,0,1-.34-1.82V31.7h-2.11V28.56h2.11V23.37H157v5.19h3.36V31.7H157v7.82a1.45,1.45,0,0,0,.44,1.21,1.69,1.69,0,0,0,1.08.35,3.76,3.76,0,0,0,1.25-.21q.61-.21,1-.37Zm17.31.83h-4.09v-9a4.53,4.53,0,0,0-.7-2.79,2.37,2.37,0,0,0-2-.9,3.13,3.13,0,0,0-1.16.24,4.539,4.539,0,0,0-1.16.69,5.86,5.86,0,0,0-1,1.05,4.16,4.16,0,0,0-.67,1.34v9.34H164V22.27h4.09v9.25a6.17,6.17,0,0,1,2.4-2.4,6.77,6.77,0,0,1,3.34-.84,5.27,5.27,0,0,1,2.53.53,4,4,0,0,1,1.53,1.42,5.85,5.85,0,0,1,.76,2,12.48,12.48,0,0,1,.21,2.32v10Zm11.3.3a8.88,8.88,0,0,1-3.48-.66,7.85,7.85,0,0,1-4.35-4.41,8.43,8.43,0,0,1-.6-3.15,8.91,8.91,0,0,1,.58-3.22,7.86,7.86,0,0,1,1.7-2.65A8,8,0,0,1,186.65,29a8.9,8.9,0,0,1,3.53-.67,8.68,8.68,0,0,1,3.5.67,8.05,8.05,0,0,1,2.63,1.8,7.67,7.67,0,0,1,1.65,2.63,8.75,8.75,0,0,1,.56,3.11v.76a3.141,3.141,0,0,1-.08.61H186.06a4.75,4.75,0,0,0,.46,1.68,4.11,4.11,0,0,0,2.26,2,4.31,4.31,0,0,0,1.53.27,4.72,4.72,0,0,0,2.31-.6,3.15,3.15,0,0,0,1.48-1.57l3.51,1a7.14,7.14,0,0,1-2.82,3,8.75,8.75,0,0,1-4.64,1.17Zm4.15-9.65a4.26,4.26,0,0,0-1.3-2.88,4.114,4.114,0,0,0-6.56,1.25,4.41,4.41,0,0,0-.41,1.62h8.31Zm16.55-3.11a8.07,8.07,0,0,0-3.33.72,4.2,4.2,0,0,0-2.11,2.06v9.68h-4.09v-16h3.76V32a7.291,7.291,0,0,1,1-1.48,7.76,7.76,0,0,1,1.25-1.15,5.82,5.82,0,0,1,1.36-.75,3.76,3.76,0,0,1,1.33-.26h.5a1.66,1.66,0,0,1,.32,0V32.1Zm10.47-9.16h3.88l2.44,7.18,2.44-7.18H234l-3.7,9.86,2.7,6.93,6.14-16.86h4.58L234.9,44.55h-3.5l-3.76-9.1-3.76,9.1h-3.54l-8.76-21.68h4.52l6.17,16.86L225,32.8Zm27.42,21.92a6.07,6.07,0,0,1-2.17-.38,5.21,5.21,0,0,1-1.74-1.07,5,5,0,0,1-1.15-1.6,4.85,4.85,0,0,1-.41-2,4.44,4.44,0,0,1,.5-2.09,4.8,4.8,0,0,1,1.4-1.63A7,7,0,0,1,247.34,35a9.4,9.4,0,0,1,2.75-.38,11.85,11.85,0,0,1,2.09.18,8.54,8.54,0,0,1,1.82.52v-.9a3.21,3.21,0,0,0-.9-2.44,3.75,3.75,0,0,0-2.67-.85,7.08,7.08,0,0,0-2.5.46,11.63,11.63,0,0,0-2.5,1.34l-1.25-2.6a11.82,11.82,0,0,1,6.66-2A7.8,7.8,0,0,1,256.18,30a6.21,6.21,0,0,1,1.91,4.9v5a1.44,1.44,0,0,0,.23.92,1,1,0,0,0,.75.31v3.48a9.14,9.14,0,0,1-1.8.21,2.73,2.73,0,0,1-1.79-.52,2.23,2.23,0,0,1-.78-1.37l-.09-.93a7.08,7.08,0,0,1-2.6,2.14,7.45,7.45,0,0,1-3.27.72Zm1.16-3a5.33,5.33,0,0,0,2-.37,3.58,3.58,0,0,0,1.45-1,1.47,1.47,0,0,0,.67-1.16v-1.8a10,10,0,0,0-1.59-.44,8.58,8.58,0,0,0-1.65-.17,4.37,4.37,0,0,0-2.6.72,2.15,2.15,0,0,0-1,1.82,2.18,2.18,0,0,0,.79,1.73,2.88,2.88,0,0,0,1.93.68Zm12.28-19.59h4.09V39.43a2,2,0,0,0,.43,1.37,1.54,1.54,0,0,0,1.22.49,3.06,3.06,0,0,0,.81-.12,5.461,5.461,0,0,0,.84-.31l.55,3.14a7.9,7.9,0,0,1-1.92.61,10.52,10.52,0,0,1-2,.21,4.1,4.1,0,0,1-3-1,3.88,3.88,0,0,1-1.05-2.92V22.27Zm9.98,0h4.09V39.43a2,2,0,0,0,.43,1.37,1.54,1.54,0,0,0,1.22.49,3.06,3.06,0,0,0,.81-.12,5.461,5.461,0,0,0,.84-.31L280.1,44a7.9,7.9,0,0,1-1.92.61,10.519,10.519,0,0,1-2,.21,4.1,4.1,0,0,1-3-1,3.88,3.88,0,0,1-1.05-2.92V22.27ZM289.6,44.86a8.88,8.88,0,0,1-3.48-.66,7.85,7.85,0,0,1-4.35-4.41,8.43,8.43,0,0,1-.6-3.15,8.91,8.91,0,0,1,.58-3.22,7.86,7.86,0,0,1,1.68-2.66A8,8,0,0,1,286.1,29a8.9,8.9,0,0,1,3.53-.67,8.68,8.68,0,0,1,3.5.67,8.05,8.05,0,0,1,2.63,1.8,7.67,7.67,0,0,1,1.65,2.63A8.749,8.749,0,0,1,298,36.5v.76a3.141,3.141,0,0,1-.08.61H285.51a4.75,4.75,0,0,0,.46,1.68,4.11,4.11,0,0,0,2.26,2,4.31,4.31,0,0,0,1.53.27,4.72,4.72,0,0,0,2.31-.6,3.15,3.15,0,0,0,1.48-1.57l3.51,1a7.14,7.14,0,0,1-2.82,3,8.75,8.75,0,0,1-4.64,1.21Zm4.15-9.65a4.26,4.26,0,0,0-1.33-2.89,4.114,4.114,0,0,0-6.56,1.25,4.41,4.41,0,0,0-.41,1.62h8.31Zm16.49,8.52a18.251,18.251,0,0,1-2,.73,8.47,8.47,0,0,1-2.5.37,5.821,5.821,0,0,1-1.6-.21,3.51,3.51,0,0,1-1.31-.69,3.35,3.35,0,0,1-.9-1.22,4.41,4.41,0,0,1-.34-1.82V31.7h-2.11V28.56h2.11V23.37h4.09v5.19H309V31.7h-3.36v7.82a1.45,1.45,0,0,0,.44,1.21,1.69,1.69,0,0,0,1.08.35,3.76,3.76,0,0,0,1.25-.21q.61-.21,1-.37Z"/></g></svg>