<svg xmlns="http://www.w3.org/2000/svg" xmlns:xlink="http://www.w3.org/1999/xlink" viewBox="0 0 305.48 64"><defs><linearGradient id="linear-gradient" x1="52.79" y1="64.6" x2="-5.43" y2="-21.08" gradientTransform="matrix(1, 0, 0, -1, 0, 66)" gradientUnits="userSpaceOnUse"><stop offset="0" stop-color="#1abc9c"/><stop offset="1" stop-color="#1a5daf"/></linearGradient><clipPath id="clip-path"><circle cx="32" cy="32" r="32" style="fill:none"/></clipPath><linearGradient id="linear-gradient-2" x1="31.94" y1="65.64" x2="22.96" y2="5.67" xlink:href="#linear-gradient"/><linearGradient id="linear-gradient-3" x1="41.56" y1="64.2" x2="32.57" y2="4.23" xlink:href="#linear-gradient"/></defs><title>myetherwakllet-blackfont</title><g id="Layer_2" data-name="Layer 2"><g id="Layer_1-2" data-name="Layer 1"><circle cx="32" cy="32" r="32" style="fill:url(#linear-gradient)"/><g style="clip-path:url(#clip-path)"><path d="M61,32.27,51,56.8l-5.3-12.52,4.83-11.81H47.87l-3.94,9.82L40,32.47H37.46l4.83,11.81L37,56.8,27,32.27l-5-11.9,5.2-12.52,10,24.53h3L28.37,4.7H26L20.14,18.28,14.29,4.7H11.91L.21,32.38H3.14L13.2,7.85l5.26,12.52L13.63,32.19H16.2l3.9-9.83L24,32.27,35.74,60h2.38L44,46.27,49.78,60H52.2L63.93,32.27Z" style="fill:#fff;opacity:0.20000000298023224;isolation:isolate"/><path d="M34.34,44.5a10.13,10.13,0,0,1-2.34.27c-5.58,0-10.33-4.25-10.67-10.56a19.86,19.86,0,0,1,.57-3.57L13.24,27a22.3,22.3,0,0,0-1.36,7.7c0,10.82,9.27,19.59,20.09,19.59a19.53,19.53,0,0,0,7.27-1.43Z" style="fill:url(#linear-gradient-2)"/><path d="M32,14a19.52,19.52,0,0,0-8.15,1.77L28.71,24A10.09,10.09,0,0,1,32,23.48c4.94,0,10.18,4.14,10.68,9.24l-14,.06L50.54,42.1a20,20,0,0,0,1.52-8.32C52.06,23,42.82,14,32,14Z" style="fill:url(#linear-gradient-3)"/><path d="M34.34,42.36a10.13,10.13,0,0,1-2.34.27c-5.58,0-10.33-4.25-10.67-10.56a19.86,19.86,0,0,1,.57-3.57l-8.66-3.68a22.3,22.3,0,0,0-1.36,7.7c0,10.82,9.27,19.59,20.09,19.59a19.53,19.53,0,0,0,7.27-1.39ZM32,11.89a19.52,19.52,0,0,0-8.15,1.77l4.86,8.26A10.09,10.09,0,0,1,32,21.37c4.94,0,10.18,4.14,10.68,9.24l-14,.06L50.54,40a20,20,0,0,0,1.52-8.32C52.06,20.82,42.82,11.89,32,11.89Z" style="fill:#fff"/></g><path d="M103.24,41.56V27.21L97.65,37.9H95.34L89.75,27.21V41.56H85.54V19.88h4.52l6.41,12.34,6.47-12.34h4.49V41.56Zm9,3.11a8,8,0,0,0,1,.23,5.53,5.53,0,0,0,.82.08,1.75,1.75,0,0,0,.73-.15,1.57,1.57,0,0,0,.61-.53,5.23,5.23,0,0,0,.55-1q.27-.67.58-1.68l-6.32-16h4.21L118.73,38l3.85-12.46h3.85l-6.72,19.18a5.73,5.73,0,0,1-2,2.75,5.58,5.58,0,0,1-3.47,1.08,6.65,6.65,0,0,1-1-.08,6.36,6.36,0,0,1-1.05-.26V44.67Zm32.17-6.81v3.69H129.36V19.88h14.78v3.69H133.57v5.22h9.13v3.42h-9.13v5.65h10.84Zm12.37,2.87a18.25,18.25,0,0,1-2,.73,8.47,8.47,0,0,1-2.5.37,5.82,5.82,0,0,1-1.6-.21,3.51,3.51,0,0,1-1.31-.69,3.35,3.35,0,0,1-.9-1.22,4.41,4.41,0,0,1-.34-1.82V28.7H146V25.56h2.11V20.37h4.11v5.19h3.36V28.7h-3.36v7.82a1.45,1.45,0,0,0,.44,1.21,1.69,1.69,0,0,0,1.08.35,3.76,3.76,0,0,0,1.25-.21q.61-.21,1-.37Zm17.31.83H170v-9a4.53,4.53,0,0,0-.7-2.79,2.37,2.37,0,0,0-2-.9,3.13,3.13,0,0,0-1.16.24,4.54,4.54,0,0,0-1.16.69,5.86,5.86,0,0,0-1,1,4.16,4.16,0,0,0-.67,1.34v9.34h-4.07V19.27h4.09v9.25a6.17,6.17,0,0,1,2.4-2.4,6.77,6.77,0,0,1,3.34-.84,5.27,5.27,0,0,1,2.53.53,4,4,0,0,1,1.53,1.42,5.85,5.85,0,0,1,.76,2,12.48,12.48,0,0,1,.21,2.32v10Zm11.3.3a8.88,8.88,0,0,1-3.48-.66,7.85,7.85,0,0,1-4.35-4.41,8.43,8.43,0,0,1-.6-3.15,8.91,8.91,0,0,1,.58-3.22,7.86,7.86,0,0,1,1.7-2.65A8,8,0,0,1,181.89,26a8.9,8.9,0,0,1,3.53-.67,8.68,8.68,0,0,1,3.5.67,8.05,8.05,0,0,1,2.63,1.8,7.67,7.67,0,0,1,1.65,2.63,8.75,8.75,0,0,1,.56,3.11v.76a3.14,3.14,0,0,1-.08.61H181.3a4.75,4.75,0,0,0,.46,1.68,4.11,4.11,0,0,0,2.26,2,4.31,4.31,0,0,0,1.53.27,4.72,4.72,0,0,0,2.31-.6,3.15,3.15,0,0,0,1.48-1.57l3.51,1a7.14,7.14,0,0,1-2.82,3,8.75,8.75,0,0,1-4.64,1.17Zm4.15-9.65a4.26,4.26,0,0,0-1.3-2.88,4.11,4.11,0,0,0-6.56,1.25,4.41,4.41,0,0,0-.41,1.62h8.27Zm16.55-3.11a8.07,8.07,0,0,0-3.33.72,4.2,4.2,0,0,0-2.11,2.06v9.68h-4.09v-16h3.76V29a7.29,7.29,0,0,1,1-1.48,7.76,7.76,0,0,1,1.25-1.15,5.82,5.82,0,0,1,1.36-.75,3.76,3.76,0,0,1,1.33-.26h.5a1.66,1.66,0,0,1,.32,0V29.1Zm10.47-9.16h3.88l2.44,7.18,2.44-7.18h3.92l-3.7,9.86,2.7,6.93,6.14-16.86H239l-8.82,21.68h-3.5l-3.76-9.1-3.76,9.1h-3.54l-8.76-21.68h4.52l6.17,16.86,2.73-6.93ZM244,41.86a6.07,6.07,0,0,1-2.17-.38,5.21,5.21,0,0,1-1.74-1.07,5,5,0,0,1-1.15-1.6,4.85,4.85,0,0,1-.41-2,4.44,4.44,0,0,1,.5-2.09,4.8,4.8,0,0,1,1.4-1.63A7,7,0,0,1,242.58,32a9.4,9.4,0,0,1,2.75-.38,11.85,11.85,0,0,1,2.09.18,8.54,8.54,0,0,1,1.82.52v-.9a3.21,3.21,0,0,0-.9-2.44,3.75,3.75,0,0,0-2.67-.85,7.08,7.08,0,0,0-2.5.46,11.63,11.63,0,0,0-2.5,1.34l-1.25-2.6a11.82,11.82,0,0,1,6.66-2A7.8,7.8,0,0,1,251.42,27a6.21,6.21,0,0,1,1.91,4.9v5a1.44,1.44,0,0,0,.23.92,1,1,0,0,0,.75.31v3.48a9.14,9.14,0,0,1-1.8.21,2.73,2.73,0,0,1-1.79-.52,2.23,2.23,0,0,1-.78-1.37l-.09-.93a7.08,7.08,0,0,1-2.6,2.14,7.45,7.45,0,0,1-3.27.72Zm1.16-3a5.33,5.33,0,0,0,2-.37,3.58,3.58,0,0,0,1.45-1,1.47,1.47,0,0,0,.67-1.16v-1.8a10,10,0,0,0-1.59-.44,8.58,8.58,0,0,0-1.65-.17,4.37,4.37,0,0,0-2.6.72,2.15,2.15,0,0,0-1,1.82,2.18,2.18,0,0,0,.79,1.73,2.88,2.88,0,0,0,1.93.68Zm12.28-19.59h4.09V36.43a2,2,0,0,0,.43,1.37,1.54,1.54,0,0,0,1.22.49,3.06,3.06,0,0,0,.81-.12,5.46,5.46,0,0,0,.84-.31l.55,3.14a7.9,7.9,0,0,1-1.92.61,10.52,10.52,0,0,1-2,.21,4.1,4.1,0,0,1-3-1,3.88,3.88,0,0,1-1-2.92V19.27Zm10,0h4.09V36.43a2,2,0,0,0,.43,1.37,1.54,1.54,0,0,0,1.22.49,3.06,3.06,0,0,0,.81-.12,5.46,5.46,0,0,0,.84-.31l.55,3.14a7.9,7.9,0,0,1-1.92.61,10.52,10.52,0,0,1-2,.21,4.1,4.1,0,0,1-3-1,3.88,3.88,0,0,1-1-2.92V19.27Zm17.44,22.59a8.88,8.88,0,0,1-3.48-.66A7.85,7.85,0,0,1,277,36.79a8.43,8.43,0,0,1-.6-3.15,8.91,8.91,0,0,1,.58-3.22,7.86,7.86,0,0,1,1.68-2.66A8,8,0,0,1,281.34,26a8.9,8.9,0,0,1,3.53-.67,8.68,8.68,0,0,1,3.5.67A8.05,8.05,0,0,1,291,27.8a7.67,7.67,0,0,1,1.65,2.63,8.75,8.75,0,0,1,.59,3.07v.76a3.14,3.14,0,0,1-.08.61H280.75a4.75,4.75,0,0,0,.46,1.68,4.11,4.11,0,0,0,2.26,2,4.31,4.31,0,0,0,1.53.27,4.72,4.72,0,0,0,2.31-.6,3.15,3.15,0,0,0,1.48-1.57l3.51,1a7.14,7.14,0,0,1-2.82,3A8.75,8.75,0,0,1,284.84,41.86ZM289,32.21a4.26,4.26,0,0,0-1.33-2.89,4.11,4.11,0,0,0-6.56,1.25,4.41,4.41,0,0,0-.41,1.62H289Zm16.49,8.52a18.25,18.25,0,0,1-2,.73,8.47,8.47,0,0,1-2.5.37,5.82,5.82,0,0,1-1.6-.21,3.51,3.51,0,0,1-1.31-.69,3.35,3.35,0,0,1-.9-1.22,4.41,4.41,0,0,1-.34-1.82V28.7h-2.11V25.56h2.11V20.37h4.09v5.19h3.32V28.7h-3.36v7.82a1.45,1.45,0,0,0,.44,1.21,1.69,1.69,0,0,0,1.08.35,3.76,3.76,0,0,0,1.25-.21q.61-.21,1-.37Z"/></g></g></svg>