<svg xmlns="http://www.w3.org/2000/svg" viewBox="0 0 1334 269.01"><title>salt-blackfont</title><g id="Layer_2" data-name="Layer 2"><g id="Layer_1-2" data-name="Layer 1"><path d="M113,0c9.46,1.73,19.07,2.89,28.36,5.3A112.54,112.54,0,0,1,189.3,31c2.07,1.88,3.85,4.08,6.06,6.46l-19.52,23c-1.9-1.67-3.56-3.2-5.29-4.65-27.61-23.06-58.9-31.68-94-22.71C61.13,37,49,45.83,44.52,62.23c-3.92,14.22,0,24.28,12.48,32,13.62,8.39,29,12.13,44.08,16.94,19.76,6.32,39.36,13.12,59,19.73a18.52,18.52,0,0,1,1.81.84c24.81,11.46,39.43,29.63,39.55,58.12s-11.53,50.14-36.1,64.52c-13.71,8-28.79,11.92-44.51,13.55-2.29.24-4.56.71-6.83,1.08H95c-2.28-.36-4.54-.85-6.83-1-32.09-2.89-60.75-13.56-84-36.75A37.62,37.62,0,0,0,0,228v-2a42.16,42.16,0,0,0,3.83-3.61c5.19-6.22,10.29-12.51,15.38-18.73a15.35,15.35,0,0,1,1.85,1c1.68,1.37,3.33,2.77,5,4.17C52.22,231.13,82.28,242,116.75,239c15.8-1.36,30.32-6.4,41-19,14.55-17.09,11.91-40.39-6.35-53.3a72.29,72.29,0,0,0-18.4-9.59c-15.75-5.25-31.79-9.62-47.73-14.28-18.07-5.29-36-10.91-51.77-21.65-9.58-6.52-17.7-14.56-21.19-25.77C5.1,72.34,7.57,50.59,23.78,31.69,36.51,16.85,53.38,8.79,72,4.22,79.87,2.29,88,1.38,96,0Z"/><path d="M1334,29h-85.14V267.84h-33.49V29H1131V0h203Z"/><path d="M860,0c.12,2.32.33,4.65.33,7V238.47H983.72v29.29H827V0Z"/><path d="M624.22,267.71H369.67L496.65,1.1ZM419.81,236.86H573.07L496.63,74.7Z"/></g></g></svg>