<svg xmlns="http://www.w3.org/2000/svg" viewBox="0 0 107.99 110.03"><title>statusim</title><g id="Layer_2" data-name="Layer 2"><g id="Layer_1-2" data-name="Layer 1"><path d="M23.86,49.08C25.44,35.43,31,24.33,40.49,15.44,53.33,3.43,68.64-2.12,86.22.74,100.66,3.09,108,11.83,108,25.43c0,12.71-8,21.79-21.73,24.55C75.18,52.2,64.08,51.38,53,49.84A149.48,149.48,0,0,0,23.86,49.08Z" style="fill:#5c6eed"/><path d="M83.78,61c.37,5-1.31,9.14-2.83,13.28-8.8,24-35.53,39.65-59.57,35C7.37,106.46.07,98.07,0,84.64-.07,71.89,7.91,62.77,21.6,60c11.42-2.32,22.85-1.37,34.22.21C65.06,61.49,74.32,61.27,83.78,61Z" style="fill:#5c6eed"/></g></g></svg>