<svg xmlns="http://www.w3.org/2000/svg" viewBox="0 0 304.04 258.08"><title>campaign</title><g id="Layer_2" data-name="Layer 2"><g id="Layer_1-2" data-name="Layer 1"><g id="mask-4"><rect id="path-3" x="142.76" y="1.6" width="15.97" height="20.78" style="fill:#fff"/></g><g id="Page-1"><g id="Campaign"><g id="campaign2"><g id="Group-2"><g id="mountain"><path id="Combined-Shape" d="M2.36,191.85A153.31,153.31,0,0,1,0,165C0,80.93,68.06,12.79,152,12.79S304,80.93,304,165a153.31,153.31,0,0,1-2.36,26.86Z" style="fill:#3671a9"/><g id="flag"><path id="Rectangle-142" d="M142,0h0a.8.8,0,0,1,.8.8V39.17a.8.8,0,0,1-.8.8h0a.8.8,0,0,1-.8-.8V.8A.8.8,0,0,1,142,0Z" style="fill:#fff"/><polygon id="Rectangle-145" points="157.13 4.8 157.13 25.58 174.7 25.58 170.62 15.5 174.7 4.8 157.13 4.8" style="fill:#f09a27"/><polygon id="Rectangle-145-2" data-name="Rectangle-145" points="157.13 22.38 157.13 25.58 158.73 22.38 157.13 22.38" style="fill:#e37c2d"/><g id="Rectangle-143"><rect id="path-3-2" data-name="path-3" x="142.76" y="1.6" width="15.97" height="20.78" style="fill:#efc22a"/></g></g><g id="Group"><path id="Path-31" d="M144.66,41.57s12.79,27.64,14.62,29.48,21,5.53,22.84,8.29,30.15,58,30.15,58l23.92-22,32.72,53.31L280.77,201,179.83,258.08,78.88,235Z" style="fill:#fff"/><path id="Path-30" d="M53.75,187,81,126.46l43.61-36.7,11.81-45.88s4.54-9.18,7.27-4.59S148.24,76,148.24,76l-4.54,46.8-19.08,50.47,7.27,31.2-9.09,29.36-45.43,15.6L44.66,213.62Z" style="fill:#67cefd"/><path id="Path-32" d="M205.38,124.33c1.81-2.77,28-8.3,29.78-9.22S237,118.8,237,118.8v39.66s-12.64,27.67-15.34,28.59S196.36,176,195.46,174.14,203.58,127.1,205.38,124.33Z" style="fill:#67cefd"/></g><polygon id="Path-4" points="129.1 191.95 124.45 172.96 143.61 122.79 148.38 76.36 144.98 41.49 158.95 70.61 181.79 78.55 205.62 123.97 195.23 172.96 221.56 187.03 237.13 158.41 237.13 116.72 268.7 168.46 277.49 191.95 129.1 191.95" style="fill:#fff"/></g></g></g></g></g></g></g></svg>