<svg xmlns="http://www.w3.org/2000/svg" viewBox="0 0 957.37 957.52"><title>dapp-logo-alpha</title><g id="Layer_2" data-name="Layer 2"><g id="Layer_1-2" data-name="Layer 1"><path d="M1.46,442.13C17.92,224.12,180.17,45.51,396.06,7.58c21.82-3.83,44.15-4.8,66.24-7.1L466.81,0h23.52c13.15,1,26.33,1.58,39.43,3q115.11,12.47,212,76A15.23,15.23,0,0,1,743,80l-40.84,40.76c-8.89,8.87-17.72,17.8-26.72,26.56a4.16,4.16,0,0,1-3.87.34Q574,91.58,461.6,96.08c-167.75,6.76-314,125.59-354.22,288.53-24.93,101-11.09,196.87,40.2,287.37.49.86.52,2.76-.07,3.34q-33.39,33.64-67,67.1c-.22.22-.49.4-1,.81-2.11-3.27-4.23-6.43-6.23-9.66C18,644.16-6.46,547,1.46,442.13" style="fill:#fff"/><path d="M801.86,266.33a47.91,47.91,0,1,1,48,47.9A47.8,47.8,0,0,1,801.86,266.33Z" style="fill:#fff"/><polygon points="900.07 529.72 921.67 529.72 910.94 503.4 900.07 529.72" style="fill:#fff"/><path d="M819.7,505.42a10.64,10.64,0,0,0-3.45-2.59,9.64,9.64,0,0,0-4.16-.94H795.52v24.3h17a8.92,8.92,0,0,0,4.24-1,10.31,10.31,0,0,0,3.26-2.7,12.73,12.73,0,0,0,2.1-3.9,14.29,14.29,0,0,0,.75-4.61,13,13,0,0,0-3.19-8.55Z" style="fill:#fff"/><polygon points="703.64 529.72 725.24 529.72 714.52 503.4 703.64 529.72" style="fill:#fff"/><path d="M488.14,479.21a15,15,0,0,0-9.58,3.93Q311.45,649.83,144.74,816.91c-.84.84-.86,4,0,4.77C233.85,907,340.16,952.93,463.46,957.2c106.63,3.7,204.53-25.32,291.27-87.52C870.84,786.43,937,672.77,954.45,530.94c1.65-13.38,2-26.91,2.92-40.38V479Q722.76,479,488.14,479.21Zm245.2,71.29-6.9-16.65H702.52l-6.82,16.65h-5.62l22.27-53.25h4.42l22.13,53.25Zm49.2,0h-36V497.25h5.25v48.6h30.75ZM827,520.31a17.14,17.14,0,0,1-3.15,5.36,15.82,15.82,0,0,1-4.84,3.75,13.65,13.65,0,0,1-6.26,1.42H795.52V550.5h-5.25V497.25h22a13.82,13.82,0,0,1,6.34,1.46,16.72,16.72,0,0,1,5,3.82,18.16,18.16,0,0,1,3.3,5.36,16.24,16.24,0,0,1,1.2,6.07A18.1,18.1,0,0,1,827,520.31Zm51.9,30.19h-5.17v-24.9H842.17v24.9h-5.25V497.25h5.25v23.7h31.58v-23.7h5.17Zm50.85,0-6.9-16.65H898.94l-6.82,16.65h-5.62l22.27-53.25h4.42l22.13,53.25Z" style="fill:#fff"/></g></g></svg>