<svg xmlns="http://www.w3.org/2000/svg" viewBox="0 0 957.38 957.51"><title>dapp-logo-alpha</title><g id="Layer_2" data-name="Layer 2"><g id="Layer_1-2" data-name="Layer 1"><g id="Layer_2-2" data-name="Layer 2"><g id="Group_1" data-name="Group 1"><g id="Layer_4_Image" data-name="Layer 4 Image"><path d="M490.28,0c13.1,1,26.3,1.6,39.4,3a474,474,0,0,1,212,76,10.59,10.59,0,0,1,1.2,1l-40.8,40.8c-8.9,8.9-17.7,17.8-26.7,26.6a4.16,4.16,0,0,1-3.9.3q-97.5-56.1-210-51.6c-167.8,6.8-314,125.6-354.2,288.5-24.9,101-11.1,196.9,40.2,287.4.5.9.5,2.8-.1,3.3q-33.45,33.6-67,67.1c-.2.2-.5.4-1,.8-2.1-3.3-4.2-6.4-6.2-9.7C18,644.2-6.52,547,1.48,442.1c16.4-218,178.7-396.6,394.6-434.5,21.8-3.8,44.1-4.8,66.2-7.1l4.5-.5Z" style="fill:#fff"/></g></g></g><path d="M488.08,479.2a14.74,14.74,0,0,0-9.6,3.9Q311.53,649.9,144.68,816.9c-.8.8-.8,4,0,4.8,89.1,85.3,195.5,131.3,318.8,135.5,106.6,3.7,204.5-25.3,291.3-87.5,116-83.3,182.2-196.9,199.7-338.8,1.6-13.4,2-26.9,2.9-40.4V479Q722.78,478.85,488.08,479.2Zm-93.5,278.4-6.9-22.2h-30.2l-6.7,22.2H319L358.48,644H387l39.4,113.6Zm123.9,0h-82.7V644H467v86.4h51.5Zm95.3-59.6a39.3,39.3,0,0,1-7.6,12.6,36.85,36.85,0,0,1-11.8,8.8,35,35,0,0,1-15.3,3.3h-18.6v34.9h-31.2V644h49a34.73,34.73,0,0,1,15.4,3.4,40.26,40.26,0,0,1,12.1,9,41.25,41.25,0,0,1,7.9,12.6,38.05,38.05,0,0,1,2.9,14.3A44,44,0,0,1,613.78,698Zm115.7,59.6h-31.2V713.1h-38.1v44.5H629V644h31.2v41.9h38.1V644h31.2Zm85.1,0-6.9-22.2h-30.2l-6.7,22.2H739L778.48,644H807l39.4,113.6Z" style="fill:#fff"/><g id="Layer_4_Image-2" data-name="Layer 4 Image"><path d="M735.47,288.48a86.37,86.37,0,1,1,25.36,61.32A86.57,86.57,0,0,1,735.47,288.48Z" style="fill:#fff"/></g></g></g></svg>