<?xml version="1.0" encoding="utf-8"?>
<!-- Generator: Adobe Illustrator 21.1.0, SVG Export Plug-In . SVG Version: 6.00 Build 0)  -->
<svg version="1.1" id="Layer_1" xmlns="http://www.w3.org/2000/svg" xmlns:xlink="http://www.w3.org/1999/xlink" x="0px" y="0px"
	 viewBox="0 0 957.4 957.5" style="enable-background:new 0 0 957.4 957.5;" xml:space="preserve">
<style type="text/css">
	.st0{fill:#FFFFFF;}
</style>
<title>Giveth-logo</title>
<g id="Layer_2">
	<g id="Group_1">
		<g id="Layer_4_Image">
			<path class="st0" d="M490.3,0c13.1,1,26.3,1.6,39.4,3c76.7,8.3,147.4,33.6,212,76c0.4,0.3,0.8,0.6,1.2,1l-40.8,40.8
				c-8.9,8.9-17.7,17.8-26.7,26.6c-1.2,0.7-2.6,0.9-3.9,0.3c-65-37.4-135-54.6-210-51.6c-167.8,6.8-314,125.6-354.2,288.5
				c-24.9,101-11.1,196.9,40.2,287.4c0.5,0.9,0.5,2.8-0.1,3.3c-22.3,22.4-44.6,44.8-67,67.1c-0.2,0.2-0.5,0.4-1,0.8
				c-2.1-3.3-4.2-6.4-6.2-9.7C18,644.2-6.5,547,1.5,442.1C17.9,224.1,180.2,45.5,396.1,7.6c21.8-3.8,44.1-4.8,66.2-7.1l4.5-0.5
				H490.3z"/>
			<path class="st0" d="M801.9,266.3c0-26.5,21.4-47.9,47.9-47.9s47.9,21.4,47.9,47.9c0,26.4-21.4,47.9-47.8,47.9
				c-26.4,0.1-47.9-21.2-48-47.6C801.9,266.5,801.9,266.4,801.9,266.3z"/>
		</g>
	</g>
</g>
<g>
	<polygon class="st0" points="782.1,714.5 802.8,714.5 792.7,679.3 	"/>
	<path class="st0" d="M576.2,671.2h-15.7v24.3H577c1.9,0,3.7-0.9,5.4-2.6c1.7-1.8,2.5-4.9,2.5-9.5c0-4.7-1-7.9-2.9-9.6
		C580.1,672,578.1,671.2,576.2,671.2z"/>
	<polygon class="st0" points="362.2,714.5 382.8,714.5 372.7,679.3 	"/>
	<path class="st0" d="M488.1,479.2c-3.6,0.1-7,1.5-9.6,3.9C367.2,594.3,255.9,705.5,144.7,816.9c-0.8,0.8-0.8,4,0,4.8
		c89.1,85.3,195.5,131.3,318.8,135.5c106.6,3.7,204.5-25.3,291.3-87.5C870.8,786.4,937,672.8,954.5,530.9c1.6-13.4,2-26.9,2.9-40.4
		V479C801,478.9,644.6,479,488.1,479.2z M394.6,757.6l-6.9-22.2h-30.2l-6.7,22.2H319L358.5,644H387l39.4,113.6H394.6z M518.5,757.6
		h-82.7V644H467v86.4h51.5V757.6z M613.8,698c-1.8,4.7-4.3,9-7.6,12.6c-3.3,3.7-7.2,6.6-11.8,8.8c-4.6,2.2-9.7,3.3-15.3,3.3h-18.6
		v34.9h-31.2V644h49c5.5,0,10.7,1.1,15.4,3.4c4.7,2.3,8.7,5.3,12.1,9c3.4,3.7,6,7.9,7.9,12.6c1.9,4.7,2.9,9.5,2.9,14.3
		C616.5,688.3,615.6,693.2,613.8,698z M729.5,757.6h-31.2v-44.5h-38.1v44.5H629V644h31.2v41.9h38.1V644h31.2V757.6z M814.6,757.6
		l-6.9-22.2h-30.2l-6.7,22.2h-31.8L778.5,644h28.5l39.4,113.6H814.6z"/>
</g>
</svg>
