<svg xmlns="http://www.w3.org/2000/svg" viewBox="0 0 269.33 230.79"><title>giver</title><g id="Layer_2" data-name="Layer 2"><g id="Layer_1-2" data-name="Layer 1"><g id="Page-1"><g id="Donations"><g id="Group-3"><g id="donation2"><g id="Group"><path id="Mask" d="M212.19,0a56.72,56.72,0,0,0-37.86,14.47,57,57,0,0,0-95,42.88c0,.48.07.91.09,1.39s-.09.82-.09,1.24c0,52.66,95,116,95,116s95-63.35,95-116c0-.43-.05-.83-.07-1.24s.07-.91.07-1.39A57.25,57.25,0,0,0,212.19,0Z" style="fill:#e34940"/><rect id="Rectangle" x="13.29" y="133.26" width="44" height="93" transform="translate(-53.82 19.7) rotate(-18)" style="fill:#f7ca18"/><path id="Path-2" d="M45.58,140.58h3.27L85,83.9a161.94,161.94,0,0,0,11.47,19.43,172.09,172.09,0,0,0,14.43,18.16h15.63L160,94.74h0a6,6,0,0,1,2.54-1.19q10.2-2.09,16,2.4,7.73,5.89,5.44,18.43h0a5,5,0,0,1-1,2.25L135,175.73a42.49,42.49,0,0,1-12.46,10.73,68.27,68.27,0,0,1-17.72,6.19l-40,8.76Z" style="fill:#b48e65"/><path id="Path-3" d="M158.33,104.12A17.45,17.45,0,0,0,163,114.26a18.76,18.76,0,0,0,10.52,5l4.12-7.82h0a5,5,0,0,0,.58-2.32q0-5.44-2.7-7.89t-8.38-2.15h0a5,5,0,0,0-2.4.82Z" style="fill:#ffe0b2"/></g></g></g></g></g></g></g></svg>