<svg xmlns="http://www.w3.org/2000/svg" viewBox="0 0 957.38 957.38"><title>Gievth-logo-purple</title><g id="Layer_2" data-name="Layer 2"><g id="Layer_2-2" data-name="Layer 2"><g id="Layer_4_Image" data-name="Layer 4 Image"><path d="M957.38,490.49c-.94,13.46-1.27,27-2.92,40.37C937,672.68,870.85,786.32,754.74,869.56c-86.74,62.18-184.64,91.2-291.28,87.51-123.3-4.28-229.61-50.2-318.76-135.51-.82-.79-.8-3.93,0-4.77q166.77-167,333.86-333.73a15,15,0,0,1,9.58-3.93q234.62-.29,469.24-.17Z" style="fill:#351c75"/><path d="M490.33,0c13.15,1,26.33,1.58,39.43,3a474.63,474.63,0,0,1,212,76A15.32,15.32,0,0,1,743,80L702.19,120.8c-8.89,8.87-17.72,17.8-26.72,26.56a4.17,4.17,0,0,1-3.87.34Q574,91.57,461.56,96.07c-167.75,6.76-314,125.57-354.23,288.49C82.43,485.5,96.28,581.39,147.55,671.9c.49.86.52,2.76-.07,3.34q-33.39,33.64-67,67.09c-.22.22-.49.4-1,.81-2.11-3.27-4.23-6.43-6.23-9.66C18,644.06-6.45,546.92,1.45,442.06,17.91,224.09,180.16,45.5,396.06,7.58c21.82-3.83,44.15-4.8,66.24-7.1L466.81,0Z" style="fill:#351c75"/><path d="M733,289a86.08,86.08,0,1,1,25.28,61.11A86.28,86.28,0,0,1,733,289Z" style="fill:#351c75"/></g></g></g></svg>