<?xml version="1.0" encoding="utf-8"?>
<!-- Generator: Adobe Illustrator 21.1.0, SVG Export Plug-In . SVG Version: 6.00 Build 0)  -->
<svg version="1.1" id="Layer_1" xmlns="http://www.w3.org/2000/svg" xmlns:xlink="http://www.w3.org/1999/xlink" x="0px" y="0px"
	 viewBox="0 0 957.4 957.5" style="enable-background:new 0 0 957.4 957.5;" xml:space="preserve">
<style type="text/css">
	.st0{fill:#351C75;}
</style>
<title>Giveth-logo</title>
<g id="Layer_2">
	<g id="Group_1">
		<g id="Layer_4_Image">
			<path class="st0" d="M957.4,490.6c-0.9,13.5-1.3,27-2.9,40.4C937,672.8,870.8,786.4,754.7,869.7
				c-86.7,62.2-184.6,91.2-291.3,87.5c-123.3-4.3-229.6-50.2-318.8-135.5c-0.8-0.8-0.8-3.9,0-4.8
				c111.2-111.4,222.5-222.6,333.8-333.8c2.6-2.4,6-3.8,9.6-3.9c156.4-0.2,312.8-0.3,469.2-0.2V490.6z"/>
			<path class="st0" d="M490.3,0c13.1,1,26.3,1.6,39.4,3c76.7,8.3,147.4,33.6,212,76c0.4,0.3,0.8,0.6,1.2,1l-40.8,40.8
				c-8.9,8.9-17.7,17.8-26.7,26.6c-1.2,0.7-2.6,0.9-3.9,0.3c-65-37.4-135-54.6-210-51.6c-167.8,6.8-314,125.6-354.2,288.5
				c-24.9,101-11.1,196.9,40.2,287.4c0.5,0.9,0.5,2.8-0.1,3.3c-22.3,22.4-44.6,44.8-67,67.1c-0.2,0.2-0.5,0.4-1,0.8
				c-2.1-3.3-4.2-6.4-6.2-9.7C18,644.2-6.5,547,1.5,442.1C17.9,224.1,180.2,45.5,396.1,7.6c21.8-3.8,44.1-4.8,66.2-7.1l4.5-0.5
				H490.3z"/>
			<path class="st0" d="M801.9,266.3c0-26.5,21.4-47.9,47.9-47.9s47.9,21.4,47.9,47.9c0,26.4-21.4,47.9-47.8,47.9
				c-26.4,0.1-47.9-21.2-48-47.6C801.9,266.5,801.9,266.4,801.9,266.3z"/>
		</g>
	</g>
</g>
</svg>
