<svg xmlns="http://www.w3.org/2000/svg" viewBox="0 0 957.37 957.52"><title>Giveth-logo</title><g id="Layer_2" data-name="Layer 2"><g id="Group_1" data-name="Group 1"><g id="Layer_4_Image" data-name="Layer 4 Image"><path d="M957.37,490.56c-.94,13.46-1.27,27-2.92,40.38C937,672.77,870.84,786.43,754.73,869.69,668,931.88,570.09,960.9,463.46,957.2,340.16,952.93,233.85,907,144.71,821.68c-.82-.79-.8-3.93,0-4.77Q311.48,649.85,478.56,483.13a15,15,0,0,1,9.58-3.93q234.62-.29,469.23-.17Z"/><path d="M490.33,0c13.15,1,26.33,1.58,39.43,3q115.11,12.47,212,76A15.23,15.23,0,0,1,743,80l-40.84,40.76c-8.89,8.87-17.72,17.8-26.72,26.56a4.16,4.16,0,0,1-3.87.34Q574,91.58,461.6,96.08c-167.75,6.76-314,125.59-354.22,288.53-24.93,101-11.09,196.87,40.2,287.37.49.86.52,2.76-.07,3.34q-33.39,33.64-67,67.1c-.22.22-.49.4-1,.81-2.11-3.27-4.23-6.43-6.23-9.66C18,644.16-6.46,547,1.46,442.13,17.92,224.12,180.17,45.51,396.06,7.58c21.82-3.83,44.15-4.8,66.24-7.1L466.81,0Z"/><path d="M801.86,266.33a47.91,47.91,0,1,1,48,47.9A47.8,47.8,0,0,1,801.86,266.33Z"/></g></g></g></svg>