<svg xmlns="http://www.w3.org/2000/svg" viewBox="0 0 1724.81 1917.91"><defs><style>.cls-1{fill:#fff;}</style></defs><title>Giveth-full-logo</title><g id="Layer_2" data-name="Layer 2"><g id="Group_1" data-name="Group 1"><g id="Layer_4_Image" data-name="Layer 4 Image"><path class="cls-1" d="M1340.81,490.56c-.94,13.46-1.27,27-2.92,40.38-17.46,141.84-83.61,255.5-199.72,338.75-86.74,62.19-184.64,91.21-291.27,87.52C723.6,952.93,617.29,907,528.15,821.68c-.82-.79-.8-3.93,0-4.77Q694.92,649.85,862,483.13a15,15,0,0,1,9.58-3.93q234.62-.29,469.23-.17Z"/><path class="cls-1" d="M873.77,0c13.15,1,26.33,1.58,39.43,3q115.11,12.47,212,76a15.23,15.23,0,0,1,1.26,1.06l-40.84,40.76c-8.89,8.87-17.72,17.8-26.72,26.56a4.16,4.16,0,0,1-3.87.34Q957.47,91.58,845,96.08c-167.75,6.76-314,125.59-354.22,288.53C465.88,485.57,479.73,581.48,531,672c.49.86.52,2.76-.07,3.34q-33.39,33.64-67,67.1c-.22.22-.49.4-1,.81-2.11-3.27-4.23-6.43-6.23-9.66C401.41,644.16,377,547,384.9,442.13,401.36,224.12,563.61,45.51,779.5,7.58c21.82-3.83,44.15-4.8,66.24-7.1L850.25,0Z"/><path class="cls-1" d="M1185.3,266.33a47.91,47.91,0,1,1,48,47.9A47.8,47.8,0,0,1,1185.3,266.33Z"/></g><g id="Layer_2_copy_Image" data-name="Layer 2 copy Image"><path class="cls-1" d="M247.85,1437.84a26.8,26.8,0,0,0,2.82.44c60,3,111.74,25.51,155.45,66.64,1,1,2.08,2,2.89,2.75l-33.66,33.66c-1.39-1.29-3.14-2.88-4.87-4.5a192.59,192.59,0,0,0-70.85-41.73,197.2,197.2,0,0,0-35-7.93,201,201,0,0,0-37.55-1.15,179.13,179.13,0,0,0-40,6.92,190.72,190.72,0,0,0-32.34,12.46,181.22,181.22,0,0,0-39.48,26.05c-4.62,4.05-9.18,8.2-13.5,12.57a183.37,183.37,0,0,0-23,28.75,192.43,192.43,0,0,0-16.44,31.08,184.55,184.55,0,0,0-12.2,42.68,188.8,188.8,0,0,0-2.06,18.77,218.71,218.71,0,0,0-.3,22.52,185.67,185.67,0,0,0,5.95,38.45,195,195,0,0,0,13.06,35.42,192.54,192.54,0,0,0,27.9,42.25,191.71,191.71,0,0,0,129.86,65.52,214.11,214.11,0,0,0,27.79.2,184.19,184.19,0,0,0,44.16-8.08,187.23,187.23,0,0,0,28.65-11.43,193,193,0,0,0,75.08-66.31,189.7,189.7,0,0,0,24-51.46c.49-1.66,1-3.33,1.55-5.42-6.36-.07-12.32,0-18.28,0H191.67L240.57,1678h239.1c0,1.19,0,2.28,0,3.37-1.32,58.45-20.85,110-59.18,154.17-34.21,39.38-77.18,64.58-128,76.36a243.84,243.84,0,0,1-40.56,5.56,215.84,215.84,0,0,1-34.27-.73c-52.4-5.19-98.54-25-137.81-60.16-38.18-34.15-62.73-76.5-74.18-126.41a221.25,221.25,0,0,1-5.56-43.23c-1.82-63.59,17.9-119.67,59.71-167.56C93.61,1480.67,136,1455.83,186,1444a243.52,243.52,0,0,1,37.18-5.58c1.83-.14,3.68-.08,5.52-.19a28.08,28.08,0,0,0,2.81-.44Z"/><path class="cls-1" d="M1724.81,1917.84H1677V1727.09H1532.88V1917.4c-1.89.55-44.47.71-47.74.22V1631h47.62v46.42c2,.54,139.55.74,144.2.23,0-15.76,0-31.56,0-47.36s0-31.52,0-47.28v-47.62a16.72,16.72,0,0,1,2-.26q22.32,0,44.64,0c.4,0,.79.07,1.19.11Z"/><path class="cls-1" d="M1244.58,1726.82H1053.65L1004.83,1678h184.65a142.39,142.39,0,0,0-31.06-50.88c-22.14-23.31-49.11-37.9-80.79-43.27A144.27,144.27,0,0,0,961.8,1837.55c28.55,23.34,61.51,34.33,98.31,32.65s68.24-15.91,94.58-41.17l33.15,33.16c-47.31,49.73-137.16,76.87-220.3,35.18a191.38,191.38,0,0,1,132.83-356.57C1197.36,1565.58,1246.33,1653,1244.58,1726.82Z"/><path class="cls-1" d="M672.31,1820.94l164.91-285.62h54.64a1.53,1.53,0,0,1,.14.22c0,.07.07.17,0,.23a6.65,6.65,0,0,1-.39.87l-220,381.1H624v-382a1.65,1.65,0,0,1,.18-.24.46.46,0,0,1,.2-.11,5,5,0,0,1,.94-.16h45.12a9.34,9.34,0,0,1,1.2.19v285.4Z"/><path class="cls-1" d="M1340.87,1917.72H1293V1581.87c-3.26-.18-6.35-.06-9.43-.08s-6.4,0-9.6,0H1236.3l-27.11-46.47h323.44v46.44H1340.87Z"/><path class="cls-1" d="M575.56,1917.72H528V1631h47.33l.12.12c.05.06.14.12.14.18q.06,142.55.1,285.09C575.68,1916.78,575.61,1917.17,575.56,1917.72Z"/><path class="cls-1" d="M551.81,1535.18a23.86,23.86,0,1,1-23.95,23.93A23.76,23.76,0,0,1,551.81,1535.18Z"/></g></g></g></svg>