<svg xmlns="http://www.w3.org/2000/svg" viewBox="0 0 1447.7 2051.04"><title>Giveth-full-logo-white</title><g id="Layer_2" data-name="Layer 2"><g id="Layer_1-2" data-name="Layer 1"><g id="Layer_4_Image" data-name="Layer 4 Image"><path d="M1447.51,741.5c-1.42,20.34-1.92,40.81-4.41,61-26.4,214.39-126.4,386.19-301.93,512-131.13,94-279.13,137.87-440.34,132.29C514.42,1440.38,353.71,1371,218.95,1242c-1.24-1.2-1.21-5.94,0-7.21Q471.07,982.27,723.66,730.26a22.68,22.68,0,0,1,14.48-5.94q354.69-.44,709.37-.26Z" style="fill:#fff"/><path d="M741.45,0c19.88,1.51,39.8,2.39,59.61,4.53q174,18.85,320.5,114.88a23.16,23.16,0,0,1,1.91,1.6l-61.74,61.61c-13.44,13.41-26.79,26.91-40.39,40.15a6.3,6.3,0,0,1-5.85.51Q868,138.43,698,145.23c-253.6,10.22-474.7,189.83-535.5,436.12-37.64,152.6-16.71,297.57,60.8,434.4.74,1.3.79,4.17-.11,5q-50.48,50.85-101.29,101.42c-.33.33-.74.6-1.51,1.22-3.19-4.94-6.39-9.72-9.42-14.6C27.34,973.67-9.56,826.81,2.38,668.29,27.27,338.76,272.55,68.79,598.93,11.46c33-5.79,66.74-7.26,100.14-10.73L705.89,0Z" style="fill:#fff"/><path d="M1108.3,436.82a130.13,130.13,0,1,1,38.21,92.38A130.44,130.44,0,0,1,1108.3,436.82Z" style="fill:#fff"/></g><g id="Layer_2_copy_Image" data-name="Layer 2 copy Image"><path d="M208,1648.1a22.51,22.51,0,0,0,2.37.37c50.36,2.52,93.79,21.41,130.47,55.93.84.84,1.75,1.68,2.43,2.31L315.05,1735c-1.17-1.08-2.64-2.42-4.09-3.78a161.65,161.65,0,0,0-59.47-35,165.69,165.69,0,0,0-29.38-6.66,168.67,168.67,0,0,0-31.52-1,150.35,150.35,0,0,0-33.57,5.81,160.06,160.06,0,0,0-27.14,10.46,152.16,152.16,0,0,0-33.14,21.86c-3.88,3.4-7.7,6.88-11.33,10.55a153.94,153.94,0,0,0-19.31,24.13,161.52,161.52,0,0,0-13.8,26.09,154.94,154.94,0,0,0-10.24,35.82A158.31,158.31,0,0,0,40.34,1839a182.8,182.8,0,0,0-.25,18.9,155.73,155.73,0,0,0,5,32.27,163.58,163.58,0,0,0,11,29.73,161.39,161.39,0,0,0,132.41,90.46,180.11,180.11,0,0,0,23.33.17,154.73,154.73,0,0,0,37.07-6.78,157.21,157.21,0,0,0,24-9.59,162,162,0,0,0,63-55.66,159.22,159.22,0,0,0,20.14-43.19c.41-1.39.84-2.79,1.3-4.55-5.34-.06-10.34,0-15.34,0H160.88l41-41.09H402.61v2.83c-1.11,49.06-17.5,92.33-49.67,129.4C324.22,2015,288.16,2036.11,245.5,2046a204.72,204.72,0,0,1-34,4.67,181.08,181.08,0,0,1-28.76-.61c-44-4.36-82.71-21-115.67-50.49-32-28.66-52.65-64.21-62.26-106.1A185.75,185.75,0,0,1,.1,1857.17c-1.53-53.37,15-100.44,50.12-140.64,28.36-32.48,63.94-53.33,105.91-63.26a204.42,204.42,0,0,1,31.21-4.68c1.54-.12,3.09-.07,4.63-.16a23.51,23.51,0,0,0,2.36-.37Z" style="fill:#fff"/><path d="M1447.7,2051h-40.13v-160.1h-121v159.74c-1.59.46-37.33.59-40.07.18V1810.23h40v39c1.68.45,117.13.62,121,.19V1730a13.93,13.93,0,0,1,1.68-.22h37.47a9.92,9.92,0,0,1,1,.09Z" style="fill:#fff"/><path d="M1044.63,1890.65H884.37l-41-41h155A119.51,119.51,0,0,0,972.31,1807c-18.58-19.56-41.22-31.81-67.81-36.32a121.09,121.09,0,0,0-97.22,212.94c24,19.59,51.63,28.81,82.51,27.4s57.28-13.35,79.39-34.56L997,2004.27c-39.71,41.74-115.12,64.52-184.91,29.53a160.63,160.63,0,0,1,111.49-299.28C1005,1755.32,1046.1,1828.69,1044.63,1890.65Z" style="fill:#fff"/><path d="M564.3,1969.65l138.41-239.73h45.86a1.39,1.39,0,0,1,.12.19c0,.06.06.14,0,.19a5.57,5.57,0,0,1-.33.73L563.71,2050.9h-40V1730.27a1.36,1.36,0,0,1,.15-.2.4.4,0,0,1,.17-.09,4.05,4.05,0,0,1,.79-.13h37.87a7.83,7.83,0,0,1,1,.16v239.55Z" style="fill:#fff"/><path d="M1125.45,2050.88h-40.18V1769c-2.74-.15-5.33-.05-7.92-.07s-5.37,0-8.06,0h-31.62l-22.76-39H1286.4v39h-161Z" style="fill:#fff"/><path d="M483.09,2050.88H443.17V1810.23H482.9l.1.1c0,.05.12.1.12.15q.05,119.65.08,239.29C483.19,2050.09,483.14,2050.42,483.09,2050.88Z" style="fill:#fff"/><path d="M463.16,1729.8a19.94,19.94,0,1,1-14.26,5.83A20,20,0,0,1,463.16,1729.8Z" style="fill:#fff"/></g></g></g></svg>