<svg xmlns="http://www.w3.org/2000/svg" viewBox="0 0 1447.32 1447.32"><title>Giveth-logo-white</title><g id="Layer_2" data-name="Layer 2"><g id="Layer_1-2" data-name="Layer 1"><g id="Layer_4_Image" data-name="Layer 4 Image"><path d="M1447.32,741.5c-1.42,20.34-1.92,40.81-4.41,61-26.4,214.39-126.4,386.19-301.93,512-131.13,94-279.13,137.87-440.34,132.29C514.23,1440.38,353.52,1371,218.76,1242c-1.24-1.2-1.21-5.94,0-7.21Q470.88,982.27,723.47,730.26a22.68,22.68,0,0,1,14.48-5.94q354.69-.44,709.37-.26Z" style="fill:#fff"/><path d="M741.26,0c19.88,1.51,39.8,2.39,59.61,4.53q174,18.85,320.5,114.88a23.16,23.16,0,0,1,1.91,1.6l-61.74,61.61c-13.44,13.41-26.79,26.91-40.39,40.15a6.3,6.3,0,0,1-5.85.51Q867.8,138.43,697.77,145.23c-253.6,10.22-474.7,189.83-535.5,436.12-37.64,152.6-16.71,297.57,60.8,434.4.74,1.3.79,4.17-.11,5q-50.48,50.85-101.29,101.42c-.33.33-.74.6-1.51,1.22-3.19-4.94-6.39-9.72-9.42-14.6C27.15,973.67-9.75,826.81,2.19,668.29,27.08,338.76,272.36,68.79,598.74,11.46c33-5.79,66.74-7.26,100.14-10.73L705.7,0Z" style="fill:#fff"/><path d="M1108.11,436.82a130.13,130.13,0,1,1,38.21,92.38A130.44,130.44,0,0,1,1108.11,436.82Z" style="fill:#fff"/></g></g></g></svg>