<svg xmlns="http://www.w3.org/2000/svg" xmlns:xlink="http://www.w3.org/1999/xlink" viewBox="0 0 148.65 157.9"><defs><linearGradient id="linear-gradient" x1="121.11" y1="2.98" x2="0.47" y2="123.62" gradientUnits="userSpaceOnUse"><stop offset="0" stop-color="#ff0062"/><stop offset="1" stop-color="#ff5e00"/></linearGradient><linearGradient id="linear-gradient-2" x1="125.61" y1="14.86" x2="116.19" y2="88.63" gradientUnits="userSpaceOnUse"><stop offset="0" stop-color="#00eaff"/><stop offset="1" stop-color="#009dff"/></linearGradient><linearGradient id="linear-gradient-3" x1="147.63" y1="71.81" x2="53.35" y2="166.1" gradientUnits="userSpaceOnUse"><stop offset="0" stop-color="#ff0037"/><stop offset="1" stop-color="#9000ff"/></linearGradient></defs><title>liquid-pledging</title><g id="Layer_2" data-name="Layer 2"><g id="Layer_2-2" data-name="Layer 2"><path d="M15.6,135.3c5.32,6.09,9.83,8.83,13.3,8.83,9.6,0,12.13-5.26,22.18-15.11a64.2,64.2,0,0,1,8.43-6.71c2.31-1.64,4.47-4.22,2.9-5.63-1.27-1.14-4.23.77-5.63,2.82a42.16,42.16,0,0,1-6.86,7.79c-3.33,3-4.57,3.74-6.56,3.58S42.71,129,40.72,129s-3.76,2.57-7.9,2.57-6.35-2.11-9.41-5.73c-9.52-11.3-17.35-35.75-4.88-58.06C31.67,44.32,52.12,41.7,59.36,40.06c4.35-1,10.92-8,13.88-6.72,2.36,1.06.39,2.3,2.59,3.09,3.94,1.4,9.54-4.62,14.55-9.73S102.32,15.41,106,11.84c4.22-4,12.83-9.42,8.95-11.57-3.34-1.85-8.12,6.13-11.1,9.77S91.22,23.93,86,25.94c-3.14,1.22-4.39-.22-3.81-2.15.48-1.59,4.64-4.89,2.48-6C81.08,16,68.3,27.7,62.79,28.06c-6.86.45-40.56,2.81-56.9,38.17C-6.09,92.14,1.74,119.42,15.6,135.3Z" style="fill:url(#linear-gradient)"/><path d="M99.31,44.07c-1.76-2.5-3-.26-5.37-2.46-1.39-1.31,1.57-4.92,5-7.49,6.49-4.83,8.12-11.79,10.85-9.94,3.06,2.07-7.79,7.62-8.29,10.44s3.81,2.65,7.12,0A57.56,57.56,0,0,0,120.42,21c2.56-4,6.72-.47,3.58,2.35-5,4.44-19.39,17.93-15.12,21.72a77.59,77.59,0,0,1,11.6,13.81c2.68,4.1,3,7.34,5.63,7.44,2.27.08,5.33-6.85,7.12-4.83,2.4,2.69-4.89,6.06-8.72,11.48-3.43,4.86,1,7.9,4.68,4.71s10.29-10.12,12.27-13.11,4.71-7.55,6.46-5.8c1.91,1.91-.83,4.47-5,7.79s-15,15.24-17.08,16.79c-2.42,1.76-6.13,1.94-7-1.07s-.35-6.08-.82-8.5c-.58-3-4.08-2-7-7.16a44.28,44.28,0,0,0-10.41-12.9C97,50.62,100.73,46.08,99.31,44.07Z" style="fill:url(#linear-gradient-2)"/><path d="M94.08,137.32c8.4-5.43,14.83-13.31,17.83-19.58,8.35-17.47,15.17-18.6,27.88-33.27,1.77-2,5.74-9.16,7.72-6.67s-3.62,6-6.34,8c-3.39,2.54-11.59,12.75-10.53,16.37.56,1.9,3.71-.08,3.47,2.24-.28,2.68-6.93,8.14-10,16-2.78,7.08-10.47,17.12-18.88,23.68C95,152.07,81,157.9,69.38,157.9c-4.8,0-5.12-5.52-7.44-7.67-3.77-3.5-7.65,2.85-11.93-.33s-1.09-8.16,4.66-13.91,14.4-14,17-17.56c3.28-4.37,5.71-8.44,8-6.46,2.07,1.82-3.81,6.3-6.79,8.61s-14.49,13.58-16,16.81c-1.39,3,2.73,5.38,6.71,1.9s6-8.85,8.45-7.62c3,1.49-4.47,5.63-5.47,8S66,146.21,70,145.82A52.71,52.71,0,0,0,94.08,137.32Z" style="fill:url(#linear-gradient-3)"/><ellipse cx="90.92" cy="10.72" rx="2.75" ry="1.9" transform="translate(19.05 67.44) rotate(-45)" style="fill:#fd235d"/><ellipse cx="146.47" cy="47.96" rx="2.55" ry="1.76" transform="translate(8.98 117.61) rotate(-45)" style="fill:#00c1fc"/><ellipse cx="140.81" cy="96.26" rx="2.31" ry="1.6" transform="translate(-26.82 127.77) rotate(-45)" style="fill:#ff246d"/><ellipse cx="80.96" cy="95.6" rx="2.96" ry="2.05" transform="translate(-43.89 85.25) rotate(-45)" style="fill:#ff6319"/><ellipse cx="47.64" cy="123.06" rx="1.73" ry="1.2" transform="translate(-73.07 69.73) rotate(-45)" style="fill:#ff631a"/></g></g></svg>