<svg xmlns="http://www.w3.org/2000/svg" viewBox="0 0 241.23 204.76"><title>liquid-pledging</title><g id="Layer_2" data-name="Layer 2"><g id="Layer_1-2" data-name="Layer 1"><path d="M241.23,162l-55.45,42.74c-7.46-7.52-15-15-22.36-22.65a11.35,11.35,0,0,0-9.14-3.82c-21.49.17-43,0-64.47.11a38.14,38.14,0,0,1-22.5-6.89c-20-13.81-40.1-27.44-60.14-41.17C1.54,126.49-1,121.15.34,114.41c1.27-6.5,6.3-11.64,13-11.83a22,22,0,0,1,11.92,3.7c19.15,12.67,38,25.85,57.05,38.61a17.91,17.91,0,0,0,9.16,2.9c17.49.28,35,.21,52.48,0,1.74,0,4.84-1.35,5-2.34.4-3.54-2.72-2.91-4.94-2.92-15,0-30,0-45,0-9.69,0-16.37-6.07-16.56-14.88s6.62-15.58,16.46-15.61c26.32-.09,52.65-.37,79,.23,5.78.13,12.81,2.1,17,5.79C210.73,132,225.63,147.06,241.23,162Z" style="fill:#fff"/><path d="M108.48,0c8.57,15.58,17.39,31,25.59,46.74,6.22,12,2.51,26.43-8.13,35-10,8-24.79,8.17-35.19.38-10.63-8-15-22.44-9-34.31,8-16,17.13-31.46,25.79-47.15C107.64.4,108,.29,108.48,0Z" style="fill:#fff"/><path d="M77.77,135.37,36.91,107.44c4-5.84,12.74-6.65,18.06-3.18,7.1,4.63,14.07,9.46,21,14.34a4.58,4.58,0,0,1,1.71,3.11C77.88,126.09,77.77,130.48,77.77,135.37Z" style="fill:#fff"/><path d="M80.49,115.06l-13.7-9.38c5.75-5.51,11.8-4.71,21.67,2.76Z" style="fill:#fff"/><path d="M91.78,103.77c6.34-3.07,11.33-1.36,16,2.49C102.56,106.16,97,108.69,91.78,103.77Z" style="fill:#fff"/></g></g></svg>