<svg xmlns="http://www.w3.org/2000/svg" viewBox="0 0 494.26 594.6"><title>milsetone-payouts-white</title><g id="Layer_2" data-name="Layer 2"><g id="Layer_1-2" data-name="Layer 1"><path d="M256.66,401.59v31.65l116.92-18.08.84-1.5-15-14.19.37-1.21c2.49,0,5.06-.39,7.47.06q60.6,11.34,121.15,22.91c1.63.31,3.14,1.24,5.86,2.36a49,49,0,0,1-4.35,3.18c-20.46,11.16-41,22.21-61.37,33.49-3.93,2.17-6.67,1.63-9.7-1.43-5-5.08-9.55-11.79-15.71-14.26s-14.11-.66-21.28-.67l-114-.2H262l19.59,73.6h6c16.17,0,32.33,0,48.5.06,2.29,0,4.57.8,8.4,1.52-2.4,2.59-3.5,4.18-5,5.29Q294.13,558.59,248.71,593c-3,2.26-5.06,2.06-7.9-.1Q195.45,558.41,150,524.07c-1.58-1.2-2.72-3-4.73-5.19,7.74-2.79,14.55-1.29,21.19-1.55,6.82-.27,13.66-.06,20.5-.06H208.1L231,443.68h-5.35c-43.83.08-87.66.12-131.49.36a11.65,11.65,0,0,0-6.89,2.8c-4.53,3.91-8.66,8.3-12.88,12.56-2.4,2.42-4.85,3.13-8,1.38Q34.85,443.5,3.26,426.32A25,25,0,0,1,0,423.47c2.52-1,4.17-2,5.93-2.3Q66,409.71,126.09,398.42a62.18,62.18,0,0,1,7.75-.5l1,1.86-15.57,13.58,1.11,1.8,116.06,18V403.29" style="fill:#fcfcfc"/><path d="M246.07,0c.1,0,.24,0,.28,0,.2.27.39.56.56.85l36.17,60,57.84,96,32.53,54a10.24,10.24,0,0,1,.54,1c.07.16,0,.28-.21.33-.17-.19-.31-.45-.53-.56-.85-.42-1.72-.8-2.58-1.19l-6.12-2.76c-2.07-.94-4.13-1.91-6.2-2.85l-8.61-3.88c-2.11-1-4.2-1.94-6.3-2.9l-9.84-4.47-2.9-1.32c-2-.92-4.08-1.83-6.12-2.75s-4.13-1.91-6.2-2.85l-9.84-4.47-2.9-1.32c-2-.92-4.08-1.83-6.12-2.75s-4.13-1.91-6.2-2.85c-2.87-1.3-5.74-2.57-8.61-3.88s-5.86-2.69-8.79-4L273,166l-6.32-2.86-6.1-2.79-6.22-2.8c-2.07-.94-4.13-1.91-6.2-2.84-.69-.31-1.4-.57-2.11-.85,0-.61,0-1.21,0-1.82q0-75.36,0-150.72C246.1.91,246.08.45,246.07,0Z" style="fill:#f7f7f7"/><path d="M246.07,0c0,.45,0,.91,0,1.36q0,75.36,0,150.72c0,.61,0,1.21,0,1.82h0c-1.25.54-2.5,1.08-3.75,1.64-2,.92-4.07,1.86-6.1,2.78l-9.32,4.23-8.28,3.77-9,4.09-8.49,3.87L192,178.41l-8.38,3.82-9.32,4.23-5.69,2.59-9.32,4.23L151,197.05l-9,4.09L133.53,205l-9.22,4.18-6,2.71c1.36-2.28,2.71-4.56,4.08-6.84l24.9-41.32,29.66-49.21,31.83-52.82,32-53.1c1.51-2.5,3-5,4.52-7.5C245.52.73,245.81.37,246.07,0Z" style="fill:#d0d0d0"/><path d="M246.08,153.9c.7.28,1.42.53,2.11.85,2.07.94,4.13,1.9,6.2,2.84l6.22,2.8,6.1,2.79L273,166l2.9,1.31c2.93,1.34,5.85,2.7,8.79,4s5.74,2.58,8.61,3.88c2.07.94,4.13,1.91,6.2,2.85s4.08,1.83,6.12,2.75l2.9,1.32,9.84,4.47c2.07.94,4.13,1.91,6.2,2.85s4.08,1.83,6.12,2.75l2.9,1.32,9.84,4.47c2.1,1,4.2,1.94,6.3,2.9l8.61,3.88c2.07.94,4.13,1.9,6.2,2.85l6.12,2.76c.86.39,1.73.77,2.58,1.19.22.11.36.37.53.56-.35.23-.69.47-1,.68L247.29,287c-.38.22-.71.59-1.22.52,0-.34,0-.68,0-1q0-66.3,0-132.6Z" style="fill:#fff"/><path d="M246.07,153.9q0,66.3,0,132.6c0,.34,0,.68,0,1-.37-.18-.76-.33-1.11-.54l-85.09-50.29-41.32-24.43c-.13-.07-.43-.07-.25-.36l6-2.71,9.22-4.18,8.49-3.87,9-4.09,8.28-3.77,9.32-4.23,5.69-2.59,9.32-4.23,8.38-3.82,9.11-4.14,8.49-3.87,9-4.09,8.28-3.77,9.32-4.23c2-.93,4.07-1.87,6.1-2.78C243.57,155,244.82,154.45,246.07,153.9Z" style="fill:#e8e8e8"/><path d="M246.09,311.94l17.15-10.11,100.11-59.12,9.31-5.49,1.06-.6c.06.41-.19.6-.35.82l-8.17,11.51L287.74,358,247,415.48c-.2.28-.4.56-.62.82-.05.06-.19.06-.29.09,0-.61,0-1.21,0-1.82q0-50.06,0-100.12C246.09,313.6,246.09,312.77,246.09,311.94Z" style="fill:#f7f7f7"/><path d="M246.09,311.94c0,.83,0,1.67,0,2.5q0,50.06,0,100.12c0,.61,0,1.21,0,1.82-.24-.29-.51-.55-.73-.86l-24-33.78-19.11-26.91-19.43-27.38-20.55-29L143,271.29l-23.58-33.23a3.85,3.85,0,0,1-.65-1.06c.34-.21.53,0,.74.17l6.17,3.64,47.43,28,28.81,17,43.21,25.53Z" style="fill:#d0d0d0"/></g></g></svg>