<?xml version="1.0" encoding="utf-8"?>
<!-- Generator: Adobe Illustrator 21.1.0, SVG Export Plug-In . SVG Version: 6.00 Build 0)  -->
<svg version="1.1" id="Layer_1" xmlns="http://www.w3.org/2000/svg" xmlns:xlink="http://www.w3.org/1999/xlink" x="0px" y="0px"
	 viewBox="0 0 4000 4000" style="enable-background:new 0 0 4000 4000;" xml:space="preserve">
<style type="text/css">
	.st0{fill:#FFFFFF;}
</style>
<g>
	<path class="st0" d="M2049.6,1973.9c0.1-2.9-0.5-5.8-2.1-8.4c-1.5-2.4-4.4-3.6-5.7-6.8c5.2-0.9,8.6-6.3,14.6-4.5
		c2.3-5.7,2.1-11.5,1.3-17c-0.8-5.4-3.1-10.7-4.9-16.7c4.9,1.3,0.2,7.4,5.5,7.6c1.3-3.2-1.7-6.3-0.3-9.8c4.4,2.5,2.2,7.2,3.4,10.9
		c2.5-0.2,4.6-0.9,6.1-3.4c-1.6-7.5-6.3-11.1-15.1-9.8c4.1-2.9,4.1-2.9,13-1.1c3.7-1.2,5.6-5.7,9.7-5.6c1.5-2.1,0.3-4.7,2.3-6.3
		c0.8,4.3-1,8.3-0.8,12.4c3.5-10.2,10-19.2,11.2-30.2c0,0-0.1,0.1-0.1,0.1c1.7,6.2,5.9,11.6,4.9,18.5c6.2,5,11.6,10.2,8.4,18.7
		c1.9,2.3,5,2.8,4.6,6.2c7.4,0.4,6.3,6.8,7.5,11c4.3,13.9-0.2,26-11.9,33.6c-10.9,7.1-21.4,2.7-29.6-7.4c0.4-1.1,2.9,0.1,3-1.9
		c5.6-2,7.6-10.6,3.8-16.4c0.5-4-1.8-6.9-4.4-11.1c0.6,5.1,3.6,7.6,4.5,11.1c1.6,6.2,0.6,11.7-3.7,16.6c-4.9,0.9-9.3-0.7-13.6-3
		c1.6,2.9,4.6,3.3,6.9,4.6 M2081.7,1916.1c-2,0.9-3.6,1.4-4.8,3c7.7,1.1,15.1,2.9,23.1-1.1c0.1-0.2,1-1.4-0.2-3.1
		c-2.2,0-3.2,2-4.8,2.8C2090.5,1916,2085.9,1918.4,2081.7,1916.1z M2070.4,1924.9c-0.5,3.2-0.8,5.3-1.1,7.4c1.2,1.1,2.5,1.5,4.3,1.4
		C2072.6,1931,2071.7,1928.6,2070.4,1924.9z"/>
	<path class="st0" d="M2019.9,1854.4c-0.3-3-2.1-4.4-3.2-5.8c-1.1-1.7,1.4-2.4,0.4-4.5c-5.5,1.3-11.1-1.7-17.7-0.1
		c3.2-2.5,19.1-4.2,22.5-3.1c-3.5-2.9-4.9-7.4-8.9-9.9c1.7-2.1,4.6-2,6.2-4.8c0.3-5.8-2.8-11.6-3.7-17.7c-0.7-4.7,0.1-6.5,4.5-7.3
		c1.4,1.2,0.7,3.2,1.8,5.3c1.1,1.4,3.1,3.1,4.1,5.9c2.6-2.3-0.9-4.7,0.4-5.6c1.8-2.6,3.4,0,4.7-1.4c0.6-3.2-1.5-5.1-3.7-7.1
		c-2.1-0.2-4.2-0.3-6.6-0.5c-0.2-3,1.7-4.6,3.6-5.5c3.5-1.6,6.3-3.3,4.6-8.2c2,4.8,4.7,8.4,4.4,14.3c-0.4,6.6-0.8,14,1.9,20.6
		c0.3,0.8,0.2,1.5,0,2.4c-1.5,7.9-2.6,15.8,0.2,23.7c-1.5,2.3-3.8,4.3-3.2,7.8c1.9,2.9,4,6.1,6.2,9.2c1.2,1.8,3.1,2.2,5.1,2.6
		c6,1.4,12,2.9,17.9,4.6c6.7,2,13.2,4.3,20.2,6.6c-1,6.7-2,13.2-2.9,19.7c-0.8-4-0.8-8.1,0-12.4c-3-0.8-5.5,0.2-8.2,0.6
		c-1,1.2-2,2.5-2.9,3.7c-3.9,1-7-0.9-10-2.4c-1.9,0.5-3.7,0.9-5.3,1.3c-3.4-0.8-4.3-4.3-6.7-5.8c-2.5-0.8-4.6,0-6,1.7
		c-7.8,9.5-18.7,8.9-29.3,9.1c-2.3,0.1-4.6,0.1-7,0.3c-3.5,0.3-3.8,0.1-5.8-3.7c-2.1,3.2-3.8,0-6.4-0.5c-6.9,2.3-13.2,7.9-21.5,8.9
		c-2.1,8.2-6.5,15.2-2.7,24.4c4.4,10.7,6.3,22.4,7.6,34c0.1,1.2,0.9,2.6-1.2,4.4c-7.8-15.1-8.1-32.6-16.3-46.6
		c-3-1.1-4.2,0.5-5.8,1.8c-4,3.4-7.6,7.4-13.7,7.3c-3.1,0-5.3,2.5-6.7,5.4c-1.9,3.9-3.8,7.7-5.7,11.6c-1.9,0-3.5,0-5.8,0
		c-0.4-6.5-8.8-4.9-11.9-10.7c-1.2-0.4-4,0.2-5.9-3c8.8-3.1,17.1-7.1,26.5-9.4c-2.4-2.9-5.3-1-8-2.4c6.7-3.5,14.3-4.6,19.6-10.6
		c0.8,0,2.2,0,3.3,0c2.4-1.1,3.5-3.2,5.1-5.2c-2.1-3.7-4.5-7.4-4.9-12c2.3-4.7,7-7.8,9.7-12.5c1.2,4.1-1.2,8.2,0.8,11.9
		c3.5,2.6,5.1-1,7.8-2.1c2.5,3,5.7,4.2,9.8,2.3c4.2-5.4,5.3-12.1,6.9-19c2.9,0.8,4.9,5.6,8.3,1.3c1.7,2.5,2.1,4.9,1.9,7.3
		c-1.6,2.3-3.9,2.5-6.3,2.3c-2.7,2.6-5,5.4-6,9.2c3.2,1.6,5.6-1.9,8.5-0.7c1.5-1.9,2.8-3.6,4.1-5.1c2.1,0.5,0.8,2.2,1.9,3.3
		c2.5,0,5.3,0,8.3,0c1.1-1.3,2.3-2.8,3.9-4.8c-1.9-5.2,0.3-12-6.8-16.7c2,6.3,3.3,11.7,1.4,17.4c-3.4-1.5-2.8-4.2-2.3-7.1
		c1.2-7.1-1.2-11.3-6.9-12.5c-1.5,0.6-2.5,1.6-2.6,3.2c-0.5-8.8,7.7-11.3,12.2-16.7c3.3,1.3,2.1,4.3,3,6.2c-0.6,2.5-3.2,3.9-2.3,7.1
		c2.8,4.8,7.2,4.3,11.8,2.8c2.3,0.5,4.3,2.5,7,0.3C2018.5,1860.2,2018.1,1856.7,2019.9,1854.4z M2030,1839.3
		c2.5-7.3,0.4-13.8-1.8-20.6c0.5,5.5-4.3,9-4.9,14.3C2025.6,1834.9,2026.4,1838.2,2030,1839.3z"/>
	<path class="st0" d="M1943,1871.4c-10.3,0-16.7-7.7-25.8-11.2c-0.8-0.2-1.8,1.5-4.4,1.4c2.4-3.4,5.3-4.1,8.3-4.3
		C1927.6,1863.1,1936.2,1864.8,1943,1871.4z"/>
	<path class="st0" d="M1938,1856.9c2-0.8,3.6-0.5,4.9,0.1c6.3,2.7,14,1.3,19.3,6.8c0.6,0.6,1.3,1,1.2,2
		C1960,1867.3,1947,1862.8,1938,1856.9z"/>
	<path class="st0" d="M1988.6,1810c2.2-1.1,4.4-1.8,6.9-1.2c0,2.3-0.8,3.7-2.9,4.1C1990.6,1813.2,1989.1,1812.4,1988.6,1810z"/>
	<path class="st0" d="M1965.3,1851.9c2.5,1.7,6.2,1.5,8.8,5.9C1969.8,1856.3,1967.3,1854.5,1965.3,1851.9z"/>
	<path class="st0" d="M1918,1871.5c2.4,0.4,5.1-0.4,7.8,1.5C1922.2,1875.7,1920.1,1873.4,1918,1871.5z"/>
	<path class="st0" d="M2085.5,1885.4c-0.2-1.9-1.1-3.9,0.5-6.1c2.5,1.5,2,3.8,1.8,5.9c0,0,0.1-0.1,0.1-0.1c-0.9-0.3-1.8-0.7-2.6,0.2
		L2085.5,1885.4z"/>
	<path class="st0" d="M1959.8,1841.4c0.2,2,0.5,4,0.8,7.1C1957.3,1845.8,1957.9,1843.7,1959.8,1841.4z"/>
	<path class="st0" d="M1982.1,1849c0.6,2.3-0.1,4-2.2,5.5c-0.5-1.4-0.1-3.1-1.2-4.2C1979.8,1849.4,1980.7,1848.7,1982.1,1849z"/>
	<path class="st0" d="M2004.2,1829.2c1.7-2,3.2-3,5.7-1.2C2007.3,1830.2,2007.3,1830.2,2004.2,1829.2z"/>
	<path class="st0" d="M2000.5,1807.9c0.9,1.7,0.5,2.9-1.2,3.8C1996.7,1808.5,1996.7,1808.5,2000.5,1807.9z"/>
	<path class="st0" d="M1908.5,1879.3c-1.6,2.3-3.3,3.3-5.4,3.6C1904.2,1881.1,1905.7,1879.9,1908.5,1879.3z"/>
	<path class="st0" d="M2085.4,1885.3c-1.2,1-2.4,2.1-4.3,3.7C2081.6,1885.7,2083.1,1885,2085.4,1885.3
		C2085.5,1885.4,2085.4,1885.3,2085.4,1885.3z"/>
</g>
</svg>
