<svg xmlns="http://www.w3.org/2000/svg" viewBox="0 0 330.33 586.04"><title>minime-white</title><g id="Layer_2" data-name="Layer 2"><g id="Layer_1-2" data-name="Layer 1"><path d="M57.15,586c-12.28-4.73-16.14-13.87-16.1-26.67q.43-162,.09-323.93c0-1.89-.47-4.63-1.73-5.51-3.21-2.22-6.32,0-6.33,4.08q0,36.49,0,73c0,12.66,0,25.33,0,38,0,10.62-6.92,18.1-16.53,18.07C6.76,363,.06,355.79,0,345c0-43.32-.11-86.65,0-130,.11-28.53,21.48-49.9,50-50.07,27-.17,54-.09,81,0,28.74.08,50.2,21.23,50.54,50.09.26,22.33.08,44.66.09,67,0,21,.07,42,0,63,0,9.16-4.39,15.16-12.12,17.4a16.3,16.3,0,0,1-20.44-12.51,39,39,0,0,1-.47-7c0-36,0-72-.14-108,0-1.77-.93-4.48-2.22-5.11-3.46-1.69-5.93.32-5.94,4.32q-.05,25.74,0,51.49c0,91.48-.13,183,.18,274.44,0,12.76-4.12,21.53-16.32,25.93h-9C104.94,582,99,575.17,99,563.5q.21-101.49.08-203c0-1.77,0-3.53,0-5.38H82.52v5.62c0,66.5-.17,133,.15,199.49C82.72,573,78.5,581.81,66.15,586Z" style="fill:#fff"/><path d="M206.15,586c-12.18-4.4-16.37-13.12-16.32-25.91.32-90.64.17-181.27.17-271.91v-5.83h34.37v31.33l2.59,1.66c.8-1.63,1.35-3.46,2.45-4.85q18.71-23.42,37.6-46.72c3.06-3.78,3.32-7.42.21-11.27q-19.45-24.11-38.88-48.24a42,42,0,0,0-3.63-3.31v32.76H189.65c0-5-.14-9.95,0-14.88.56-17.12-4.43-32.15-16.46-44.62a12.64,12.64,0,0,1-1.18-1.77c7.2-4.54,14.84-7.38,23.16-7.43,29.49-.16,59-.43,88.47.05,24.4.4,46.13,21.94,46.39,46.35.48,45.15.21,90.3.12,135.45A16.08,16.08,0,0,1,313.88,363c-9.32,0-16.57-7.15-16.63-16.94-.12-20.49,0-41,0-61.48q0-24.49,0-49c0-6.61-1.07-7.31-8.15-5,0,9.67,0,19.48,0,29.3,0,99.8-.13,199.6.16,299.4,0,12.77-3.77,22-16.07,26.69h-9c-12.05-4.15-16.57-12.62-16.51-25.26.31-66.16.14-132.32.14-198.48v-7.06h-16.6c0,2.33,0,4.3,0,6.27,0,66.16-.19,132.32.17,198.48.07,12.73-4.06,21.54-16.2,26Z" style="fill:#76318f"/><g id="Layer_2-2" data-name="Layer 2"><path d="M91,1.13l2.75,4.54,20.49,34,22.68,37.63,20.42,33.86,2.58,4.28a5.12,5.12,0,0,1,.25.49,7.61,7.61,0,0,1-1.54-.61l-2-.9-3.37-1.52-3.36-1.54-4.67-2.1-3.36-1.55c-.52-.25-1-.48-1.57-.71L137,105.49l-3.36-1.55-1.52-.68-2.08-.94-1.9-.88L124.85,100c-1.09-.49-2.24-1-3.36-1.55L120,97.73l-3.32-1.48-3.36-1.54-4.67-2.1-4.76-2.19-1.52-.69L99,88.25,95.67,86.7,94.15,86,92,85c-.36-.16-.72-.29-1.09-.43,0-.39,0-.78,0-1.17V1.62A2.72,2.72,0,0,1,91,1.13Z" style="fill:#fff;stroke:#fff;stroke-miterlimit:10"/><path d="M91,1.13a2.72,2.72,0,0,0-.12.47c0,.27,0,.53,0,.8v81c0,.39,0,.78,0,1.17h0c-.23.09-.47.16-.69.26l-3.09,1.4-11.4,5.19L58.8,99.1l-10.28,4.68-14.39,6.53-11.4,5.19c-.35.16-.72.29-1.08.44.12-.22.22-.44.35-.65L40.91,83.9,55.66,59.43,75.18,27,90.4,1.78c.15-.25.3-.49.46-.74Z" style="fill:#fff;stroke:#fff;stroke-miterlimit:10"/><path d="M90.9,157V85.61c0-.35,0-.7,0-1h0c.36.14.74.27,1.09.43.74.32,1.46.66,2.19,1l1.52.68L99,88.23l3.32,1.48,1.52.69,4.76,2.19,4.67,2.1,3.36,1.54L120,97.72l1.52.69,3.36,1.55,3.32,1.48,1.9.88,2.08.94,1.52.68,3.36,1.55,3.32,1.48,1.57.71c1.12.52,2.22,1,3.36,1.55l4.67,2.1,3.36,1.54,3.37,1.52,2,.9a7.61,7.61,0,0,0,1.54.61l.06.19-1.43.85-27.66,16.37" style="fill:#fff;stroke:#fff;stroke-miterlimit:10"/><path d="M36.47,124.92,22,116.35l-.37-.22,0-.19c.36-.15.73-.28,1.08-.44l11.4-5.19,14.38-6.53L58.79,99.1,75.7,91.42l11.4-5.19,3.09-1.4c.22-.09.46-.16.69-.24,0,.35,0,.7,0,1V157" style="fill:#fff;stroke:#fff;stroke-miterlimit:10"/><path d="M239,148.23c-18.12-.34-33.73-14-35.93-31.44-2.45-19.42,8.84-36.65,27.26-41.59,1.27-.34,2.52-.77,3.78-1.16h12c1.53.56,3,1.17,4.59,1.66,17.54,5.52,28.79,23.18,25.87,40.64C273.3,135.58,258,148.59,239,148.23" style="fill:#76318f;stroke:#76318f;stroke-miterlimit:10"/><path d="M239.94,1.13l2.75,4.54,20.49,34,22.68,37.63,20.42,33.86,2.58,4.28a5.12,5.12,0,0,1,.25.49,7.61,7.61,0,0,1-1.54-.61l-2-.9-3.37-1.52-3.36-1.54-4.67-2.1-3.36-1.55c-.52-.25-1-.48-1.57-.71l-3.32-1.48-3.36-1.55-1.52-.68-2.08-.94-1.9-.88L273.76,100c-1.09-.49-2.24-1-3.36-1.55l-1.52-.69-3.32-1.48L262.2,94.7l-4.67-2.1-4.76-2.19-1.52-.69-3.32-1.48-3.36-1.55L243.06,86l-2.19-1c-.36-.16-.72-.29-1.09-.43,0-.39,0-.78,0-1.17V1.62A2.72,2.72,0,0,1,239.94,1.13Z" style="fill:#76318f;stroke:#76318f;stroke-miterlimit:10"/><path d="M239.94,1.13a2.72,2.72,0,0,0-.12.47c0,.27,0,.53,0,.8v81c0,.39,0,.78,0,1.17h0c-.23.09-.47.16-.69.26L236,86.23l-11.4,5.19L207.71,99.1l-10.28,4.68L183,110.31l-11.4,5.19c-.35.16-.72.29-1.08.44.12-.22.22-.44.35-.65L189.83,83.9l14.74-24.47L224.09,27,239.31,1.78c.15-.25.3-.49.46-.74Z" style="fill:#76318f;stroke:#76318f;stroke-miterlimit:10"/><path d="M239.81,157V85.61c0-.35,0-.7,0-1h0c.36.14.74.27,1.09.43.74.32,1.46.66,2.19,1l1.52.68L248,88.23l3.32,1.48,1.52.69,4.76,2.19,4.67,2.1,3.36,1.54,3.32,1.48,1.52.69,3.36,1.55,3.32,1.48,1.9.88,2.08.94,1.52.68,3.36,1.55,3.32,1.48,1.57.71c1.12.52,2.22,1,3.36,1.55l4.67,2.1,3.36,1.54,3.37,1.52,2,.9a7.61,7.61,0,0,0,1.54.61l.06.19-1.43.85-27.66,16.37" style="fill:#76318f;stroke:#76318f;stroke-miterlimit:10"/><path d="M185.38,124.92l-14.49-8.57-.37-.22,0-.19c.36-.15.73-.28,1.08-.44l11.4-5.19,14.38-6.53L207.7,99.1l16.91-7.68L236,86.22l3.09-1.4c.22-.09.46-.16.69-.24,0,.35,0,.7,0,1V157" style="fill:#76318f;stroke:#76318f;stroke-miterlimit:10"/></g></g></g></svg>