<svg xmlns="http://www.w3.org/2000/svg" viewBox="0 0 213.25 192.65"><title>minime-white</title><g id="Layer_2" data-name="Layer 2"><g id="Layer_1-2" data-name="Layer 1"><path d="M148,189.91a14.72,14.72,0,0,0-2.05-8.44c-1.47-2.4-4.41-3.58-5.66-6.82,5.19-.87,8.65-6.33,14.55-4.52,2.35-5.68,2.15-11.48,1.32-17s-3.05-10.68-4.89-16.74c4.87,1.34.21,7.43,5.52,7.55,1.33-3.2-1.68-6.32-.32-9.77,4.38,2.54,2.25,7.16,3.41,10.88,2.53-.25,4.61-.86,6.1-3.36-1.63-7.49-6.28-11.06-15.11-9.83,4.09-2.9,4.09-2.9,13-1.05,3.66-1.16,5.58-5.65,9.73-5.61,1.49-2.05.25-4.67,2.34-6.32.8,4.31-1,8.29-.84,12.44,3.48-10.17,10-19.21,11.18-30.19l-.12.12c1.66,6.16,5.88,11.59,4.89,18.51,6.17,5,11.55,10.25,8.41,18.68,1.86,2.32,5,2.84,4.6,6.18,7.4.45,6.26,6.82,7.55,11,4.34,13.94-.15,26-11.86,33.59-10.95,7.07-21.38,2.72-29.56-7.41.43-1.09,2.94.06,3-1.88,5.61-2,7.59-10.65,3.77-16.37.46-4-1.81-6.9-4.43-11.13.56,5.08,3.61,7.61,4.47,11.05,1.62,6.16.63,11.74-3.71,16.57-4.87.89-9.27-.74-13.56-3,1.59,2.91,4.6,3.25,6.92,4.64m13.37-49.56c-2,.91-3.59,1.4-4.83,3,7.7,1.08,15.12,2.85,23.12-1.11a2.58,2.58,0,0,0-.2-3.07c-2.16,0-3.24,2-4.77,2.82C188.92,132.06,184.24,134.4,180.07,132.09Zm-11.3,8.85-1.07,7.4a5.43,5.43,0,0,0,4.29,1.44Z" style="fill:#fff"/><path d="M118.23,70.43c-.26-3-2.13-4.38-3.23-5.85-1.09-1.73,1.44-2.37.36-4.47-5.54,1.32-11.13-1.7-17.71-.12,3.17-2.48,19.12-4.25,22.45-3.13-3.48-2.86-4.86-7.44-8.92-9.85,1.7-2.08,4.56-2,6.18-4.81.25-5.75-2.75-11.55-3.7-17.73-.72-4.67.07-6.47,4.47-7.32,1.43,1.24.75,3.16,1.82,5.3,1.12,1.45,3.13,3.14,4.08,5.89,2.56-2.34-.85-4.7.39-5.63,1.78-2.59,3.4,0,4.72-1.38.64-3.24-1.47-5.11-3.68-7.13l-6.58-.53c-.2-3,1.66-4.56,3.64-5.48,3.5-1.62,6.25-3.32,4.58-8.2,2,4.83,4.74,8.42,4.39,14.31-.39,6.62-.81,14,1.94,20.62a3.8,3.8,0,0,1,0,2.36c-1.52,7.88-2.63,15.77.22,23.71-1.54,2.32-3.83,4.3-3.16,7.76,1.92,2.88,4,6.07,6.15,9.2,1.22,1.77,3.12,2.18,5.14,2.65,6,1.38,12,2.88,17.88,4.63,6.67,2,13.24,4.28,20.21,6.55L177,111.48a33.33,33.33,0,0,1,0-12.38c-3-.78-5.48.18-8.21.62l-2.87,3.7c-3.93,1-7-.87-10-2.37l-5.33,1.32c-3.39-.8-4.25-4.29-6.69-5.78a5.31,5.31,0,0,0-6,1.68c-7.79,9.52-18.71,8.86-29.3,9.13-2.33.06-4.63.12-7,.34-3.54.33-3.75.13-5.82-3.66-2.14,3.23-3.77,0-6.45-.47-6.93,2.28-13.17,7.89-21.45,8.86-2.09,8.17-6.49,15.21-2.65,24.43,4.45,10.71,6.3,22.41,7.64,34,.14,1.25.9,2.58-1.18,4.44-7.78-15.08-8.07-32.59-16.26-46.61-3-1.11-4.23.5-5.77,1.83-4,3.43-7.57,7.36-13.65,7.3-3.09,0-5.28,2.52-6.67,5.4-1.88,3.87-3.81,7.71-5.72,11.58H17.77C17.36,148.37,9,150,5.91,144.16c-1.22-.38-4,.18-5.91-3C8.83,138,17.05,134,26.53,131.71c-2.39-2.93-5.29-1-8-2.44,6.74-3.52,14.31-4.64,19.62-10.59h3.31c2.42-1.12,3.55-3.21,5.14-5.15-2.06-3.73-4.45-7.38-4.87-12,2.33-4.74,7-7.78,9.7-12.5,1.23,4.05-1.16,8.19.79,11.89,3.48,2.64,5.14-1,7.82-2.05,2.52,3,5.69,4.21,9.76,2.3,4.19-5.39,5.32-12.14,6.85-19,2.93.76,4.89,5.65,8.25,1.29a10.52,10.52,0,0,1,1.85,7.26c-1.64,2.33-3.91,2.51-6.28,2.33-2.75,2.58-5,5.35-6,9.21,3.19,1.63,5.64-1.86,8.45-.73L87,96.48c2.07.47.76,2.17,1.86,3.27H97.1L101,95c-1.93-5.19.27-12-6.78-16.75,2,6.3,3.32,11.71,1.36,17.41-3.44-1.5-2.77-4.22-2.3-7.08,1.18-7.14-1.2-11.34-6.88-12.53a3.7,3.7,0,0,0-2.63,3.22c-.46-8.79,7.74-11.31,12.17-16.69,3.29,1.27,2.13,4.27,3,6.15-.59,2.51-3.21,3.95-2.3,7.07,2.77,4.81,7.23,4.35,11.84,2.77,2.3.45,4.33,2.55,7,.33C116.86,76.25,116.5,72.68,118.23,70.43Zm10.12-15.08c2.5-7.28.39-13.82-1.84-20.59.47,5.47-4.29,9-4.86,14.31C124,50.95,124.79,54.2,128.35,55.35Z" style="fill:#fff"/><path d="M41.37,87.43c-10.3,0-16.73-7.75-25.77-11.16-.8-.21-1.81,1.52-4.4,1.37,2.38-3.44,5.29-4.15,8.3-4.32C26,79.07,34.59,80.83,41.37,87.43Z" style="fill:#fff"/><path d="M36.38,72.94a6,6,0,0,1,4.91.07c6.25,2.75,14,1.33,19.27,6.77.57.58,1.34,1,1.23,2C58.4,83.3,45.42,78.85,36.38,72.94Z" style="fill:#fff"/><path d="M87,26c2.19-1.09,4.35-1.81,6.88-1.19,0,2.25-.84,3.71-2.9,4.07S87.5,28.41,87,26Z" style="fill:#fff"/><path d="M63.68,67.94c2.53,1.7,6.19,1.53,8.78,5.89C68.18,72.27,65.66,70.55,63.68,67.94Z" style="fill:#fff"/><path d="M16.34,87.56c2.44.4,5.14-.45,7.82,1.48C20.59,91.69,18.48,89.42,16.34,87.56Z" style="fill:#fff"/><path d="M183.87,101.36c-.24-1.92-1.11-3.86.49-6.07,2.51,1.48,2,3.78,1.83,5.94l.11-.11c-.87-.25-1.76-.74-2.55.18Z" style="fill:#fff"/><path d="M58.14,57.42l.81,7.07C55.64,61.84,56.31,59.71,58.14,57.42Z" style="fill:#fff"/><path d="M80.48,65c.62,2.3-.11,4-2.24,5.47-.48-1.45-.08-3.06-1.16-4.16C78.19,65.46,79.1,64.74,80.48,65Z" style="fill:#fff"/><path d="M102.57,45.26c1.66-2,3.22-3,5.74-1.2C105.65,46.17,105.65,46.17,102.57,45.26Z" style="fill:#fff"/><path d="M98.89,23.92c.91,1.71.5,2.93-1.19,3.85C95.09,24.5,95.09,24.5,98.89,23.92Z" style="fill:#fff"/><path d="M6.9,95.28A7.6,7.6,0,0,1,1.53,98.9,7.49,7.49,0,0,1,6.9,95.28Z" style="fill:#fff"/><path d="M183.75,101.29,179.44,105c.54-3.33,2.07-4,4.41-3.68Z" style="fill:#fff"/></g></g></svg>