<svg xmlns="http://www.w3.org/2000/svg" viewBox="0 0 957.37 957.52"><title>mvp-alpha-white</title><g id="Layer_2" data-name="Layer 2"><g id="Layer_1-2" data-name="Layer 1"><path d="M1.46,442.13C17.92,224.12,180.17,45.51,396.06,7.58c21.82-3.83,44.15-4.8,66.24-7.1L466.81,0h23.52c13.15,1,26.33,1.58,39.43,3q115.11,12.47,212,76A15.23,15.23,0,0,1,743,80l-40.84,40.76c-8.89,8.87-17.72,17.8-26.72,26.56a4.16,4.16,0,0,1-3.87.34Q574,91.58,461.6,96.08c-167.75,6.76-314,125.59-354.22,288.53-24.93,101-11.09,196.87,40.2,287.37.49.86.52,2.76-.07,3.34q-33.39,33.64-67,67.1c-.22.22-.49.4-1,.81-2.11-3.27-4.23-6.43-6.23-9.66C18,644.16-6.46,547,1.46,442.13" style="fill:#fff"/><path d="M801.86,266.33a47.91,47.91,0,1,1,48,47.9A47.8,47.8,0,0,1,801.86,266.33Z" style="fill:#fff"/><path d="M840.56,504a9.09,9.09,0,0,0-2.94-2.21,8.23,8.23,0,0,0-3.55-.8H819.92v20.74h14.53a7.62,7.62,0,0,0,3.62-.86,8.8,8.8,0,0,0,2.78-2.3,10.85,10.85,0,0,0,1.79-3.33,12.19,12.19,0,0,0,.64-3.94,11.06,11.06,0,0,0-2.72-7.3Z" style="fill:#fff"/><polygon points="741.52 524.74 759.95 524.74 750.8 502.27 741.52 524.74" style="fill:#fff"/><path d="M488.14,479.21a15,15,0,0,0-9.58,3.93Q311.45,649.83,144.74,816.91c-.84.84-.86,4,0,4.77C233.85,907,340.16,952.93,463.46,957.2c106.63,3.7,204.53-25.32,291.27-87.52C870.84,786.43,937,672.77,954.45,530.94c1.65-13.38,2-26.91,2.92-40.38V479Q722.76,479,488.14,479.21Zm278.73,63.26L761,528.26H740.56l-5.82,14.21h-4.8l19-45.44h3.78l18.88,45.44Zm42,0H778.13V497h4.48V538.5h26.24Zm38-25.76a14.64,14.64,0,0,1-2.69,4.58,13.51,13.51,0,0,1-4.13,3.2,11.65,11.65,0,0,1-5.34,1.22H819.92v16.77h-4.48V497h18.82a11.8,11.8,0,0,1,5.41,1.25,14.25,14.25,0,0,1,4.26,3.26,15.52,15.52,0,0,1,2.82,4.58,13.87,13.87,0,0,1,1,5.18A15.43,15.43,0,0,1,846.8,516.71Zm44.29,25.76h-4.42V521.22H859.73v21.25h-4.48V497h4.48v20.22h26.94V497h4.42Zm43.39,0-5.89-14.21H908.17l-5.82,14.21h-4.8l19-45.44h3.78l18.88,45.44Z" style="fill:#fff"/><polygon points="909.13 524.74 927.57 524.74 918.41 502.27 909.13 524.74" style="fill:#fff"/></g></g></svg>