<svg xmlns="http://www.w3.org/2000/svg" viewBox="0 0 489.7 704.95"><title>poc-dapp-white</title><g id="Layer_2" data-name="Layer 2"><g id="Layer_1-2" data-name="Layer 1"><path d="M21.33,435.69c24.71-11.53,45.86,1.1,58.44,25.8A114.57,114.57,0,0,0,98.46,488L226.59,601.3c8.07,6.66,19.94,5.78,27-.28l123.8-109.08c16.51-15.35,30.71-39,32.18-63.3-.06-.91-.1-1.82-.1-2.74v-7.52c-3.24-45.33-41-81.54-87.07-82.16h-.85c-17.41,0-37.56,7-51.08,15.77-1.89,1.22-7.35,4.2-13.14,7.29a37,37,0,0,1-34.94-.1c-5.79-3.12-11.23-6.09-13-7.19-13.75-8.41-33.71-15.77-51.12-15.77h-.81c-35.31.47-64.88,22.3-79.5,52.29C68.21,408.42,46.86,423.33,23,413.17,1,403.84-4.49,378,3.41,359.22l.21-.49a168.6,168.6,0,0,1,152.74-102.5h1.88c34.13,0,63.86,12,81.5,21.15l.47-.24V40a40,40,0,1,1,80,0V256.23h3.25l1.38,0V76.19a40,40,0,1,1,80,0V278.51c1.56.89,3.1,1.8,4.63,2.74V111.84a40,40,0,0,1,80,0V416c.13,2.47.21,4.95.23,7.43.19,24.73-6.06,50.38-18.07,74.18a189.7,189.7,0,0,1-39.77,52.94l-.78.72-.8.7L266.4,695.29a39.06,39.06,0,0,1-51.34.08L45.47,547.95l-2.61-2.31-2.4-2.53a193.61,193.61,0,0,1-34.26-50l-.24-.5C-5,469.2.51,445.4,21.33,435.69Z" style="fill:#fff"/></g></g></svg>