<svg xmlns="http://www.w3.org/2000/svg" viewBox="0 0 1309 758"><title>projects-bg</title><g id="Layer_2" data-name="Layer 2"><g id="Layer_1-2" data-name="Layer 1"><path d="M502,0h807V758H506c-19.06-22.6-38.06-45.27-57.22-67.79C434.15,673,419.24,656,404.56,638.88c-19.12-22.36-38.09-44.86-57.22-67.21-16.53-19.31-33.26-38.44-49.77-57.75-17-19.82-33.71-39.82-50.64-59.66q-32.84-38.47-65.83-76.82l-.21-1.48c7-8,14-16,20.94-24.11q51.81-60.52,103.55-121.1,38.26-44.83,76.37-89.79Q441.83,70.45,502,0Z" style="fill:#2c1a54"/><path d="M181.08,377.44q32.92,38.4,65.84,76.82c16.94,19.84,33.69,39.84,50.64,59.66,16.52,19.31,33.25,38.45,49.77,57.75,19.13,22.35,38.1,44.85,57.22,67.21C419.24,656,434.15,673,448.78,690.21,467.94,712.73,486.94,735.4,506,758H266a73.17,73.17,0,0,0-4.49-6.54q-36.3-42.6-72.71-85.12-49.71-58.1-99.47-116.16c-9.32-10.87-18.8-21.61-28.21-32.4,1.72-2.24,3.34-4.56,5.17-6.71q45.17-53,90.4-105.94C164.69,395.79,172.94,386.67,181.08,377.44Z" style="fill:#2b8047"/><path d="M502,0Q441.86,70.48,381.73,141q-38.23,44.85-76.37,89.79-51.71,60.6-103.55,121.1c-6.92,8.09-14,16.07-20.94,24.11-5.13-5.66-10.39-11.2-15.36-17q-40.93-47.7-81.77-95.49c-6.59-7.68-13.47-15.11-20.22-22.66l.51-2.71c2-2,4.16-3.85,6-6q40.41-47.55,80.75-95.16,48.41-56.81,97-113.47C254.31,15.79,260.59,7.84,267,0Z" style="fill:#193a64"/><path d="M61.12,517.78c9.41,10.8,18.89,21.53,28.21,32.4q49.78,58,99.47,116.16,36.39,42.53,72.71,85.12A73.17,73.17,0,0,1,266,758H32a34.29,34.29,0,0,0-3-5.13c-6.16-7.4-12.34-14.8-18.75-22C7.12,727.35,3.44,724.28,0,721q0-66.5,0-133c1.43-1.38,3-2.66,4.26-4.16,12-14,23.83-28.13,35.83-42.13C47,533.64,54.11,525.75,61.12,517.78Z" style="fill:#1f5d37"/><path d="M267,0c-6.41,7.84-12.69,15.79-19.27,23.5Q199.3,80.28,150.76,137,110.29,184.47,70,232.13c-1.82,2.14-4,4-6,6-2.42-2-5.15-3.7-7.19-6-6.49-7.34-12.67-14.95-19.06-22.38Q18.93,187.82,0,166,0,103,0,40L34,0Z" style="fill:#245182"/><path d="M61.12,517.78c-7,8-14.12,15.87-21,23.93-12,14-23.86,28.1-35.83,42.13C3,585.34,1.43,586.62,0,588Q0,450.5,0,313a79.5,79.5,0,0,0,5.72-5.52c13.49-15.81,26.85-31.73,40.39-47.5,5.62-6.54,11.59-12.77,17.4-19.15,6.75,7.55,13.63,15,20.22,22.66Q124.68,311.18,165.5,359c5,5.79,10.24,11.33,15.36,17l.21,1.48c-8.14,9.22-16.39,18.35-24.39,27.69Q111.42,458,66.29,511.07C64.46,513.22,62.84,515.54,61.12,517.78Z" style="fill:#0c4e64"/><path d="M63.51,240.83C57.7,247.2,51.73,253.44,46.11,260c-13.54,15.77-26.9,31.69-40.39,47.5A79.5,79.5,0,0,1,0,313q0-73.5,0-147,18.89,21.86,37.77,43.73c6.39,7.43,12.57,15,19.06,22.38,2,2.32,4.78,4,7.19,6Z" style="fill:#1b6683"/><path d="M34,0,0,40V0Z" style="fill:#4b81b1"/><path d="M0,721c3.44,3.28,7.12,6.35,10.28,9.89,6.41,7.18,12.59,14.58,18.75,22A34.29,34.29,0,0,1,32,758H0Q0,739.5,0,721Z" style="fill:#113f33"/></g></g></svg>