<svg xmlns="http://www.w3.org/2000/svg" viewBox="0 0 465.95 506.89"><title>vault-white</title><g id="Layer_2" data-name="Layer 2"><g id="Layer_1-2" data-name="Layer 1"><path d="M.1,232.76q0-97.48.06-195A62.45,62.45,0,0,1,1.53,23.93c3-13.19,13-21.2,28.14-23a120.36,120.36,0,0,1,14-.89Q232.08,0,420.54,0A104.75,104.75,0,0,1,439.4,1.71c15.94,2.94,23.6,11.36,25.46,27.6a162.55,162.55,0,0,1,1,18.43q.09,183.71,0,367.42c0,6.48-.34,13-1,19.44C463,455.08,454,464,433.39,465.55c-10.95.81-22,.88-33,1-3.42,0-4.47,1-4.69,4.46a182.56,182.56,0,0,1-2.56,22.79c-1.62,8.43-5.87,12.49-14.37,12.7-19,.46-38,.4-56.92,0-9-.2-14.9-5.31-16.84-14.31a177.37,177.37,0,0,1-3.59-19.61c-.43-4.36-2.29-4.91-6-4.89-29.16.14-58.32.09-87.48.09-12.5,0-25,.14-37.49-.09-4.77-.09-6.48,1.9-6.76,6.42-.37,6-1,12-1.92,17.87-1.46,9.45-5.74,14.26-14.95,14.52q-29.18.83-58.41.14c-8.87-.2-13.39-4.46-15.27-13.13A214.18,214.18,0,0,1,70,471.25c-.38-3.43-1.44-4.79-5.18-4.75-11,.14-22.07.63-33-.51C10.89,463.79.16,451.23.13,430.21Q0,340.73,0,251.25q0-9.25,0-18.5ZM240.86,38.56v0q-78,0-156,0c-23.5,0-39.92,16.49-40.12,39.9-.08,10,.16,20-.14,30a9.07,9.07,0,0,1-3,6c-8.14,6.67-12.4,15.11-12.52,25.57s-.1,21,0,31.49a32.19,32.19,0,0,0,12.61,26,8.33,8.33,0,0,1,2.93,5.58q.29,36.24,0,72.48a7.61,7.61,0,0,1-2.54,5.25c-8.77,6.87-13,15.78-13,26.83,0,10.16-.06,20.33,0,30.49.06,10.85,4.36,19.58,12.9,26.4a8.47,8.47,0,0,1,2.67,5.66c.31,7.49,0,15,.15,22.49.28,18.53,14.38,35,32.81,37.11,9.71,1.13,19.62.78,29.43.78q144.47.08,288.94,0c23.8,0,40.85-16.85,40.86-40.49q.09-155.47,0-310.93c0-24.23-16.72-40.64-41-40.65Q318.34,38.54,240.86,38.56Z" style="fill:#fff"/><path d="M421,234.31q0,77.24,0,154.48c0,16.84-9.11,26-25.79,26H89.3c-20.91,0-29.08-8.12-29.09-28.88,0-9-.07-18,0-27,0-2.68-.56-3.94-3.53-4.7-7.61-1.95-11.71-7.52-11.79-15.33q-.16-15.75,0-31.5c.07-8.84,4.06-13.86,12.37-16.57,1.22-.4,2.81-2.24,2.81-3.42.15-32,.1-64,.16-96,0-2.41-.73-3.31-3.22-3.93-7.84-1.94-12-7.43-12.12-15.58-.12-10.66-.08-21.33,0-32,.08-7.89,4-13.36,11.68-15.38,3.2-.84,3.68-2.31,3.66-5.14-.11-13.33-.07-26.66,0-40C60.25,63.93,70,54,85.44,54q155.23,0,310.47,0C411.44,54,421,63.68,421,79.33Q421.07,156.82,421,234.31ZM241,399.22v0q77.23,0,154.46,0c7.57,0,9.89-2.32,9.92-9.8.06-14.16,0-28.33,0-42.49q0-133.22,0-266.44c0-8-2.39-10.73-9.63-10.73q-155,0-309.93,0c-7.34,0-9.9,2.59-9.93,9.94-.05,15.83,0,31.66,0,47.49,0,3.83,1.37,9.12-.58,11.08s-7.34,1.37-11.19,1.27c-3.5-.08-4.18,1.38-4.07,4.45.23,6.49.16,13,.24,19.49.1,9.28.13,9.57,9.37,9,5-.3,6.43,1,6.4,6.16-.25,38.66-.15,77.31-.14,116,0,11.55,0,11.71-11.52,11.74-3.72,0-4.48,1.45-4.34,4.74.25,5.66.14,11.33.21,17C60.4,339,60.4,339,71,339.07a3,3,0,0,0,.5,0c3.53-.58,4.5.94,4.46,4.41-.18,14.66-.08,29.33-.07,44,0,9.73,2,11.75,11.63,11.75Z" style="fill:#fff"/></g><g id="Layer_2-2" data-name="Layer 2"><g id="Layer_2-3" data-name="Layer 2"><g id="Group_1" data-name="Group 1"><g id="Layer_4_Image" data-name="Layer 4 Image"><path d="M331.81,239.11c-.18,2.58-.24,5.18-.56,7.75-3.35,27.21-16,49-38.31,65a88.41,88.41,0,0,1-55.87,16.79c-23.65-.82-44-9.63-61.15-26a1,1,0,0,1,0-.92q32-32,64-64a2.88,2.88,0,0,1,1.84-.75q45-.06,90,0Z" style="fill:#fff"/><path d="M242.22,145c2.52.19,5.05.3,7.56.58a91,91,0,0,1,40.67,14.58l.24.19-7.83,7.82c-1.71,1.7-3.4,3.41-5.13,5.09a.8.8,0,0,1-.74.07,73.52,73.52,0,0,0-108.23,45.45c-4.78,19.37-2.13,37.77,7.71,55.13a.69.69,0,0,1,0,.64Q170,281,163.6,287.42l-.19.16c-.4-.63-.81-1.23-1.2-1.85a91.83,91.83,0,0,1,61.92-139.27c4.19-.73,8.47-.92,12.71-1.36l.87-.09Z" style="fill:#fff"/><path d="M302,196.09a9.17,9.17,0,1,1,0,.06S302,196.11,302,196.09Z" style="fill:#fff"/></g></g></g></g></g></svg>