<?xml version="1.0" encoding="utf-8"?>
<!-- Generator: Adobe Illustrator 21.1.0, SVG Export Plug-In . SVG Version: 6.00 Build 0)  -->
<svg version="1.1" id="Layer_1" xmlns="http://www.w3.org/2000/svg" xmlns:xlink="http://www.w3.org/1999/xlink" x="0px" y="0px"
	 viewBox="0 0 265.6 266.3" style="enable-background:new 0 0 265.6 266.3;" xml:space="preserve">
<style type="text/css">
	.st0{fill:#FFFFFF;}
</style>
<title>community</title>
<g id="Layer_2">
	<g id="Layer_1-2">
		<path class="st0" d="M82.3,74.9L64.7,55c11-10.8,25-18.5,41.4-22.9c5.5,10.8,14.1,17.1,26.5,17.1c12.2,0,20.9-5.7,26.2-17
			c14.7,3.8,28.3,10.9,39.8,20.7l-19,19C147.3,50.1,114.9,50.7,82.3,74.9z"/>
		<path class="st0" d="M153,21.4c-0.2,11.4-9.5,20.5-20.9,20.3c0,0-0.1,0-0.1,0c-11.4-0.2-20.3-10-20-21.7
			C112.6,8.4,122.4-0.6,134,0c0.2,0,0.5,0,0.7,0C144.5,0.7,153.3,10.6,153,21.4z"/>
		<path class="st0" d="M74.9,183.7L55,201.3c-10.8-11-18.5-25-22.9-41.4c10.8-5.5,17.1-14.1,17.1-26.5c0-12.2-5.7-20.8-17-26.2
			C36,92.6,43.1,79,52.9,67.4l19,19C50.1,118.8,50.7,151.1,74.9,183.7z"/>
		<path class="st0" d="M21.4,113.1c11.4,0.2,20.5,9.5,20.3,20.9c0,0,0,0,0,0c-0.2,11.4-10,20.4-21.7,20C8.4,153.4-0.6,143.6,0,132
			c0-0.2,0-0.4,0-0.6C0.7,121.6,10.6,112.8,21.4,113.1z"/>
		<path class="st0" d="M182.8,191.4l17.6,19.9c-11,10.8-25,18.5-41.4,22.9c-5.5-10.8-14.1-17.1-26.5-17.1c-12.2,0-20.8,5.7-26.2,17
			c-14.7-3.8-28.3-10.9-39.8-20.7l19-19C117.9,216.2,150.2,215.6,182.8,191.4z"/>
		<path class="st0" d="M112.2,244.9c0.2-11.4,9.5-20.5,20.9-20.3c0,0,0,0,0.1,0c11.4,0.2,20.4,10,20,21.7
			c-0.6,11.6-10.4,20.5-22,19.9c-0.2,0-0.5,0-0.7,0C120.7,265.6,111.9,255.7,112.2,244.9z"/>
		<path class="st0" d="M190.8,83.3l19.9-17.6c10.8,11,18.5,25,22.9,41.4c-10.8,5.5-17.1,14.1-17.1,26.5c0,12.2,5.7,20.9,17,26.2
			c-3.8,14.7-10.9,28.3-20.7,39.8l-19-19C215.5,148.2,214.9,115.9,190.8,83.3z"/>
		<path class="st0" d="M244.3,153.9c-11.4-0.2-20.4-9.5-20.3-20.9c0,0,0,0,0,0c0.2-11.4,10-20.3,21.7-20c11.6,0.6,20.5,10.4,19.9,22
			c0,0.2,0,0.5,0,0.7C265,145.4,255.1,154.2,244.3,153.9z"/>
	</g>
</g>
</svg>
