<svg xmlns="http://www.w3.org/2000/svg" viewBox="0 0 560.94 913.8"><title>eth</title><g id="Layer_2" data-name="Layer 2"><g id="Layer_1-2" data-name="Layer 1"><path d="M280.89.37Q286.46,9.55,292,18.73L374.88,156.2l91.74,152.24,82.6,137q5.22,8.66,10.43,17.32c.38.64.69,1.32,1,2a30.8,30.8,0,0,1-6.24-2.47c-2.65-1.19-5.28-2.46-7.93-3.66-4.54-2.06-9.11-4.07-13.65-6.13s-9.05-4.19-13.6-6.25c-6.28-2.85-12.6-5.64-18.88-8.49-4.54-2.06-9.06-4.18-13.59-6.27-2.11-1-4.24-1.93-6.36-2.88-4.47-2-9-4-13.42-6s-9.06-4.18-13.59-6.26c-2-.94-4.09-1.85-6.14-2.77-2.8-1.26-5.62-2.51-8.41-3.79-2.57-1.17-5.13-2.39-7.7-3.55-4.47-2-9-4-13.43-6s-9.06-4.18-13.59-6.26c-2-.94-4.09-1.86-6.14-2.78-4.47-2-9-4-13.42-6s-9.05-4.19-13.6-6.25c-6.28-2.85-12.6-5.64-18.88-8.49-6.43-2.92-12.84-5.9-19.27-8.85q-3.06-1.41-6.13-2.78c-4.47-2-9-4-13.42-6s-9.06-4.18-13.59-6.26c-2-.94-4.09-1.85-6.14-2.77-3-1.33-5.9-2.69-8.87-4-1.44-.63-2.93-1.17-4.4-1.75,0-1.58.07-3.16.07-4.74q0-163.85,0-327.7c0-1.08,0-2.17,0-3.24A11,11,0,0,1,280.89.37Z" style="fill:#313131"/><path d="M280.89.37a11,11,0,0,0-.48,1.89c-.08,1.08,0,2.16,0,3.24q0,163.85,0,327.7c0,1.58,0,3.16-.07,4.74h0c-.93.35-1.89.65-2.79,1.06-4.17,1.88-8.34,3.78-12.5,5.68l-46.13,21-68.41,31.08-41.58,18.92L50.71,442.11q-23.07,10.48-46.13,21c-1.43.65-2.92,1.19-4.38,1.79.47-.88.89-1.78,1.4-2.64q38.26-63.5,76.54-127l59.64-99,79-131.05L278.34,3c.6-1,1.21-2,1.86-3Z" style="fill:#838383"/><path d="M280.3,338c1.47.58,3,1.11,4.4,1.75,3,1.3,5.91,2.66,8.87,4,2,.92,4.1,1.84,6.14,2.77,4.53,2.08,9.05,4.2,13.59,6.26s9,4,13.42,6q3.07,1.38,6.13,2.78c6.42,2.95,12.83,5.93,19.27,8.85,6.28,2.86,12.59,5.64,18.88,8.49,4.54,2.06,9.06,4.19,13.6,6.25s8.95,4,13.42,6c2,.92,4.1,1.84,6.14,2.78,4.53,2.08,9.05,4.2,13.59,6.26s9,4,13.43,6c2.58,1.16,5.13,2.38,7.7,3.55,2.8,1.27,5.61,2.52,8.41,3.79,2,.92,4.1,1.83,6.14,2.77,4.53,2.08,9.05,4.19,13.59,6.26s8.95,4,13.42,6c2.12,1,4.25,1.91,6.36,2.88,4.53,2.09,9,4.21,13.59,6.27,6.28,2.85,12.59,5.64,18.88,8.49,4.54,2.06,9.06,4.19,13.6,6.25s9.11,4.08,13.65,6.13c2.65,1.2,5.27,2.46,7.93,3.66a30.8,30.8,0,0,0,6.24,2.47l.25.76-5.8,3.45L443.25,535.15,318.46,608.9q-17.93,10.6-35.87,21.19a23.41,23.41,0,0,1-2.22,1q0-144.46,0-288.91c0-1.41,0-2.83-.06-4.24Z" style="fill:#131313"/><path d="M280.3,338c0,1.41.06,2.83.06,4.24q0,144.46,0,288.91c-.81-.39-1.65-.74-2.43-1.19Q259.45,619,241,608.1l-81.19-48L60.14,501.2,1.51,466.53,0,465.62l.2-.75c1.46-.59,2.95-1.14,4.38-1.79q23.07-10.47,46.13-21l58.18-26.43,41.58-18.92,68.41-31.08,46.13-21c4.17-1.9,8.33-3.8,12.5-5.68C278.42,338.61,279.37,338.31,280.3,338Z" style="fill:#313131"/><path d="M280.36,684.61l30.29-17.91,109.17-64.47L501.48,554l56.09-33.12a9.74,9.74,0,0,1,2.8-1.39,6.68,6.68,0,0,1-1.31,2.29l-24,33.8-81.8,115.2L336.66,835q-27.17,38.26-54.35,76.52c-.57.8-1,1.76-1.92,2.23,0-1.66,0-3.33,0-5q0-38.45,0-76.89Q280.35,758.26,280.36,684.61Z" style="fill:#303030"/><path d="M280.36,684.61q0,73.65,0,147.3,0,38.45,0,76.89c0,1.66,0,3.33,0,5a28.74,28.74,0,0,1-1.94-2.22q-13.09-18.41-26.15-36.84L200,801l-44.06-62.09-55-77.56L58.57,601.74,12.35,536.6q-5.06-7.13-10.11-14.25a4.3,4.3,0,0,1-1.17-2.22c.79-.18,1.29.33,1.82.64q9.47,5.57,18.92,11.16l104.88,62,63.17,37.34L278,683.27C278.75,683.74,279.56,684.17,280.36,684.61Z" style="fill:#838383"/></g></g></svg>