<svg xmlns="http://www.w3.org/2000/svg" viewBox="0 0 130.06 57.48"><title>github</title><g id="Layer_2" data-name="Layer 2"><g id="Layer_1-2" data-name="Layer 1"><g id="Ebene_1"><g id="_153574520" data-name=" 153574520"><path id="_153577136" data-name=" 153577136" d="M16.67,15.47a20,20,0,0,0,7-1.51v6.48a24,24,0,0,1-2.52.69,8.24,8.24,0,0,1,.5,2.7,10.8,10.8,0,0,1-2.42,7A9.58,9.58,0,0,1,13,34.4a2.55,2.55,0,0,0-2.51,2.7,2.35,2.35,0,0,0,.82,1.63,5.07,5.07,0,0,0,3.14,1.51q9,1.38,9,7.48,0,9.75-11.63,9.75a16.17,16.17,0,0,1-7.86-1.7A7.14,7.14,0,0,1,0,49q0-5.28,5.85-7.23v-.13a4.41,4.41,0,0,1-2.14-4q0-3.52,2-4.4v-.12A7.2,7.2,0,0,1,2.14,30,10.27,10.27,0,0,1,3.58,16.79,10.5,10.5,0,0,1,10.94,14,11.35,11.35,0,0,1,16.67,15.47Zm.25,33.08h0q0-3.21-5.28-3.21-5.09,0-5.09,3.33t5.53,3.27Q16.92,51.94,16.92,48.55ZM7.23,24.4h0q0,4.34,4,4.34T15,24.34a5.54,5.54,0,0,0-.88-3.14,3.47,3.47,0,0,0-3-1.45Q7.23,19.75,7.23,24.4Z"/><path id="_153577064" data-name=" 153577064" d="M30.31,9.37A4.1,4.1,0,0,1,27.2,8a4.64,4.64,0,0,1-1.29-3.27A4.72,4.72,0,0,1,27.2,1.38,4.1,4.1,0,0,1,30.31,0a4,4,0,0,1,3,1.38,4.72,4.72,0,0,1,1.29,3.33A4.64,4.64,0,0,1,33.36,8,4,4,0,0,1,30.31,9.37Z"/><path id="_153576992" data-name=" 153576992" d="M26.73,42.19q.13-1.26.13-4.28V18.36q0-3-.12-4.09h7.11q-.13,1.2-.13,4V37.54q0,3.21.13,4.65Z"/><path id="_153576920" data-name=" 153576920" d="M46.85,14.27h5.47v6.1q-.31,0-1.16-.06t-1.6-.06h-2.7v11.7q0,4.21,2.77,4.21a6.12,6.12,0,0,0,3.52-1.07v6.29a11.61,11.61,0,0,1-5.6,1.26q-4.59,0-6.35-3.27-1.32-2.45-1.32-7.73V20.37h.06v-.13L39,20.19a15.86,15.86,0,0,0-2.14.19v-6.1h3.08V11.82A16.94,16.94,0,0,0,39.74,9H47a17.43,17.43,0,0,0-.19,2.7v2.58Z"/><path id="_153576848" data-name=" 153576848" d="M68.94,14.09A10.58,10.58,0,0,0,63.27,16V5q0-3.58.13-4.72H56.23A34.45,34.45,0,0,1,56.42,5V38.23a27.06,27.06,0,0,1-.19,4h7.29c0-.13,0-.64-.13-1.54s-.13-1.71-.13-2.42V22.76a6.39,6.39,0,0,1,4.28-2.07,4,4,0,0,1,3.65,2.39,10.5,10.5,0,0,1,.94,4.72l-.06,8.49q0,2.14-.32,5.91h7.61a43.42,43.42,0,0,1-.25-5.79V27.79a16.92,16.92,0,0,0-2.45-9.31,8.67,8.67,0,0,0-7.73-4.4Z"/><path id="_153576776" data-name=" 153576776" d="M91.2,42.45A7.84,7.84,0,0,1,83.84,38,20.12,20.12,0,0,1,82,28.67V20.06a42.69,42.69,0,0,0-.25-5.79h7.54q-.19,1.38-.25,5.91l-.06,8.49a11.91,11.91,0,0,0,.82,5.16,3.49,3.49,0,0,0,3.46,1.95q1.76,0,4-2.07V18.24q0-1.07-.13-2.45t-.12-1.51h7.29q-.13,1.07-.13,4V37.48q0,3.71.13,4.72H97.36V39.93a9.25,9.25,0,0,1-6.16,2.52Z"/><path id="_153576704" data-name=" 153576704" d="M119.5,42.38a7.38,7.38,0,0,1-5.66-2.45v2.26h-6.67a26.91,26.91,0,0,0,.19-4V5a34.28,34.28,0,0,0-.19-4.72h7.17q-.13,1.13-.13,4.72V15.91a10.6,10.6,0,0,1,5.66-1.82,8.82,8.82,0,0,1,7.8,4.4,17.25,17.25,0,0,1,2.39,9.31,18.43,18.43,0,0,1-2.52,9.75Q124.53,42.38,119.5,42.38Zm-.94-21.69h0a6.61,6.61,0,0,0-4.34,2.07V33.64a5.82,5.82,0,0,0,4,2q2.45,0,3.71-2.7a11.86,11.86,0,0,0,1-5.09q0-7.11-4.34-7.11Z"/><path id="_153576632" data-name=" 153576632" d="M31.63,48.22A1.93,1.93,0,0,0,30,47.34a1.28,1.28,0,0,0-1.31,1.21c0,1.81,4.26,1.05,4.26,4.66a3.4,3.4,0,0,1-3.53,3.68,3.81,3.81,0,0,1-3.31-2.1l1.35-1.32A2.21,2.21,0,0,0,29.42,55a1.44,1.44,0,0,0,1.38-1.55c0-1.11-1-1.42-1.87-1.75-1.38-.57-2.39-1.27-2.39-2.94a3.13,3.13,0,0,1,3.13-3.22,4.41,4.41,0,0,1,2.94,1.2l-1,1.45Z"/><path id="_153576560" data-name=" 153576560" d="M38.86,56.89c-3.28,0-5.31-2.51-5.31-5.67s2.11-5.64,5.31-5.64,5.31,2.45,5.31,5.64S42.14,56.89,38.86,56.89Zm0-9.25h0a3.29,3.29,0,0,0-3.15,3.49c0,1.65.83,3.69,3.15,3.69s3.15-2,3.15-3.69A3.29,3.29,0,0,0,38.86,47.64Z"/><path id="_153576488" data-name=" 153576488" d="M52.38,48.71A3.1,3.1,0,0,0,50,47.57c-2,0-3.16,1.85-3.16,3.71A3.38,3.38,0,0,0,50,54.89a3.28,3.28,0,0,0,2.38-1.14v2.49a5.63,5.63,0,0,1-2.44.64,5.67,5.67,0,0,1,0-11.31,5,5,0,0,1,2.39.63Z"/><polygon id="_153576416" data-name=" 153576416" points="55.86 56.6 53.77 56.6 53.77 45.86 55.86 45.86 55.86 56.6"/><path id="_153576344" data-name=" 153576344" d="M59.58,54.34l-.88,2.27H56.49l4.19-11H62.3l4.07,11H64.14l-.83-2.27Zm1.81-5.62h0l-1.18,3.91h2.55Z"/><polygon id="_153576272" data-name=" 153576272" points="69.11 54.78 72.07 54.78 72.07 56.6 67.01 56.6 67.01 45.86 69.11 45.86 69.11 54.78"/><path id="_153576200" data-name=" 153576200" d="M84,48.71a3.1,3.1,0,0,0-2.37-1.14c-2,0-3.16,1.85-3.16,3.71a3.38,3.38,0,0,0,3.15,3.62A3.28,3.28,0,0,0,84,53.75v2.49a5.63,5.63,0,0,1-2.44.64,5.67,5.67,0,0,1,0-11.31A5,5,0,0,1,84,46.2v2.51Z"/><path id="_153576128" data-name=" 153576128" d="M90.22,56.89c-3.28,0-5.31-2.51-5.31-5.67s2.11-5.64,5.31-5.64,5.31,2.45,5.31,5.64-2,5.67-5.31,5.67Zm0-9.25h0a3.29,3.29,0,0,0-3.15,3.49c0,1.65.83,3.69,3.15,3.69s3.15-2,3.15-3.69A3.29,3.29,0,0,0,90.22,47.64Z"/><path id="_153576056" data-name=" 153576056" d="M96.56,45.86h3a5.09,5.09,0,0,1,5.19,5.39,5.13,5.13,0,0,1-5.2,5.36h-3Zm2.1,8.92H99c2.58,0,3.58-1.42,3.58-3.55,0-2.34-1.2-3.55-3.58-3.55h-.34Z"/><polygon id="_153575504" data-name=" 153575504" points="107.86 56.6 105.76 56.6 105.76 45.86 107.86 45.86 107.86 56.6"/><polygon id="_153574688" data-name=" 153574688" points="109.38 45.57 110.89 45.57 116.55 53.08 116.58 53.08 116.58 45.86 118.67 45.86 118.67 56.81 117.16 56.81 111.5 49.3 111.48 49.3 111.48 56.6 109.38 56.6 109.38 45.57"/><path id="_153575624" data-name=" 153575624" d="M129.69,50.89v.27c0,3-1.55,5.73-4.89,5.73-3.13,0-5.12-2.65-5.12-5.61s2-5.7,5.24-5.7a4.64,4.64,0,0,1,4.25,2.56l-1.85,1a2.73,2.73,0,0,0-2.45-1.71c-2,0-3,2.07-3,3.85s1,3.76,3,3.76a2.53,2.53,0,0,0,2.45-2.44h-2.28V50.89Z"/></g></g></g></g></svg>