<svg xmlns="http://www.w3.org/2000/svg" viewBox="0 0 1920 1080"><title>heromask</title><g id="Layer_2" data-name="Layer 2"><g id="Layer_2-2" data-name="Layer 2"><path d="M356.76,773.2a12.35,12.35,0,0,0,3.85-2.9,13.42,13.42,0,0,0,2.5-4.15,13.71,13.71,0,0,0,.9-5,15.19,15.19,0,0,0-.85-5.1,12.47,12.47,0,0,0-2.4-4.15,12,12,0,0,0-3.65-2.8,10.14,10.14,0,0,0-4.6-1.05h-25v26.2h24.4A10.88,10.88,0,0,0,356.76,773.2Z" style="fill:#fff"/><path d="M1598.79,769.7a21.76,21.76,0,0,0-5.15-2.7,16.16,16.16,0,0,0-5.55-1,16.35,16.35,0,0,0-7.85,1.85,18.77,18.77,0,0,0-5.85,4.85,21.55,21.55,0,0,0-3.65,6.8,24.45,24.45,0,0,0-1.25,7.7,21.59,21.59,0,0,0,1.5,8,20.94,20.94,0,0,0,4.15,6.65,19.89,19.89,0,0,0,6.15,4.5,17.58,17.58,0,0,0,7.6,1.65,16.5,16.5,0,0,0,5.9-1.1,19.75,19.75,0,0,0,5.25-3,19.36,19.36,0,0,0,4-4.15,12.81,12.81,0,0,0,2.1-4.7V779a20.39,20.39,0,0,0-3-5.2A20.88,20.88,0,0,0,1598.79,769.7Z" style="fill:#fff"/><path d="M363.46,784.15a13.26,13.26,0,0,0-3.9-3,10.52,10.52,0,0,0-4.85-1.15h-27.2v26.9H354a11.75,11.75,0,0,0,5.05-1.1,13.4,13.4,0,0,0,4.1-3,13.75,13.75,0,0,0,2.75-4.3,13.25,13.25,0,0,0,1-5,14.54,14.54,0,0,0-.9-5A13.27,13.27,0,0,0,363.46,784.15Z" style="fill:#fff"/><path d="M669.11,769.7A21.75,21.75,0,0,0,664,767a16.16,16.16,0,0,0-5.55-1,16.36,16.36,0,0,0-7.85,1.85,18.78,18.78,0,0,0-5.85,4.85,21.57,21.57,0,0,0-3.65,6.8,24.47,24.47,0,0,0-1.25,7.7,21.59,21.59,0,0,0,1.5,8,20.93,20.93,0,0,0,4.15,6.65,19.89,19.89,0,0,0,6.15,4.5,17.58,17.58,0,0,0,7.6,1.65,16.5,16.5,0,0,0,5.9-1.1,19.75,19.75,0,0,0,5.25-3,19.35,19.35,0,0,0,3.95-4.15,12.81,12.81,0,0,0,2.1-4.7V779a20.39,20.39,0,0,0-3-5.2A20.87,20.87,0,0,0,669.11,769.7Z" style="fill:#fff"/><path d="M526.86,769.8a20.47,20.47,0,0,0-5.25-2.8,16.31,16.31,0,0,0-5.5-1,16,16,0,0,0-7.6,1.8,19.23,19.23,0,0,0-5.85,4.75,21.18,21.18,0,0,0-3.75,6.75,23.93,23.93,0,0,0-1.3,7.8,21.85,21.85,0,0,0,5.6,14.65,19.81,19.81,0,0,0,6.15,4.55A17.46,17.46,0,0,0,517,808a16.2,16.2,0,0,0,5.35-1,22,22,0,0,0,5.35-2.75,18.45,18.45,0,0,0,4.25-4.1,11.1,11.1,0,0,0,2.15-5.05V779a17.92,17.92,0,0,0-2.9-5A23.42,23.42,0,0,0,526.86,769.8Z" style="fill:#fff"/><path d="M851.05,770.6a18.62,18.62,0,0,0-5.9-3.9,18.37,18.37,0,0,0-7.15-1.4,18.73,18.73,0,0,0-7.2,1.4,18.47,18.47,0,0,0-5.95,3.9,19.18,19.18,0,0,0-4.1,6,22.71,22.71,0,0,0-1.85,7.6h38.3a20.9,20.9,0,0,0-6.15-13.6Z" style="fill:#fff"/><path d="M0,0V1080H1920V0ZM1166.33,683h-11.48V637.16h-34.62v45.72c-.45.13-10.68.17-11.47.05V614.08h11.44v11.15c.48.13,33.52.18,34.64.06V591.11a4,4,0,0,1,.48-.06H1166l.29,0Zm-106-80.72H1049l-6.51-11.16h77.7v11.16H1074.1V683h-11.5V602.28C1061.82,602.23,1061.07,602.26,1060.33,602.26Zm105.94-294c-.41,5.82-.55,11.68-1.26,17.47-7.55,61.36-36.18,110.53-86.41,146.54-37.53,26.9-79.89,39.46-126,37.86-53.35-1.85-99.34-21.72-137.91-58.63a2.16,2.16,0,0,1,0-2.06Q886.82,377.12,959.11,305a6.49,6.49,0,0,1,4.14-1.7q101.51-.13,203-.07ZM913.5,659.71l39.61-68.61h13.13l0,.05s0,0,0,.05a1.6,1.6,0,0,1-.09.21L913.33,683H901.9V591.2l0-.06,0,0,.23,0h10.84l.29,0v68.56Zm193-476a37.36,37.36,0,1,1-37.3,37.33A37.33,37.33,0,0,1,1106.5,183.68ZM752.68,287.26a206.7,206.7,0,0,1,170.73-188c9.44-1.66,19.1-2.08,28.66-3.07l2-.21H964.2c5.69.43,11.39.68,17.06,1.3A205.35,205.35,0,0,1,1073,130.17a6.63,6.63,0,0,1,.55.46l-17.67,17.63c-3.85,3.84-7.67,7.7-11.56,11.49a1.8,1.8,0,0,1-1.67.15,165.46,165.46,0,0,0-90.87-22.34c-72.58,2.92-135.86,54.33-153.26,124.82-10.77,43.67-4.78,85.16,17.4,124.32a1.57,1.57,0,0,1,0,1.44q-14.45,14.55-29,29c-.1.1-.21.17-.43.35-.91-1.41-1.83-2.78-2.7-4.18C759.83,374.66,749.26,332.63,752.68,287.26ZM372.31,802a18.53,18.53,0,0,1-4.3,5.8,19.39,19.39,0,0,1-6.3,3.8A21.76,21.76,0,0,1,354,813h-33.5V742h34.2a14,14,0,0,1,6.7,1.6,16.74,16.74,0,0,1,5.1,4.15,19.05,19.05,0,0,1,3.25,5.8,19.54,19.54,0,0,1,1.15,6.55,18.62,18.62,0,0,1-2.7,9.85,16.7,16.7,0,0,1-7.5,6.65,17.76,17.76,0,0,1,9.65,6.7,18.93,18.93,0,0,1,3.55,11.4A16.84,16.84,0,0,1,372.31,802Zm59.8,11a12.46,12.46,0,0,1-1.95.2h-1.05a5.43,5.43,0,0,1-3.9-1.7,6,6,0,0,1-1.5-4.3v-6a24.25,24.25,0,0,1-9.25,9.45A24.65,24.65,0,0,1,402,814q-8.5,0-12.65-5.65t-4.15-16.85V760.9H392v29.4q0,17.7,12.1,17.7a18,18,0,0,0,5.9-1,18.52,18.52,0,0,0,5.35-2.9,23.44,23.44,0,0,0,4.4-4.5,22.66,22.66,0,0,0,3.15-5.9V760.9h6.8v43.3q0,2.8,2.4,2.8Zm19.8,0h-6.8V760.9h6.8Zm0-63h-6.8V740h6.8Zm30.15,63.1a27.15,27.15,0,0,1-4.75.5,10.11,10.11,0,0,1-7.4-2.65q-2.7-2.65-2.7-7.45V740H474v61.2a6.25,6.25,0,0,0,1.6,4.55,6,6,0,0,0,4.5,1.65,13.52,13.52,0,0,0,2.6-.3,17,17,0,0,0,2.8-.8l1.2,5.5A22.33,22.33,0,0,1,482.06,813.1Zm61.25-.1a12.89,12.89,0,0,1-2.4.3,6.23,6.23,0,0,1-4.2-1.55,4.78,4.78,0,0,1-1.8-3.75v-5.1a22.79,22.79,0,0,1-8.4,8.1,22,22,0,0,1-11,3,22.45,22.45,0,0,1-10-2.25,25.43,25.43,0,0,1-7.9-6,27.33,27.33,0,0,1-5.15-8.55,28.21,28.21,0,0,1-1.85-10.15,30.35,30.35,0,0,1,1.8-10.45,27.91,27.91,0,0,1,5-8.65,23.34,23.34,0,0,1,7.5-5.85,21.25,21.25,0,0,1,9.55-2.15,20.39,20.39,0,0,1,11.7,3.45,26.13,26.13,0,0,1,8,8.35V740h6.8v64.2q0,2.8,2.4,2.8Zm19.8,0h-6.8V760.9h6.8Zm0-63h-6.8V740h6.8Zm58.8,63h-6.8V783.9q0-9.3-2.75-13.5t-8.45-4.2a17.35,17.35,0,0,0-6,1.1,20.27,20.27,0,0,0-5.55,3.1,23.72,23.72,0,0,0-4.55,4.75,18.61,18.61,0,0,0-2.9,5.95V813h-6.8V760.9h6.2v11.8a24.47,24.47,0,0,1,9.15-9.2,25.09,25.09,0,0,1,12.95-3.5,15.36,15.36,0,0,1,7.3,1.6,12.46,12.46,0,0,1,4.8,4.5,20.76,20.76,0,0,1,2.6,7.1,49.89,49.89,0,0,1,.8,9.3Zm61.3.2a21.31,21.31,0,0,1-2,9.55,20.56,20.56,0,0,1-5.5,7,23.44,23.44,0,0,1-8.1,4.2,34,34,0,0,1-9.85,1.4q-9,0-14.5-3.2a25.56,25.56,0,0,1-8.9-8.6l4.2-3.3a18.74,18.74,0,0,0,8.2,7.35,26,26,0,0,0,11,2.35,24.26,24.26,0,0,0,7.2-1.05,17.76,17.76,0,0,0,6-3.1,14.63,14.63,0,0,0,4-5.2,16.92,16.92,0,0,0,1.5-7.35V802.9a21.71,21.71,0,0,1-8.2,7.9,22.05,22.05,0,0,1-10.9,2.9,21.51,21.51,0,0,1-9.85-2.25,25.39,25.39,0,0,1-7.7-6,27.23,27.23,0,0,1-5.05-8.5,28,28,0,0,1-1.8-9.9,30.81,30.81,0,0,1,1.75-10.35,26.62,26.62,0,0,1,5-8.65,24.17,24.17,0,0,1,7.65-5.9,21.93,21.93,0,0,1,9.85-2.2,20.06,20.06,0,0,1,11.6,3.35,32.21,32.21,0,0,1,8.4,8.45V760.9h6.1ZM747,811.3q-1.15.5-2.65,1a30.48,30.48,0,0,1-3.4.9,19.46,19.46,0,0,1-4,.4,14.52,14.52,0,0,1-4.2-.6,9.78,9.78,0,0,1-3.5-1.85,9.1,9.1,0,0,1-2.4-3.15,10.16,10.16,0,0,1-.9-4.4V766.3h-7.2v-5.4h7.2V743.3h6.8v17.6h12v5.4h-12v35.4a5.39,5.39,0,0,0,2,4.25A7,7,0,0,0,739,807.3a12.75,12.75,0,0,0,5.1-1,22.39,22.39,0,0,0,2.8-1.35l1.8,5.5Q748.1,810.8,747,811.3Zm54,1.7h-6.8V783.9q0-8.9-3-13.3a10.2,10.2,0,0,0-9-4.4,15.27,15.27,0,0,0-5.75,1.15,21.31,21.31,0,0,0-5.35,3.15,21.65,21.65,0,0,0-4.35,4.7,19.87,19.87,0,0,0-2.75,5.9V813h-6.8V740H764v32.7a23.62,23.62,0,0,1,8.6-9.3,22.22,22.22,0,0,1,11.9-3.4,16,16,0,0,1,7.6,1.65,14.09,14.09,0,0,1,5.1,4.6,20.14,20.14,0,0,1,2.9,7.1,43.23,43.23,0,0,1,.9,9.15Zm62.7-24.7a4.08,4.08,0,0,1-.1,1.1H819a21.93,21.93,0,0,0,2,7.75,21.25,21.25,0,0,0,4.25,6.15,19,19,0,0,0,5.95,4,17.78,17.78,0,0,0,7.15,1.45,18.43,18.43,0,0,0,5-.7,20.15,20.15,0,0,0,4.6-1.9,17.13,17.13,0,0,0,3.8-3,12.67,12.67,0,0,0,2.6-3.85l5.9,1.6a17.32,17.32,0,0,1-3.4,5.25,23.68,23.68,0,0,1-5.1,4.1,24.94,24.94,0,0,1-6.4,2.7,27.77,27.77,0,0,1-7.3,1,25,25,0,0,1-10.45-2.15,25.59,25.59,0,0,1-8.25-5.9,27.37,27.37,0,0,1-5.45-8.65,28.12,28.12,0,0,1-2-10.5,27.48,27.48,0,0,1,2-10.35,26.8,26.8,0,0,1,5.4-8.5,25.64,25.64,0,0,1,8.25-5.8,26.35,26.35,0,0,1,20.85,0A24.88,24.88,0,0,1,856.5,768a27.47,27.47,0,0,1,7.2,18.7Zm3.52-162.12a57.7,57.7,0,0,1-45,55.38,58.59,58.59,0,0,1-9.74,1.34,51.82,51.82,0,0,1-8.23-.18,57.69,57.69,0,0,1-50.92-44.82A53.16,53.16,0,0,1,752,627.51a57.72,57.72,0,0,1,44.65-58.36,58.5,58.5,0,0,1,8.93-1.34c.44,0,.88,0,1.33,0a6.73,6.73,0,0,0,.68-.11h3.92a6.46,6.46,0,0,0,.68.11,57.11,57.11,0,0,1,37.34,16c.24.24.5.48.69.66l-8.09,8.09L841,591.46a46.26,46.26,0,0,0-17-10,47.42,47.42,0,0,0-8.41-1.9,48.28,48.28,0,0,0-9-.28,43,43,0,0,0-9.61,1.66,45.81,45.81,0,0,0-7.77,3,43.55,43.55,0,0,0-9.48,6.26c-1.11,1-2.2,2-3.24,3a44.05,44.05,0,0,0-5.53,6.91,46.23,46.23,0,0,0-3.95,7.47A44.34,44.34,0,0,0,764,617.81a45.3,45.3,0,0,0-.49,4.51,52.3,52.3,0,0,0-.07,5.41A44.57,44.57,0,0,0,764.9,637a46.81,46.81,0,0,0,3.14,8.51,46.19,46.19,0,0,0,37.9,25.89,51.55,51.55,0,0,0,6.68,0,44.28,44.28,0,0,0,10.61-1.94,45,45,0,0,0,6.88-2.75,46.37,46.37,0,0,0,18-15.93,45.57,45.57,0,0,0,5.77-12.36c.12-.4.24-.8.37-1.3-1.53,0-3,0-4.39,0H798l11.75-11.76h57.44Zm13.25-33.45a5.74,5.74,0,1,1-1.67,4.08A5.71,5.71,0,0,1,880.47,592.73ZM890.26,683H878.83V614.08H890.2l0,0s0,0,0,0q0,34.24,0,68.48C890.29,682.73,890.27,682.82,890.26,683ZM947.7,748.2H908.1v26.1h33.4v5.8H908.1V813h-7V742h46.6Zm53.9,64.8a12.47,12.47,0,0,1-2,.2h-1a5.43,5.43,0,0,1-3.9-1.7,6,6,0,0,1-1.5-4.3v-6a24.25,24.25,0,0,1-9.25,9.45A24.65,24.65,0,0,1,971.5,814q-8.5,0-12.65-5.65T954.7,791.5V760.9h6.8v29.4q0,17.7,12.1,17.7a18,18,0,0,0,5.9-1,18.53,18.53,0,0,0,5.35-2.9,23.43,23.43,0,0,0,4.4-4.5,22.66,22.66,0,0,0,3.15-5.9V760.9h6.8v43.3q0,2.8,2.4,2.8ZM984.42,678.07a46,46,0,1,1,66.55-41H1005.1l-11.73-11.73h44.36a34.67,34.67,0,0,0-26.87-22.62A34.66,34.66,0,0,0,983,663.7a33.8,33.8,0,0,0,23.62,7.84,34.19,34.19,0,0,0,22.72-9.89l8,8C1026,681.56,1004.39,688.08,984.42,678.07Zm53.43,133.23q-1.15.5-2.65,1a30.47,30.47,0,0,1-3.4.9,19.46,19.46,0,0,1-4,.4,14.52,14.52,0,0,1-4.2-.6,9.78,9.78,0,0,1-3.5-1.85,9.1,9.1,0,0,1-2.4-3.15,10.17,10.17,0,0,1-.9-4.4V766.3h-7.2v-5.4h7.2V743.3h6.8v17.6h12v5.4h-12v35.4a5.39,5.39,0,0,0,2,4.25,7,7,0,0,0,4.25,1.35,12.76,12.76,0,0,0,5.1-1,22.45,22.45,0,0,0,2.8-1.35l1.8,5.5Q1039,810.8,1037.85,811.3Zm56.65,1.7a12.47,12.47,0,0,1-2,.2h-1a5.43,5.43,0,0,1-3.9-1.7,6,6,0,0,1-1.5-4.3v-6a24.25,24.25,0,0,1-9.25,9.45A24.65,24.65,0,0,1,1064.4,814q-8.5,0-12.65-5.65t-4.15-16.85V760.9h6.8v29.4q0,17.7,12.1,17.7a18,18,0,0,0,5.9-1,18.53,18.53,0,0,0,5.35-2.9,23.43,23.43,0,0,0,4.4-4.5,22.66,22.66,0,0,0,3.15-5.9V760.9h6.8v43.3q0,2.8,2.4,2.8Zm39-46.1a21.39,21.39,0,0,0-12,3.8,19.16,19.16,0,0,0-7.2,9.9V813h-6.8V760.9h6.4v12.5a23.69,23.69,0,0,1,7.8-9.4,18.08,18.08,0,0,1,10.5-3.4,7,7,0,0,1,1.3.1Zm54.7,21.4a4,4,0,0,1-.1,1.1h-44.6a21.92,21.92,0,0,0,2,7.75,21.25,21.25,0,0,0,4.25,6.15,19,19,0,0,0,6,4,17.78,17.78,0,0,0,7.15,1.45,18.43,18.43,0,0,0,5-.7,20.16,20.16,0,0,0,4.6-1.9,17.14,17.14,0,0,0,3.8-3,12.67,12.67,0,0,0,2.6-3.85l5.9,1.6a17.31,17.31,0,0,1-3.4,5.25,23.68,23.68,0,0,1-5.1,4.1,24.94,24.94,0,0,1-6.4,2.7,27.77,27.77,0,0,1-7.3,1,25,25,0,0,1-10.45-2.15,25.59,25.59,0,0,1-8.25-5.9,27.39,27.39,0,0,1-5.45-8.65,28.13,28.13,0,0,1-1.95-10.5,27.49,27.49,0,0,1,1.95-10.35,26.82,26.82,0,0,1,5.4-8.5,25.64,25.64,0,0,1,8.25-5.8,26.34,26.34,0,0,1,20.85,0A24.88,24.88,0,0,1,1181,768a27.47,27.47,0,0,1,7.2,18.7Zm82.2,9.1A26.54,26.54,0,0,1,1265,806a25.4,25.4,0,0,1-8.2,5.85A25,25,0,0,1,1246.4,814a24.7,24.7,0,0,1-10.4-2.15,25.54,25.54,0,0,1-8.15-5.85,26.51,26.51,0,0,1-5.35-8.6,28.24,28.24,0,0,1-1.9-10.3,27.87,27.87,0,0,1,1.95-10.4,27.3,27.3,0,0,1,5.4-8.6,26.24,26.24,0,0,1,8.15-5.9,24,24,0,0,1,10.3-2.2,24.34,24.34,0,0,1,10.35,2.2,26.09,26.09,0,0,1,8.2,5.9,27.3,27.3,0,0,1,5.4,8.6,27.87,27.87,0,0,1,1.95,10.4A28.26,28.26,0,0,1,1270.4,797.4Zm39.2-50.2a10.15,10.15,0,0,0-3.45-1.7,14.69,14.69,0,0,0-4.15-.6,8.26,8.26,0,0,0-7.3,3.7q-2.5,3.7-2.5,10.7v1.6h14.4v5.4h-14.4V813h-6.8V766.3h-7.2v-5.4h7.2v-1.4q0-9.6,4.1-15a13.26,13.26,0,0,1,11.2-5.45,20.12,20.12,0,0,1,6,.9,17.41,17.41,0,0,1,5,2.4Zm88.3,65.8H1392V802.6q-9.9,10.9-22.8,10.9a28.62,28.62,0,0,1-13.25-3.1,34.93,34.93,0,0,1-10.5-8.2,38.63,38.63,0,0,1-7-11.55,36.36,36.36,0,0,1-2.5-13.25,38.22,38.22,0,0,1,2.45-13.6,36.33,36.33,0,0,1,6.85-11.45,33.63,33.63,0,0,1,10.4-7.9,29.29,29.29,0,0,1,13.1-3,36.79,36.79,0,0,1,9.5,1.15,28.93,28.93,0,0,1,7.65,3.2,24.38,24.38,0,0,1,5.8,4.9,30.48,30.48,0,0,1,4.15,6.25l-5.4,3.6a23,23,0,0,0-9.1-9.7,25.78,25.78,0,0,0-12.7-3.1,22.53,22.53,0,0,0-10.65,2.5,25.66,25.66,0,0,0-8.1,6.65,30.41,30.41,0,0,0-5.15,9.5,34.42,34.42,0,0,0-1.8,11,31.84,31.84,0,0,0,2,11.4,30.16,30.16,0,0,0,5.65,9.45,27.52,27.52,0,0,0,8.45,6.45,23.45,23.45,0,0,0,10.55,2.4,25.17,25.17,0,0,0,11.65-2.85,34.52,34.52,0,0,0,10.65-9V783.5h-15.8v-5.4h21.7Zm19.8,0h-6.8V760.9h6.8Zm0-63h-6.8V740h6.8Zm37.7,63h-7.1l-21.2-52.1h7l17.9,45.8,18-45.8h6.6Zm37.4,0H1486V760.9h6.8Zm0-63H1486V740h6.8Zm58.8,63h-6.8V783.9q0-9.3-2.75-13.5t-8.45-4.2a17.35,17.35,0,0,0-6,1.1,20.27,20.27,0,0,0-5.55,3.1,23.74,23.74,0,0,0-4.55,4.75,18.61,18.61,0,0,0-2.9,5.95V813h-6.8V760.9h6.2v11.8a24.48,24.48,0,0,1,9.15-9.2,25.09,25.09,0,0,1,13-3.5,15.36,15.36,0,0,1,7.3,1.6,12.47,12.47,0,0,1,4.8,4.5,20.78,20.78,0,0,1,2.6,7.1,49.85,49.85,0,0,1,.8,9.3Zm61.3.2a21.32,21.32,0,0,1-2,9.55,20.56,20.56,0,0,1-5.5,7,23.44,23.44,0,0,1-8.1,4.2,34,34,0,0,1-9.85,1.4q-9,0-14.5-3.2a25.55,25.55,0,0,1-8.9-8.6l4.2-3.3a18.75,18.75,0,0,0,8.2,7.35,26,26,0,0,0,11,2.35,24.27,24.27,0,0,0,7.2-1.05,17.76,17.76,0,0,0,6-3.1,14.62,14.62,0,0,0,4-5.2,16.92,16.92,0,0,0,1.5-7.35V802.9a21.71,21.71,0,0,1-8.2,7.9,22.05,22.05,0,0,1-10.9,2.9,21.51,21.51,0,0,1-9.85-2.25,25.39,25.39,0,0,1-7.7-6,27.24,27.24,0,0,1-5-8.5,28,28,0,0,1-1.8-9.9,30.81,30.81,0,0,1,1.75-10.35,26.63,26.63,0,0,1,5-8.65,24.18,24.18,0,0,1,7.65-5.9,21.93,21.93,0,0,1,9.85-2.2,20.06,20.06,0,0,1,11.6,3.35,32.22,32.22,0,0,1,8.4,8.45V760.9h6.1Z" style="fill:#fff"/><path d="M1259.8,772.15a19.52,19.52,0,0,0-6-4.5,16.81,16.81,0,0,0-7.35-1.65,16.49,16.49,0,0,0-7.3,1.65,19.33,19.33,0,0,0-6,4.55A21.94,21.94,0,0,0,1229,779a22.53,22.53,0,0,0-1.5,8.25,21.74,21.74,0,0,0,1.5,8.15,22.14,22.14,0,0,0,4,6.6,18.32,18.32,0,0,0,6,4.45,17.27,17.27,0,0,0,7.35,1.6,16.81,16.81,0,0,0,7.35-1.65,19.52,19.52,0,0,0,6-4.5,21.42,21.42,0,0,0,4.1-6.65,23,23,0,0,0,0-16.35A21.31,21.31,0,0,0,1259.8,772.15Z" style="fill:#fff"/><path d="M1175.55,770.6a18.63,18.63,0,0,0-5.9-3.9,18.37,18.37,0,0,0-7.15-1.4,18.73,18.73,0,0,0-7.2,1.4,18.48,18.48,0,0,0-6,3.9,19.21,19.21,0,0,0-4.1,6,22.69,22.69,0,0,0-1.85,7.6h38.3a21.05,21.05,0,0,0-2-7.65A20.83,20.83,0,0,0,1175.55,770.6Z" style="fill:#fff"/></g></g></svg>