<?xml version="1.0" encoding="utf-8"?>
<!-- Generator: Adobe Illustrator 21.1.0, SVG Export Plug-In . SVG Version: 6.00 Build 0)  -->
<svg version="1.1" id="Layer_1" xmlns="http://www.w3.org/2000/svg" xmlns:xlink="http://www.w3.org/1999/xlink" x="0px" y="0px"
	 viewBox="0 0 1778.1 1668.3" style="enable-background:new 0 0 1778.1 1668.3;" xml:space="preserve">
<style type="text/css">
	.st0{fill:#FFFFFF;}
</style>
<title>opensource</title>
<g id="Layer_2">
	<g id="Layer_1-2">
		<path class="st0" d="M888.8,0.8c7.5,0,15-0.2,22.5,0c16,0.5,32.1,0.8,48.1,2.1c16.7,1.4,33.3,3.5,49.8,5.9
			c18.9,2.7,37.9,5.3,56.6,9.2c21.8,4.5,43.6,9.5,64.9,16c30,9.1,59.7,19.5,89.2,30.1c13.8,4.9,27,11.4,40.3,17.6
			c12.9,6,26,11.7,38.4,18.7c24.5,13.7,48.8,27.8,72.6,42.6c17.6,11,34.5,23,51.2,35.3c12.9,9.5,25.3,19.9,37.5,30.3
			c12.6,10.7,24.9,21.6,36.9,32.9c12.6,11.8,25.3,23.6,37.1,36.2c22.5,24,43.8,49.1,63.7,75.3c22.3,29.5,43.1,59.9,61.2,92.1
			c11.7,20.8,23.6,41.6,33.5,63.3c12.8,28.1,24.3,56.9,35.4,85.8c11.8,30.5,20.3,62.2,27.7,94.1c4.1,17.8,7.2,35.8,10.5,53.8
			c2.3,12.4,4.3,24.8,5.9,37.3c1.4,11.6,1.9,23.3,3.2,34.9c4.1,36.2,3.2,72.6,2.8,108.9c-0.2,17.3-2.3,34.5-3.9,51.7
			c-1.4,15.2-2.8,30.4-5.1,45.5c-2.7,17.6-6.3,35-9.7,52.4c-7.9,39-18.6,77.3-32.2,114.6c-7.1,19.6-14.9,38.9-23.1,58.1
			c-7.4,17.1-15,34.1-24,50.4c-14,25.6-28.6,51-44.1,75.7c-12.8,20.3-26.9,39.7-41.1,59.1c-8.7,11.9-18.7,22.9-28,34.4
			c-20.8,25.5-44,48.7-67.7,71.4c-14.8,14.2-30.4,27.8-46.6,40.6c-23.2,18.3-46.9,36.1-71.1,53.1c-17.1,11.9-35.3,22.3-53.2,33
			c-15.5,9.3-36.5,6.8-48.1-6.8c-4.7-5.5-8.1-12.3-11.7-18.6c-12.7-22.2-25.4-44.5-37.9-66.9c-9.2-16.3-18.2-32.8-27.5-49.1
			c-10.7-18.9-21.6-37.7-32.3-56.6c-7.9-13.9-15.7-27.9-23.5-41.8c-11.2-19.7-22.3-39.5-33.5-59.2c-7.5-13.2-15-26.4-22.4-39.7
			c-11.3-19.9-22.5-39.8-33.8-59.7c-7.9-14.1-15.6-28.3-23.6-42.3c-10.7-18.9-21.9-37.5-32.2-56.6c-9.3-17.3-5.7-40.2,13.5-51.6
			c15.4-9,30-19.3,43.5-30.9c21.7-18.8,40.1-41,54.4-65.8c13.3-22.9,23.3-47.1,28.7-73c2.9-13.7,3.7-27.9,5.3-41.9
			c0.7-5.2,1.1-10.5,1-15.8c-1.2-34-7.6-66.8-21.1-98.2c-34.4-79.9-106.3-137.4-191.9-153.3c-9.5-1.8-19.2-2.4-28.9-3.1
			c-8.2-0.8-16.5-1.2-24.8-1c-21,0.9-41.8,3.3-61.8,9.9c-15,4.9-30,10-44.3,16.7c-17.4,8-33.6,18.4-48.1,30.9
			c-9.6,8.3-19.2,16.9-28,26c-13.1,13.7-24.5,29.1-33.8,45.7c-9.6,17-17.8,34.5-23.5,53.2c-4.8,15.8-8.7,31.8-9.8,48.3
			c-0.8,11.2-2.4,22.5-1.8,33.6c1,16,3,32,5.9,47.7c3.9,21.8,11.9,42.3,21.9,62c22.8,44.2,57.6,81,100.3,106.4
			c9.3,5.5,16.9,11.7,20.6,22c4.8,13.4,1.4,25.7-5.5,37.5c-8.3,14.1-16.3,28.3-24.3,42.5c-10.9,19.1-21.8,38.3-32.6,57.5
			c-7.9,13.9-15.6,27.9-23.5,41.8c-11.2,19.8-22.3,39.5-33.5,59.2c-7.5,13.2-15,26.4-22.4,39.7c-11.3,19.9-22.5,39.8-33.8,59.7
			c-7.7,13.7-15.3,27.3-23,41c-11.3,20-22.7,40-34,60.1c-9.2,16.3-18.2,32.8-27.5,49.1c-6.1,10.8-12,21.7-18.8,32.1
			c-6,9.1-15.2,13.2-26.1,14.5c-14.1,1.7-25-5.5-36-12.2c-15-9.2-30.2-18.2-44.6-28.3c-21-14.8-41.7-30-61.8-45.8
			c-15.3-12-29.9-24.9-44.1-38.1c-16.1-14.9-31.9-30.2-47-46.1c-13.4-14.1-25.6-29.2-38.2-44c-19.9-23.4-38.3-48.2-54.9-74.1
			c-13.3-20.5-25.8-41.6-37.8-62.9c-10.1-18.1-19.8-36.6-28.2-55.5c-10.5-23.6-19.8-47.8-29.2-71.9c-13.1-33.7-22.4-68.7-30.7-103.9
			c-4.3-18.4-7.3-37.1-10.3-55.8c-2.8-18.1-5.1-36.3-7-54.6c-1.5-13.8-2.6-27.6-3-41.4c-0.7-26.1-1.3-52.2-0.9-78.3
			c0.3-16.9,2.4-33.8,3.8-50.7C4.8,794.1,5.7,784,7,773.9c1.5-11.7,2.9-23.4,5.1-35c3.3-17.9,6.7-35.9,11-53.6
			c5-20.5,10.9-40.9,16.9-61.1c10-33.6,22.8-66.2,37.2-98.1c15.6-34.8,32.9-68.7,53.6-100.7c15.2-23.4,30.5-46.7,46.8-69.4
			c10.9-15,22.5-29.4,35-43.1c20.2-22.4,40.6-44.6,62-65.9c15.3-15.2,32.2-28.8,48.5-42.9c24.7-21.2,50.9-40.6,78.3-58.2
			c18.9-12.2,38.3-23.7,57.9-34.8c15.6-8.9,31.5-17.6,47.9-24.8C535.4,73.8,563.8,61.3,593,51c29.6-10.4,59.9-18.8,90.2-26.8
			c19-5,38.6-8.1,58-11.5c15.5-2.7,31-5.1,46.6-6.9c13.1-1.6,26.2-2.3,39.4-3.1c20.5-1.1,41-1.9,61.6-2.9L888.8,0.8z"/>
	</g>
</g>
</svg>
