<svg xmlns="http://www.w3.org/2000/svg" xmlns:xlink="http://www.w3.org/1999/xlink" viewBox="0 0 1300.62 1177.1"><defs><linearGradient id="Áåçûìÿííûé_ãðàäèåíò_108" x1="429.72" y1="172.66" x2="880.49" y2="191.19" gradientUnits="userSpaceOnUse"><stop offset="0" stop-color="#275d5f"/><stop offset="1" stop-color="#347f82"/></linearGradient><linearGradient id="Áåçûìÿííûé_ãðàäèåíò_21" x1="1031.72" y1="397.8" x2="469.8" y2="388.54" gradientUnits="userSpaceOnUse"><stop offset="0" stop-color="#488080"/><stop offset="1" stop-color="#5daa9d"/></linearGradient><linearGradient id="Áåçûìÿííûé_ãðàäèåíò_28" x1="180.43" y1="636.25" x2="1057.28" y2="704.18" gradientUnits="userSpaceOnUse"><stop offset="0" stop-color="#488780"/><stop offset="1" stop-color="#6cbc9d"/></linearGradient></defs><title>open-source</title><g id="Layer_2" data-name="Layer 2"><g id="Ñëîé_1" data-name="Ñëîé 1"><path d="M327.34,134A169.28,169.28,0,0,0,393,268.55,54.14,54.14,0,1,1,469.6,192L650.29,372.66,831,192a333.57,333.57,0,0,1,226.7-98.91h0l-25.62-25.61a230.25,230.25,0,0,0-325.63,0L650.28,123.6,594.14,67.45A228.74,228.74,0,0,0,431.32,0a232.68,232.68,0,0,0-42.05,3.87A169.21,169.21,0,0,0,327.34,134Z" style="fill:url(#Áåçûìÿííûé_ãðàäèåíò_108)"/><path d="M1158.23,327.74a171.3,171.3,0,0,0-81.16-126.2c-61.18-1.77-122.94,20.42-169.54,67L650.28,525.8,393,268.55A169.19,169.19,0,0,1,389.26,3.87,228.63,228.63,0,0,0,268.5,67.45c-89.78,89.78-89.78,235.85,0,325.63L650.29,774.86l381.77-381.78a54.15,54.15,0,1,1,76.58,76.57A171.29,171.29,0,0,0,1158.23,327.74Z" style="fill:url(#Áåçûìÿííûé_ãðàäèåíò_21)"/><path d="M1233.18,268.55a229.23,229.23,0,0,0-156.1-67,171.28,171.28,0,0,1,31.57,268.11L650.28,928,192,469.62a328.47,328.47,0,0,1-99.11-226.5L67.42,268.56a230.29,230.29,0,0,0,0,325.61L650.24,1177.1l0,0h0l582.89-582.9a230.26,230.26,0,0,0,0-325.63Z" style="fill:url(#Áåçûìÿííûé_ãðàäèåíò_28)"/></g></g></svg>