<?xml version="1.0" ?><svg id="Layer_1" style="enable-background:new 0 0 24 24;" version="1.1" viewBox="0 0 24 24" xml:space="preserve" xmlns="http://www.w3.org/2000/svg" xmlns:xlink="http://www.w3.org/1999/xlink"><g><g><path d="M17.655,23.253c-0.045,0-0.09-0.006-0.134-0.018c-0.128-0.036-0.236-0.121-0.302-0.236l-3.695-6.539    c-0.136-0.24-0.051-0.545,0.188-0.681c1.103-0.625,1.787-1.787,1.787-3.032c0-1.93-1.57-3.5-3.5-3.5s-3.5,1.57-3.5,3.5    c0,1.245,0.685,2.407,1.787,3.032c0.239,0.136,0.324,0.441,0.188,0.681L6.78,22.999c-0.065,0.115-0.174,0.2-0.302,0.236    c-0.128,0.035-0.265,0.018-0.38-0.047C2.337,21.057,0,17.056,0,12.747c0-6.617,5.383-12,12-12s12,5.383,12,12    c0,4.31-2.337,8.311-6.099,10.441C17.826,23.231,17.741,23.253,17.655,23.253z M14.627,16.379l3.212,5.683    C21.035,20.054,23,16.53,23,12.747c0-6.065-4.935-11-11-11s-11,4.935-11,11c0,3.783,1.965,7.307,5.161,9.315l3.212-5.683    C8.207,15.536,7.5,14.186,7.5,12.747c0-2.481,2.019-4.5,4.5-4.5s4.5,2.019,4.5,4.5C16.5,14.186,15.793,15.536,14.627,16.379z"/></g></g><g/><g/><g/><g/><g/><g/><g/><g/><g/><g/><g/><g/><g/><g/><g/></svg>