<?xml version="1.0" encoding="utf-8"?>
<!-- Generator: Adobe Illustrator 21.1.0, SVG Export Plug-In . SVG Version: 6.00 Build 0)  -->
<svg version="1.1" id="Layer_1" xmlns="http://www.w3.org/2000/svg" xmlns:xlink="http://www.w3.org/1999/xlink" x="0px" y="0px"
	 viewBox="0 0 490.2 505.1" style="enable-background:new 0 0 490.2 505.1;" xml:space="preserve">
<style type="text/css">
	.st0{fill:#FFFFFF;}
</style>
<title>Asset 2</title>
<g id="Layer_2">
	<g id="Layer_1-2">
		<path class="st0" d="M273.4,138.2c7.3-14.4,15-28.7,21.8-43.5c11-24.2,17.4-49.5,17.8-76.3c0.1-8.3,5.1-13.4,12.4-13.3
			c7.4,0.1,12.5,5.6,12.3,14c-0.8,43.6-9.4,85.2-30.6,123.7c-18.4,33.3-18.1,33.3-17.8,73.3c0.5,80.5,0.9,161,1.2,241.5
			c0,9.7,0.2,19.3,0.2,29c0,11-6.1,17.8-15.8,17.8s-15.9-6.8-16.4-17.5c-1.8-35.6-3.8-71.2-5.6-106.8c-1.1-20.6-2.2-41.3-3.3-61.9
			c-0.1-1.5-0.2-2.9-0.3-4.8l-5.4-0.4c-0.4,5.6-0.9,10.8-1.2,16.1c-2.5,41.1-4.9,82.1-7.3,123.2c-0.7,12-1.4,24-2.2,35.9
			c-0.7,10.2-7.6,17-16.8,16.7c-9.5-0.3-15.7-7.6-15.6-18.3c0.9-68.6,2.2-137.3,2.7-206c0.2-32.1-1-64.3-1.9-96.4
			c-0.1-4.1-2.2-8.3-3.9-12.2c-4.3-9.5-8.6-19.1-13.7-28.3c-21.7-38.7-31.3-80.4-31.9-124.4c-0.1-8.3,4.9-14,12.1-14.3
			c7.6-0.3,13.3,5,13.3,13c0.4,35.6,11.8,67.9,28.5,98.7l11.7,21.4l4.1-1.9l8.5-4.5c10.5-3.9,20.5-3.5,31.1-0.1L273.4,138.2z"/>
		<path class="st0" d="M119.9,131.5l6.5,1.9c0.3-7.2,1-14,0.8-20.8c-0.7-31.6-1.5-63.3-2.7-94.9c-0.4-11.6,8.5-20,19.8-17.1
			c-6.3,6.8-4.4,14.9-4,22.7c1.9,36.4,6.4,72.7,13.4,108.5c2.9,14.3,3.6,29.1,1.8,43.6c-1.7,13.3-0.4,26.5,0.9,39.8
			c2.2,22.7,0.1,45.2-2.6,67.8c-1.7,14.4-2.6,28.9-3.7,43.3c-2.2,28.6-4.4,57.1-6.6,85.7c-1.9,24.6-3.7,49.2-5.5,73.7
			c-0.7,9.3-5,15.7-12.3,17.4c-10.6,2.4-19.6-4.7-19.4-15.6c0.4-17.1,1.2-34.3,1.8-51.5c1.3-37.1,2.7-74.3,4-111.4c0.1-2,0-4,0-6.2
			h-8.2c-1.9,9.4-3.9,19.1-5.8,28.9c-9.4,47.5-18.8,95-28.2,142.5c-1.7,8.7-10,14.8-18.2,13.5c-7.8-1.2-14-10.2-12.8-18.7
			c7.3-51.2,14.9-102.4,22-153.7c4-29,7.3-58.1,10.7-87.2c0.6-5.3,0.1-10.6,0.1-16c-0.1-0.8-0.4-1.6-0.7-2.3
			c-0.5,0.4-0.9,0.6-0.9,0.8c-5.4,16.9-17.7,29.1-28.4,42.4c-6.7,8.3-13.5,16.6-20.3,24.8c-4.9,5.9-11.8,7-17.1,2.8
			s-5.8-10.8-1.5-17C13.6,263.7,25,248.7,35,232.8c5.7-9,9.3-19.4,13.4-29.3c6.8-16.8,13.3-33.7,19.9-50.6c0.4-1.1,1-2,2-3.9
			 M70.3,148.9c7.2-13.4,25.7-24.2,49.6-17.4"/>
		<path class="st0" d="M379.6,129.5c13.2-1.4,24.1,2.7,34.1,11.9l6.5,7.1c2.8,7,5.4,13.1,7.8,19.3c7.2,18.4,14.2,36.9,21.5,55.4
			c1,2.6,2.4,5.1,4,7.4c11.1,16,22.4,31.9,33.5,47.9c4.8,6.8,4.3,13.5-1.2,17.8s-12.4,2.8-17.8-3.7c-10.6-13-21.1-26.2-32-39
			c-5.9-6.6-10.5-14.2-13.7-22.4c-0.8-2.2-2.1-4.1-3.8-5.6c-0.2,2.2-0.3,4.4-0.3,6.6c2.1,22.4,3.7,44.8,6.5,67
			c4.4,34,9.6,67.9,14.5,101.8c3.9,26.9,7.7,53.7,11.6,80.5c0.9,6,0.7,11.6-3.6,16.4c-4,4.5-8.8,6.9-14.7,5.1
			c-6.3-1.9-10.8-5.9-12.2-12.6c-4.3-21.7-8.7-43.4-12.9-65.1c-6.8-34.2-13.6-68.5-20.4-102.8c-0.3-1.3-0.7-2.6-1.1-4.1h-7.4
			c0,7.9-0.2,15.7,0,23.5c1.1,32.8,2.4,65.6,3.5,98.4c0.5,14.8,1,29.6,1.6,44.5c0.5,11.1-4.7,18.1-14,18.7
			c-10.1,0.7-16.5-5.7-17.4-16.8c-2.8-37.5-5.8-75.1-8.7-112.6c-2.1-28.2-4.1-56.5-6.4-84.7c-1-13.1-3.6-26.2-3.7-39.2
			c-0.1-17.8,1.8-35.5,2.2-53.3c0.2-8.5-0.3-17-1.5-25.4c-2.2-15.7,0.7-30.8,3.5-46c6.5-35.7,10.7-71.9,12.6-108.1
			c0.3-6-0.1-11.6-4.4-16.4c7.7-2.6,16.1,1.5,18.7,9.1c0.6,1.7,0.9,3.6,0.8,5.4c-0.2,10-1.5,20-1.6,29.9c-0.3,28.3-0.2,56.6-0.3,85
			c0.1,1.1,0.3,2.2,0.5,3.2l6.3-2L379.6,129.5z"/>
		<path class="st0" d="M282.4,81.7c0,21.3-17.3,38.6-38.7,38.6c-21.3,0-38.6-17.3-38.6-38.7c0-21.1,17-38.3,38.1-38.6
			c21.2-0.4,38.8,16.5,39.2,37.8C282.4,81.1,282.4,81.4,282.4,81.7z"/>
		<path class="st0" d="M444.2,84.6c-0.2,20.9-17.3,37.7-38.2,37.5c-20.9-0.2-37.7-17.3-37.5-38.2s17.3-37.7,38.2-37.5
			c0.1,0,0.1,0,0.2,0C427.7,46.6,444.4,63.7,444.2,84.6z"/>
		<path class="st0" d="M121.4,84.3c-0.1,20.9-17.1,37.7-38,37.6s-37.7-17.1-37.6-38C46,63,63,46.2,83.9,46.3c0,0,0,0,0,0
			C104.8,46.5,121.6,63.5,121.4,84.3z"/>
	</g>
</g>
</svg>
