<svg xmlns="http://www.w3.org/2000/svg" viewBox="0 0 465.95 506.89"><title>vault</title><g id="Layer_2" data-name="Layer 2"><g id="Layer_1-2" data-name="Layer 1"><path d="M.1,232.76q0-97.48.06-195A62.45,62.45,0,0,1,1.53,23.93c3-13.19,13-21.2,28.14-23a120.36,120.36,0,0,1,14-.89Q232.08,0,420.54,0A104.75,104.75,0,0,1,439.4,1.71c15.94,2.94,23.6,11.36,25.46,27.6a162.55,162.55,0,0,1,1,18.43q.09,183.71,0,367.42c0,6.48-.34,13-1,19.44C463,455.08,454,464,433.39,465.55c-10.95.81-22,.88-33,1-3.42,0-4.47,1-4.69,4.46a182.56,182.56,0,0,1-2.56,22.79c-1.62,8.43-5.87,12.49-14.37,12.7-19,.46-38,.4-56.92,0-9-.2-14.9-5.31-16.84-14.31a177.37,177.37,0,0,1-3.59-19.61c-.43-4.36-2.29-4.91-6-4.89-29.16.14-58.32.09-87.48.09-12.5,0-25,.14-37.49-.09-4.77-.09-6.48,1.9-6.76,6.42-.37,6-1,12-1.92,17.87-1.46,9.45-5.74,14.26-14.95,14.52q-29.18.83-58.41.14c-8.87-.2-13.39-4.46-15.27-13.13A214.18,214.18,0,0,1,70,471.25c-.38-3.43-1.44-4.79-5.18-4.75-11,.14-22.07.63-33-.51C10.89,463.79.16,451.23.13,430.21Q0,340.73,0,251.25q0-9.25,0-18.5ZM240.86,38.56v0q-78,0-156,0c-23.5,0-39.92,16.49-40.12,39.9-.08,10,.16,20-.14,30a9.07,9.07,0,0,1-3,6c-8.14,6.67-12.4,15.11-12.52,25.57s-.1,21,0,31.49a32.19,32.19,0,0,0,12.61,26,8.33,8.33,0,0,1,2.93,5.58q.29,36.24,0,72.48a7.61,7.61,0,0,1-2.54,5.25c-8.77,6.87-13,15.78-13,26.83,0,10.16-.06,20.33,0,30.49.06,10.85,4.36,19.58,12.9,26.4a8.47,8.47,0,0,1,2.67,5.66c.31,7.49,0,15,.15,22.49.28,18.53,14.38,35,32.81,37.11,9.71,1.13,19.62.78,29.43.78q144.47.08,288.94,0c23.8,0,40.85-16.85,40.86-40.49q.09-155.47,0-310.93c0-24.23-16.72-40.64-41-40.65Q318.34,38.54,240.86,38.56Z" style="fill:#fff"/><path d="M421,234.31q0,77.24,0,154.48c0,16.84-9.11,26-25.79,26H89.3c-20.91,0-29.08-8.12-29.09-28.88,0-9-.07-18,0-27,0-2.68-.56-3.94-3.53-4.7-7.61-1.95-11.71-7.52-11.79-15.33q-.16-15.75,0-31.5c.07-8.84,4.06-13.86,12.37-16.57,1.22-.4,2.81-2.24,2.81-3.42.15-32,.1-64,.16-96,0-2.41-.73-3.31-3.22-3.93-7.84-1.94-12-7.43-12.12-15.58-.12-10.66-.08-21.33,0-32,.08-7.89,4-13.36,11.68-15.38,3.2-.84,3.68-2.31,3.66-5.14-.11-13.33-.07-26.66,0-40C60.25,63.93,70,54,85.44,54q155.23,0,310.47,0C411.44,54,421,63.68,421,79.33Q421.07,156.82,421,234.31ZM241,399.22v0q77.23,0,154.46,0c7.57,0,9.89-2.32,9.92-9.8.06-14.16,0-28.33,0-42.49q0-133.22,0-266.44c0-8-2.39-10.73-9.63-10.73q-155,0-309.93,0c-7.34,0-9.9,2.59-9.93,9.94-.05,15.83,0,31.66,0,47.49,0,3.83,1.37,9.12-.58,11.08s-7.34,1.37-11.19,1.27c-3.5-.08-4.18,1.38-4.07,4.45.23,6.49.16,13,.24,19.49.1,9.28.13,9.57,9.37,9,5-.3,6.43,1,6.4,6.16-.25,38.66-.15,77.31-.14,116,0,11.55,0,11.71-11.52,11.74-3.72,0-4.48,1.45-4.34,4.74.25,5.66.14,11.33.21,17C60.4,339,60.4,339,71,339.07a3,3,0,0,0,.5,0c3.53-.58,4.5.94,4.46,4.41-.18,14.66-.08,29.33-.07,44,0,9.73,2,11.75,11.63,11.75Z" style="fill:#fff"/></g><g id="Layer_2-2" data-name="Layer 2"><g id="Layer_2-3" data-name="Layer 2"><g id="Group_1" data-name="Group 1"><g id="Layer_4_Image" data-name="Layer 4 Image"><path d="M356.24,237.25c-.23,3.23-.3,6.48-.7,9.7-4.19,34.06-20.08,61.35-48,81.35a110.67,110.67,0,0,1-69.95,21c-29.61-1-55.14-12.06-76.55-32.54a1.2,1.2,0,0,1,0-1.15q40-40.12,80.17-80.16a3.6,3.6,0,0,1,2.3-.94q56.34-.07,112.68,0Z" style="fill:#fff"/><path d="M244.08,119.45c3.16.24,6.32.38,9.47.72a114,114,0,0,1,50.91,18.25l.3.24L295,148.45c-2.13,2.13-4.26,4.27-6.42,6.38a1,1,0,0,1-.93.08,91.87,91.87,0,0,0-50.42-12.39c-40.28,1.62-75.41,30.16-85.06,69.29-6,24.25-2.66,47.28,9.65,69a.87.87,0,0,1,0,.8q-8,8.08-16.09,16.11c-.05.05-.12.1-.24.19-.51-.79-1-1.54-1.5-2.32-13.28-21.47-19.15-44.8-17.25-70a114.74,114.74,0,0,1,94.76-104.36c5.24-.92,10.6-1.15,15.91-1.71l1.08-.12Z" style="fill:#fff"/><path d="M318.89,183.4a11.48,11.48,0,1,1,0,.07S318.89,183.43,318.89,183.4Z" style="fill:#fff"/></g></g></g></g></g></svg>